<svg width="227" height="280" viewBox="0 0 227 280" fill="none" xmlns="http://www.w3.org/2000/svg">
<path d="M52.1298 126.066C51.5398 124.666 50.9698 123.246 50.4398 121.816C37.4398 87.2259 42.6998 44.9459 72.6498 20.9459C80.9098 14.3259 88.5398 8.70587 98.3898 4.44587C101.45 3.12587 104.9 1.86587 108.04 2.99587C111.18 4.12587 112.93 8.86587 110.26 10.8559C116.483 6.47134 123.419 3.19951 130.76 1.18587C135.14 -0.0041343 139.96 -0.714134 144.12 1.11587C148.28 2.94587 151.18 8.17587 149.12 12.2159C155.12 10.0259 161.57 8.14587 167.8 9.49587C177.19 11.4959 184.52 25.4959 188.55 33.4959C194.207 45.0105 197.156 57.6666 197.17 70.4959C197.28 81.1359 194.35 91.5559 191.17 101.696C186.71 115.906 181.45 130.326 171.55 141.456C161.45 152.686 150.07 155.816 135.66 156.686C127.26 157.196 118.88 158.026 110.5 158.766C106.25 159.146 101.99 159.526 97.7298 159.766C93.9298 159.996 90.4598 161.926 86.6298 162.436C83.3627 162.988 80.0046 162.443 77.0798 160.886C74.9325 159.46 73.048 157.674 71.5098 155.606C67.4874 151.015 63.7184 146.208 60.2198 141.206C57.0555 136.423 54.347 131.354 52.1298 126.066Z" fill="#00214E"/>
<circle cx="64.8901" cy="118.216" r="17" fill="#845161"/>
<circle cx="70.75" cy="117.216" r="16" fill="#69303A"/>
<path d="M226.48 241.396C159.632 292.867 66.3909 292.455 0 240.396L48.66 217.586C50.9774 216.496 53.2015 215.219 55.31 213.766C55.95 213.326 56.59 212.866 57.2 212.386C62.4959 208.334 66.8551 203.187 69.98 197.296C73.98 189.746 75.3 181.406 75.36 172.906C75.36 171.166 75.36 169.416 75.3 167.676C75.21 163.676 75.03 159.676 74.99 155.736C74.95 152.569 74.9167 149.399 74.89 146.226L76.89 147.226L82.09 149.916L84.5 150.326L112.38 155.066L143.5 160.366L144.44 192.366L144.8 204.576L144.9 207.906V208.236L157 213.156L226.48 241.396Z" fill="#845161"/>
<path d="M144.81 204.766L143.27 204.926C128.221 206.245 113.351 200.889 102.6 190.276L75.2201 158.366C75.1301 155.466 75.0201 157.766 74.9901 154.856C74.9501 151.689 74.9168 148.519 74.8901 145.346L76.8901 146.346L82.0901 149.036L84.5001 149.446L112.38 154.186L143.5 159.486L144.44 191.486L144.81 204.766Z" fill="#69303A"/>
<path d="M85.92 85.4958C85.0547 90.7826 84.7197 96.1425 84.92 101.496C84.02 101.306 67.49 96.8958 67.61 98.2758C68.48 108.636 73.99 149.046 75.04 159.276L111.46 186.136C123.562 195.177 139.024 198.446 153.75 195.076C159.62 193.696 163.34 192.786 165.99 188.076C171.11 179.076 183.68 148.286 184.5 126.566C184.73 120.396 184.58 110.996 180.78 105.746C178.93 103.196 177.98 103.136 178.65 99.5358C179.34 95.7758 180.33 92.0658 181.16 88.3258C183.16 79.2658 183.91 70.8658 181.91 61.5858C180.54 55.2558 174.44 43.8658 174.44 43.8658C173.63 48.4758 166.44 55.4158 159.57 56.8058C143.74 60.0058 130.84 52.9458 115.57 52.1758C109.14 51.8458 102.36 53.3558 97.57 57.6358C93.89 60.9058 91.66 65.4958 89.94 70.1158C88.0962 75.0974 86.7497 80.2492 85.92 85.4958V85.4958Z" fill="#845161"/>
<path d="M150.26 101.496C150.53 105.384 151.2 109.235 152.26 112.986C153.26 116.296 154.77 118.346 156.78 121.196C157.464 122.141 158.063 123.145 158.57 124.196C161.21 130.136 157.7 136.726 151.02 136.726H146.89" stroke="#00214E"/>
<path d="M121.23 146.526C126.034 151.893 132.621 155.336 139.77 156.216" stroke="#00214E"/>
<path d="M102.56 90.3859C111.817 88.4663 121.339 88.1955 130.69 89.5859" stroke="#00214E"/>
<path d="M161.61 90.4959C167.328 89.1658 173.222 88.754 179.07 89.2759" stroke="#00214E"/>
<path d="M226.48 241.396C159.632 292.867 66.3909 292.455 0 240.396L48.66 217.586C50.9774 216.496 53.2015 215.219 55.31 213.766C55.95 213.326 56.59 212.866 57.2 212.386C80.75 229.146 112.89 239.716 140.69 227.206C147.31 224.206 153.39 219.366 156.99 213.146L226.48 241.396Z" fill="#FF2609"/>
<path d="M133.56 129.686C132.067 130.45 131.354 132.188 131.881 133.78C132.407 135.372 134.016 136.342 135.67 136.066" stroke="#00214E"/>
<path d="M118.07 98.0159C124.17 98.0159 124.17 107.396 118.07 107.446H117.79C111.69 107.446 111.69 98.0659 117.79 98.0159H118.07Z" fill="#00214E"/>
<path d="M168.32 98.0159C173.98 98.0159 173.98 106.726 168.32 106.766H168.07C162.41 106.766 162.41 98.0659 168.07 98.0159H168.33H168.32Z" fill="#00214E"/>
</svg>
