<svg width="227" height="275" viewBox="0 0 227 275" fill="none" xmlns="http://www.w3.org/2000/svg">
<path fill-rule="evenodd" clip-rule="evenodd" d="M173.688 57.1149C174.028 58.763 174.375 60.4448 174.74 62.1617C184.19 106.452 187.77 186.012 187.77 186.012C187.77 186.012 31.47 186.902 1.53003 183.902L1.77374 182.467C6.04231 157.346 10.3106 132.225 15.07 107.192C15.4709 105.038 15.8724 102.831 16.2814 100.582C18.7191 87.1819 21.4243 72.3112 25.86 58.4817C29.3 47.7417 33.82 37.6217 40.13 29.3017C44.6218 23.6528 50.1129 18.8769 56.33 15.2117C64.6828 10.2217 73.6798 6.39955 83.07 3.85166C89.6535 1.99979 96.3965 0.77105 103.21 0.181661C114.707 -0.63818 126.231 1.33456 136.8 5.93166C142.023 8.16759 146.972 10.9961 151.55 14.3617C167.258 25.9579 170.082 39.6418 173.688 57.1149ZM83.77 77.1717L100.57 82.6017L138.14 60.2317L134.43 58.1717L83.77 77.1717Z" fill="#00214E"/>
<path d="M226.48 236.652C159.632 288.123 66.3909 287.711 0 235.652L48.66 212.842C50.1495 212.137 51.6014 211.356 53.01 210.502L54.13 209.802C54.53 209.552 54.92 209.292 55.31 209.022C61.4491 204.786 66.4803 199.138 69.98 192.552C73.98 185.002 75.3 176.662 75.36 168.162C75.36 162.442 75.05 156.722 74.99 150.992C74.95 147.818 74.9167 144.648 74.89 141.482L76.89 142.482L82.09 145.172L112.36 150.302L143.48 155.602L144.42 187.602L144.89 203.472L156.36 208.142L165.36 211.782L226.48 236.652Z" fill="#F2D4CF"/>
<path d="M144.23 179.912C141.51 181.592 138.94 182.382 136.69 182.142C121.9 180.552 93.05 168.962 74.89 147.512C74.89 146.458 74.87 145.408 74.83 144.362C74.79 141.188 74.7566 138.018 74.73 134.852L76.73 135.852L81.93 138.542L112.22 143.692L143.34 148.992L144.23 179.912Z" fill="#DAAEA8"/>
<path d="M226.48 236.652C159.632 288.123 66.3909 287.711 0 235.652L48.66 212.842C50.1495 212.137 51.6014 211.356 53.01 210.502C76.69 227.912 109.65 239.252 138.07 226.502C146.13 222.882 153.4 216.502 156.36 208.192L165.36 211.832L226.48 236.652Z" fill="#F2A196"/>
<circle cx="48.21" cy="108.192" r="17" fill="#F2D4CF"/>
<circle cx="54.21" cy="106.192" r="17" fill="#DAAEA8"/>
<path d="M163.75 82.4517C175.49 123.132 150.55 172.322 135.21 172.322C114.21 172.322 63.21 155.542 51.48 114.862C39.75 74.1817 55.35 33.9317 86.35 24.9817C117.35 16.0317 152 41.7617 163.75 82.4517Z" fill="#F2D4CF"/>
<path d="M133 78.4317C140.069 74.8426 148.24 74.0809 155.85 76.3017" stroke="#00214E"/>
<path d="M84.12 80.7216C93.8633 75.7605 105.309 75.394 115.35 79.7216" stroke="#00214E"/>
<ellipse cx="97.3388" cy="93.7333" rx="3.27" ry="7.94" transform="rotate(-85.77 97.3388 93.7333)" fill="#00214E"/>
<ellipse cx="148.831" cy="92.1165" rx="7.94" ry="3.27" transform="rotate(-13.23 148.831 92.1165)" fill="#00214E"/>
<path d="M133.8 102.792C133.8 102.792 134.09 108.442 135.42 111.092C135.99 112.242 136.87 113.202 137.42 114.332C139.63 118.672 136.05 119.582 132.61 119.582" stroke="#00214E"/>
<path d="M119.88 112.672C118.387 113.436 117.675 115.174 118.201 116.766C118.728 118.358 120.336 119.328 121.99 119.052" stroke="#00214E"/>
<path d="M101.9 128.182C102.178 127.744 102.626 127.441 103.136 127.347C103.646 127.252 104.173 127.373 104.59 127.682C106.66 129.142 110.46 132.242 115.86 133.322C123.22 134.782 129.61 131.842 131.13 133.732C131.99 134.802 130.94 136.112 128.93 137.732C124.685 140.935 119.325 142.284 114.07 141.472C106.98 140.142 101.67 131.942 101.67 129.042C101.67 128.74 101.749 128.443 101.9 128.182V128.182Z" fill="white"/>
<path d="M156.57 49.9116L134.43 58.2016L83.77 77.1716H83.76L45.93 91.3416L45.35 64.7716L44.57 28.9116L68.06 21.5916L105.57 9.91162L156.57 49.9116V49.9116Z" fill="#00214E"/>
<path d="M134.43 58.2017L83.77 77.2017V77.2017L45.36 64.8017L25.87 58.5117C29.31 47.7717 33.87 37.6517 40.14 29.3317C44.6348 23.6819 50.1293 18.9059 56.35 15.2417C59.85 17.1317 63.82 19.2417 68.07 21.6217C91.52 34.4117 123.64 52.2117 134.43 58.2017Z" fill="url(#paint0_linear_3_3992)"/>
<path d="M136.8 5.93166C126.69 10.5217 103.13 22.0417 89.9 35.1217C72.72 52.1217 47.66 90.4617 47.66 90.4617C48.5017 81.3239 49.9414 72.2511 51.97 63.3017C55.33 48.6017 61.05 31.9817 66.14 24.0117C69.94 18.0717 76.6 10.3017 83.07 3.85166C89.6502 2.00041 96.3898 0.771673 103.2 0.181664C114.7 -0.639807 126.228 1.33297 136.8 5.93166Z" fill="url(#paint1_linear_3_3992)"/>
<defs>
<linearGradient id="paint0_linear_3_3992" x1="126.399" y1="100.28" x2="136.282" y2="28.3147" gradientUnits="userSpaceOnUse">
<stop offset="0.29" stop-color="#00214E"/>
<stop offset="0.51" stop-color="#6878B1"/>
<stop offset="0.79" stop-color="#00214E"/>
</linearGradient>
<linearGradient id="paint1_linear_3_3992" x1="86.0981" y1="115.64" x2="153.807" y2="35.6003" gradientUnits="userSpaceOnUse">
<stop stop-color="#FF2609"/>
<stop offset="0.17" stop-color="#FF8500"/>
<stop offset="0.36" stop-color="#FFED00"/>
<stop offset="0.55" stop-color="#00830D"/>
<stop offset="0.72" stop-color="#004AFF"/>
<stop offset="1" stop-color="#81008C"/>
</linearGradient>
</defs>
</svg>
