<svg width="227" height="278" viewBox="0 0 227 278" fill="none" xmlns="http://www.w3.org/2000/svg">
<path d="M226.48 239.18C159.632 290.651 66.3909 290.24 0 238.18L48.66 215.37C50.9774 214.281 53.2015 213.003 55.31 211.55C55.95 211.11 56.59 210.65 57.2 210.17C62.4959 206.118 66.8551 200.971 69.98 195.08C72.3446 190.548 73.9141 185.643 74.62 180.58C75.1084 177.299 75.3557 173.987 75.36 170.67C75.36 164.95 75.05 159.23 74.99 153.5C74.95 150.327 74.9167 147.157 74.89 143.99L76.89 144.99L82.09 147.68L84.5 148.09L112.38 152.83L143.5 158.13L144.44 190.13L144.75 200.59L144.9 205.67V206L157 210.92L226.48 239.18Z" fill="#F2D4CF"/>
<path d="M144.9 203.68C141.463 204.271 137.927 203.724 134.83 202.12L75.16 153.34C75.09 151.08 75.03 153.45 75 151.19C74.96 148.017 74.9267 144.847 74.9 141.68L76.9 142.68L82.1 145.37L84.51 145.78L112.37 150.58L143.49 155.88L144.43 187.88L144.74 198.34L144.89 203.42V203.75L144.9 203.68Z" fill="#DAAEA8"/>
<path d="M212.07 0L211.8 0.11L208.74 58.23C207.119 89.0992 187.451 116.11 158.57 127.13V127.13L75.07 156C75.07 155.27 69.76 150 63.07 143.59C45.4944 126.875 35.3121 103.839 34.78 79.59V79.59C33.84 37.28 66.78 1.31 109.12 0.02C109.92 0.02 110.72 0.02 111.53 0.02L212.07 0Z" fill="url(#paint0_linear_3_4012)"/>
<path d="M211.78 0.109985L211.25 52.36C210.918 85.8098 189.941 115.571 158.55 127.13V127.13V58.5C158.55 58.5 183.34 0.389985 211.78 0.109985Z" fill="url(#paint1_linear_3_4012)"/>
<circle cx="65.05" cy="116" r="17" fill="#F2D4CF"/>
<circle cx="70.45" cy="116" r="15.22" fill="#DAAEA8"/>
<path d="M70.67 99.96L75.05 156.96L141.49 195.78C151.028 199.338 161.709 195.071 166.17 185.92C175.73 166.34 191.07 135.42 189.05 123.92C186.05 106.92 178.05 100.92 178.05 100.92L181.38 80.98C182.63 73.47 184.24 65.63 182.38 58.08C180.25 49.42 173.71 45.73 168.33 39.26C154.17 57.5 130.89 67.81 110.56 78.26C100.07 83.78 70.67 99.96 70.67 99.96Z" fill="#F2D4CF"/>
<path d="M102.72 88.17C111.978 86.2585 121.5 85.9911 130.85 87.38" stroke="#00214E"/>
<path d="M161.77 88.28C167.485 86.9484 173.376 86.5399 179.22 87.07" stroke="#00214E"/>
<path d="M138.74 126.76C137.247 127.524 136.535 129.262 137.061 130.854C137.588 132.446 139.196 133.417 140.85 133.14" stroke="#00214E"/>
<ellipse cx="116.772" cy="102.431" rx="3.27" ry="7.94" transform="rotate(-85.77 116.772 102.431)" fill="#00214E"/>
<ellipse cx="168.864" cy="101.717" rx="7.94" ry="3.27" transform="rotate(-7.27 168.864 101.717)" fill="#00214E"/>
<path d="M156.8 116.41C156.8 116.41 157.09 122.06 158.41 124.71C158.98 125.85 159.87 126.81 160.41 127.95C162.63 132.28 159.05 133.19 155.6 133.19" stroke="#00214E"/>
<path d="M226.48 239.18C159.632 290.651 66.3909 290.24 0 238.18L48.66 215.37C50.9774 214.281 53.2015 213.003 55.31 211.55C55.95 211.11 56.59 210.65 57.2 210.17C62.4959 206.118 66.8551 200.971 69.98 195.08C72.3446 190.548 73.9141 185.643 74.62 180.58C75.3262 181.264 76.0672 181.912 76.84 182.52C82.9715 187.054 89.6259 190.835 96.66 193.78C100.075 195.204 103.567 196.436 107.12 197.47C117.824 200.591 129 201.773 140.12 200.96C141.66 200.84 143.21 200.69 144.75 200.58L144.9 205.66V205.99L157 210.91L226.48 239.18Z" fill="#00214E"/>
<path d="M122.23 144.65C122.504 144.21 122.951 143.906 123.46 143.811C123.97 143.716 124.496 143.839 124.91 144.15C126.99 145.61 130.79 148.71 136.19 149.78C143.55 151.25 149.93 148.3 151.46 150.2C152.32 151.27 151.27 152.57 149.26 154.2C145.005 157.379 139.648 158.709 134.4 157.89C127.32 156.56 122 148.36 122 145.45C122.008 145.168 122.087 144.893 122.23 144.65V144.65Z" fill="white"/>
<defs>
<linearGradient id="paint0_linear_3_4012" x1="144.758" y1="176.448" x2="281.464" y2="29.4528" gradientUnits="userSpaceOnUse">
<stop stop-color="#315676"/>
<stop offset="1" stop-color="#E1B9E0"/>
</linearGradient>
<linearGradient id="paint1_linear_3_4012" x1="111.116" y1="17.362" x2="266.983" y2="164.279" gradientUnits="userSpaceOnUse">
<stop stop-color="#315676"/>
<stop offset="1" stop-color="#E1B9E0"/>
</linearGradient>
</defs>
</svg>
