<svg width="227" height="275" viewBox="0 0 227 275" fill="none" xmlns="http://www.w3.org/2000/svg">
<path d="M226.48 236.019C159.632 287.49 66.3909 287.079 0 235.019L48.66 212.209C50.9774 211.12 53.2015 209.842 55.31 208.389C55.95 207.949 56.59 207.489 57.2 207.009C62.4959 202.957 66.8551 197.81 69.98 191.919C72.3425 187.393 73.9118 182.495 74.62 177.439C75.1084 174.158 75.3557 170.846 75.36 167.529C75.36 161.809 75.05 156.089 74.99 150.359C74.95 147.186 74.9167 144.016 74.89 140.849L76.89 141.849L82.09 144.539L84.5 144.949L112.38 149.689L143.5 154.989L144.44 186.989L144.75 197.449L144.9 202.529V202.859L157 207.779L226.48 236.019Z" fill="#DE8276"/>
<path d="M144.7 200.869C141.263 201.461 137.727 200.913 134.63 199.309L74.96 150.529C74.89 148.269 74.83 150.639 74.8 148.379C74.76 145.206 74.7266 142.036 74.7 138.869L76.7 139.869L81.9 142.559L84.31 142.969L112.19 147.709L143.31 153.009L144.25 185.009L144.56 195.469L144.71 200.549V200.879L144.7 200.869Z" fill="#A76962"/>
<path d="M175.5 113.919C173.945 115.545 172.241 117.022 170.41 118.329C160.01 125.859 146.13 128.329 134.27 132.389C129.27 134.099 75.0499 149.509 75.0499 152.859C75.0499 152.129 69.7399 146.859 63.0499 140.459C39.9756 118.359 32.283 84.6394 43.4899 54.7191C54.3999 26.0491 89.1799 6.28908 118.31 1.71908C132.18 -0.450916 148.64 -1.66092 161.45 4.98908C168 8.39908 173.45 13.3691 178.45 18.8791C180.01 20.6191 181.523 22.3958 182.99 24.2091C183.62 24.9691 184.24 25.7291 184.85 26.4991C207.62 55.0991 199.55 88.6491 175.5 113.919Z" fill="url(#paint0_linear_3_4162)"/>
<path d="M175.5 113.919C173.945 115.545 172.241 117.022 170.41 118.329C169.983 117.585 169.599 116.817 169.26 116.029C166.62 110.029 165.26 103.519 164.26 97.0291C162.703 87.5842 161.638 78.0647 161.07 68.5091C160.16 53.1691 153.61 45.5591 166.64 33.5991C171.329 29.3017 176.913 26.0981 182.99 24.2191C183.62 24.9791 184.24 25.7391 184.85 26.5091C207.62 55.0991 199.55 88.6491 175.5 113.919Z" fill="url(#paint1_linear_3_4162)"/>
<circle cx="65.05" cy="112.869" r="17" fill="#E18477"/>
<circle cx="70.45" cy="112.869" r="15.22" fill="#A76962"/>
<path d="M71.72 96.749C72.55 107.609 72.52 120.869 72.81 124.749C73.5633 134.476 74.31 144.199 75.05 153.919L141.49 192.729C151.026 196.293 161.709 192.03 166.17 182.879C175.73 163.299 191.07 132.379 189.05 120.879C186.05 103.879 178.05 97.879 178.05 97.879L181.38 77.939C184.75 57.669 177.8 38.479 154.12 36.259C149.12 35.799 143.55 36.749 140.58 40.739C132.58 51.499 137.19 64.739 125.18 74.739C110.6 86.769 78.07 92.019 70.45 82.309C70.45 82.309 71.15 89.179 71.72 96.749Z" fill="#DE8276"/>
<path d="M121.58 139.169C126.385 144.535 132.972 147.977 140.12 148.859" stroke="#00214E"/>
<path d="M145.2 91.9591C145.12 92.3091 158.56 128.089 158.56 128.089L140.62 128.959" stroke="#00214E"/>
<path d="M102.72 85.0191C111.977 83.1045 121.499 82.8337 130.85 84.2191" stroke="#00214E"/>
<path d="M161.77 85.149C167.485 83.8174 173.376 83.4089 179.22 83.939" stroke="#00214E"/>
<path d="M226.48 236.019C159.632 287.49 66.3909 287.079 0 235.019L48.66 212.209C50.9774 211.12 53.2015 209.842 55.31 208.389C55.95 207.949 56.59 207.489 57.2 207.009C62.4959 202.957 66.8551 197.81 69.98 191.919C72.3425 187.393 73.9118 182.495 74.62 177.439C75.3262 178.123 76.0672 178.771 76.84 179.379C82.9715 183.913 89.6259 187.694 96.66 190.639C100.075 192.064 103.567 193.296 107.12 194.329C117.824 197.45 129 198.632 140.12 197.819C141.66 197.699 143.21 197.549 144.75 197.439L144.9 202.519V202.849L157 207.769L226.48 236.019Z" fill="#00214E"/>
<path d="M116.35 96.259C122.45 96.259 122.45 105.639 116.35 105.689H116.07C109.96 105.689 109.96 96.309 116.07 96.259H116.34H116.35Z" fill="#00214E"/>
<path d="M166.48 94.8691C172.14 94.9191 172.14 103.569 166.48 103.619H166.22C160.56 103.619 160.56 94.9191 166.22 94.8691H166.48Z" fill="#00214E"/>
<defs>
<linearGradient id="paint0_linear_3_4162" x1="38.3499" y1="152.898" x2="198.33" y2="152.898" gradientUnits="userSpaceOnUse">
<stop stop-color="#16243F"/>
<stop offset="1" stop-color="#6878B1"/>
</linearGradient>
<linearGradient id="paint1_linear_3_4162" x1="132.57" y1="86.0845" x2="199.647" y2="105.115" gradientUnits="userSpaceOnUse">
<stop stop-color="#16243F"/>
<stop offset="1" stop-color="#6878B1"/>
</linearGradient>
</defs>
</svg>
