<svg width="236" height="325" viewBox="0 0 236 325" fill="none" xmlns="http://www.w3.org/2000/svg">
<path d="M236 117.96C236 125.57 227.33 132.23 225.91 139.43C224.44 146.84 229.91 156.31 227.05 163.13C224.19 169.95 213.61 172.91 209.48 179.07C205.35 185.23 206.71 196.13 201.48 201.4C196.25 206.67 185.37 205.27 179.16 209.4C172.95 213.53 170.16 224.1 163.21 226.97C156.26 229.84 146.93 224.37 139.51 225.84C132.32 227.26 125.65 235.93 118.04 235.93C110.43 235.93 103.77 227.26 96.57 225.84C89.16 224.37 79.69 229.84 72.87 226.97C66.05 224.1 63.1 213.53 56.93 209.4C50.76 205.27 39.87 206.64 34.6 201.4C29.33 196.16 30.73 185.29 26.6 179.07C22.47 172.85 11.83 170.04 8.96 163.13C6.09 156.22 11.56 146.84 10.1 139.43C8.67 132.23 0 125.57 0 117.96C0 110.35 8.67 103.68 10.1 96.49C11.56 89.08 6.1 79.61 8.96 72.79C11.82 65.97 22.4 63.04 26.53 56.84C30.66 50.64 29.29 39.84 34.53 34.52C39.77 29.2 50.64 30.65 56.86 26.52C63.08 22.39 65.86 11.83 72.8 8.95C79.74 6.07 89.09 11.56 96.5 10.09C103.7 8.67 110.36 0 117.97 0C125.58 0 132.28 8.63 139.47 10.04C146.89 11.51 156.35 6.04 163.17 8.9C169.99 11.76 172.95 22.35 179.12 26.48C185.29 30.61 196.12 29.24 201.44 34.48C206.76 39.72 205.32 50.59 209.44 56.81C213.56 63.03 224.13 65.81 227.01 72.75C229.89 79.69 224.4 89.04 225.87 96.45C227.33 103.68 236 110.35 236 117.96Z" fill="url(#paint0_linear_3_3925)"/>
<circle cx="67" cy="162.96" r="17" fill="#845161"/>
<circle cx="72.8601" cy="161.96" r="16" fill="#69303A"/>
<path d="M228.59 286.14C161.742 337.611 68.501 337.2 2.11011 285.14L50.7701 262.33C53.0875 261.241 55.3116 259.963 57.4201 258.51C58.0601 258.07 58.7001 257.61 59.3101 257.13C64.606 253.078 68.9652 247.931 72.0901 242.04C76.0901 234.49 77.4101 226.15 77.4701 217.65C77.4701 215.91 77.4701 214.16 77.4101 212.42C77.3201 208.42 77.1401 204.42 77.1001 200.48C77.0601 197.307 77.0268 194.137 77.0001 190.97L79.0001 191.97L84.2001 194.66L86.6101 195.07L114.49 199.81L145.61 205.11L146.55 237.11L146.91 249.32L147.01 252.65V252.98L159.11 257.9L228.59 286.14Z" fill="#845161"/>
<path d="M146.92 249.51L145.38 249.67C130.334 250.995 115.465 245.646 104.71 235.04L77.33 202.51C77.24 199.61 77.13 202.51 77.1 199.6C77.06 196.427 77.0267 193.257 77 190.09L79 191.09L84.2 193.78L86.61 194.19L114.49 198.93L145.61 204.23L146.55 236.23L146.92 249.51Z" fill="#69303A"/>
<path d="M72.1099 128.36C71.3199 129.36 70.6199 131.36 69.8699 134.47C68.1399 141.8 75.7199 189.92 77.1699 204.09L113.59 230.94C125.683 240.001 141.146 243.292 155.88 239.94C161.75 238.55 165.47 237.65 168.12 232.94C173.24 223.94 185.81 193.15 186.63 171.43C186.86 165.27 186.71 155.86 182.91 150.61C181.06 148.06 180.11 148.01 180.78 144.4C181.47 140.64 182.46 136.93 183.29 133.19C185.58 122.86 187.41 111.19 184.1 100.91C182.34 95.41 179.23 91.77 174.81 88.23C170.09 84.45 168.14 84.64 165.31 90.23C163.4 94.03 161.48 97.23 157.61 99.39C152 102.5 148.18 100.48 142.61 100.05C137.73 99.68 138.25 103.45 137.18 107C136.077 110.782 133.681 114.056 130.41 116.25C124.339 120.193 116.528 120.24 110.41 116.37C109.58 115.775 108.581 115.463 107.56 115.48C104.22 115.66 104.07 119.67 103.31 122.55C101.7 128.55 94.6899 131.87 88.4599 131.38C78.2999 130.63 74.6799 124.97 72.1099 128.36Z" fill="#845161"/>
<path d="M152.37 146.24C152.644 150.128 153.314 153.978 154.37 157.73C155.37 161.04 156.89 163.09 158.89 165.95C159.581 166.891 160.18 167.895 160.68 168.95C163.32 174.89 159.81 181.48 153.13 181.48H149" stroke="#00214E"/>
<path d="M123.34 191.27C128.147 196.634 134.732 200.08 141.88 200.97" stroke="#00214E"/>
<path d="M104.67 135.13C113.928 133.22 123.449 132.95 132.8 134.33" stroke="#00214E"/>
<path d="M163.72 135.24C169.435 133.912 175.327 133.507 181.17 134.04" stroke="#00214E"/>
<path d="M228.59 286.14C161.742 337.611 68.501 337.2 2.11011 285.14L50.7701 262.33C53.0875 261.241 55.3116 259.963 57.4201 258.51C58.0601 258.07 58.7001 257.61 59.3101 257.13C82.8301 273.88 115 284.45 142.83 271.94C149.45 268.94 155.53 264.1 159.13 257.88L228.59 286.14Z" fill="#FF2609"/>
<path d="M135.67 174.44C134.177 175.204 133.465 176.942 133.991 178.534C134.518 180.126 136.126 181.097 137.78 180.82" stroke="#00214E"/>
<path d="M120.17 142.77C126.27 142.82 126.27 152.14 120.17 152.19H119.89C113.79 152.14 113.79 142.82 119.89 142.77H120.17Z" fill="#00214E"/>
<path d="M170.43 142.77C176.09 142.77 176.09 151.47 170.43 151.51H170.17C164.51 151.51 164.51 142.81 170.17 142.77H170.43Z" fill="#00214E"/>
<defs>
<linearGradient id="paint0_linear_3_3925" x1="173.747" y1="313.911" x2="439.534" y2="66.7319" gradientUnits="userSpaceOnUse">
<stop stop-color="#315676"/>
<stop offset="1" stop-color="#E1B9E0"/>
</linearGradient>
</defs>
</svg>
