<svg width="259" height="275" viewBox="0 0 259 275" fill="none" xmlns="http://www.w3.org/2000/svg">
<path d="M144.864 184.699C134.464 184.519 124.054 184.019 113.244 183.359C99.7741 182.529 83.4041 185.859 70.5441 180.699C58.0641 175.699 50.1141 167.769 41.9141 157.699C37.6441 152.489 31.0541 149.839 24.6641 147.699C18.2741 145.559 11.6041 143.589 6.46407 139.229C1.32407 134.869 -1.80593 127.299 1.13407 121.229C8.36407 106.319 31.8841 111.299 31.9341 88.7994C31.9341 81.1494 28.5241 72.5794 33.0641 66.4194C34.6037 64.5553 36.4838 63.0011 38.6041 61.8394C48.9041 55.4894 62.1841 56.1094 72.4041 49.8394C83.9441 42.6994 81.5441 29.1894 91.8241 19.7694C95.2575 16.7776 98.9675 14.119 102.904 11.8294C129.824 -4.83063 157.654 -3.27063 185.234 12.5994C199.984 21.1094 212.794 36.3694 218.824 52.2094C225.514 69.8494 212.314 89.4594 223.424 104.799C225.944 108.279 229.284 111.099 232.014 114.419C243.454 128.319 225.844 136.879 218.624 146.319C212.834 153.909 213.724 165.009 208.164 172.769C201.714 181.769 189.164 183.279 178.074 183.969C166.684 184.719 155.774 184.889 144.864 184.699Z" fill="#845161"/>
<path d="M258.974 236.419C192.126 287.891 98.8851 287.479 32.4941 235.419L81.1541 212.609C82.6436 211.905 84.0955 211.124 85.5041 210.269L86.6241 209.569C87.0241 209.319 87.4141 209.059 87.8041 208.789C93.9432 204.554 98.9745 198.906 102.474 192.319C106.474 184.769 107.794 176.429 107.854 167.929C107.854 163.259 107.664 158.589 107.544 153.929C107.544 152.876 107.524 151.826 107.484 150.779C107.444 147.613 107.411 144.443 107.384 141.269L109.384 142.269L114.584 144.959L144.874 150.109L175.994 155.409L176.904 186.309V187.379L177.374 203.249L188.844 207.919L197.844 211.559L258.974 236.419Z" fill="#F2A196"/>
<path d="M176.884 179.299C174.164 180.979 171.594 181.769 169.344 181.529C154.554 179.939 125.704 168.349 107.544 146.899C107.544 145.846 107.524 144.796 107.484 143.749C107.444 140.583 107.411 137.413 107.384 134.239L109.384 135.239L114.584 137.929L144.874 143.079L175.994 148.379L176.884 179.299Z" fill="#E88870"/>
<circle cx="82.3843" cy="109.239" r="17" fill="#F2A196"/>
<circle cx="88.3843" cy="107.239" r="17" fill="#E88870"/>
<path d="M197.924 83.4994C209.664 124.189 184.714 173.369 169.384 173.369C148.384 173.369 97.3842 156.589 85.6542 115.909C73.9242 75.2294 89.5142 34.9894 120.514 26.0394C151.514 17.0894 186.174 42.8194 197.924 83.4994Z" fill="#F2A196"/>
<path d="M134.764 91.9493C140.864 91.9493 140.864 101.329 134.764 101.369H134.484C128.384 101.369 128.384 91.9993 134.484 91.9493H134.764Z" fill="#00214E"/>
<path d="M185.024 88.1094C190.684 88.1094 190.684 96.8094 185.024 96.8594H184.764C179.104 96.8094 179.104 88.1594 184.764 88.1094H185.024Z" fill="#00214E"/>
<circle cx="134.744" cy="96.7394" r="19" stroke="white"/>
<circle cx="187.884" cy="93.7394" r="19" stroke="white"/>
<path d="M159.214 29.4094C154.914 48.1194 145.524 63.9994 128.354 75.5594C109.844 88.3794 90.2839 94.5594 68.9639 98.8194C69.5039 85.7094 68.0639 67.2694 74.8239 55.5694C82.4961 42.5895 93.7022 32.0598 107.134 25.2094C121.934 17.5594 144.844 10.0594 161.484 15.3694C161.025 20.0927 160.267 24.7822 159.214 29.4094V29.4094Z" fill="#845161"/>
<path d="M160.964 85.3994C160.884 85.7394 168.884 117.739 168.884 117.739H156.384" stroke="#00214E"/>
<path d="M172.424 75.2094C179.495 71.5832 187.686 70.8031 195.314 73.0294" stroke="#00214E"/>
<path d="M117.314 78.8794C127.052 73.913 138.498 73.5464 148.534 77.8794" stroke="#00214E"/>
<path d="M153.744 96.7393L168.884 95.4493" stroke="white"/>
<path d="M258.974 236.419C192.126 287.891 98.8851 287.479 32.4941 235.419L81.1541 212.609C83.4715 211.52 85.6956 210.242 87.8041 208.789C88.4441 208.349 89.0841 207.889 89.6941 207.409C94.99 203.357 99.3492 198.21 102.474 192.319C104.837 187.793 106.406 182.896 107.114 177.839C107.82 178.524 108.561 179.171 109.334 179.779C115.466 184.313 122.12 188.094 129.154 191.039C132.569 192.464 136.061 193.696 139.614 194.729C150.318 197.851 161.494 199.033 172.614 198.219C174.154 198.099 175.704 197.949 177.244 197.839L177.394 202.919V203.209L189.494 208.129L258.974 236.419Z" fill="url(#paint0_linear_3_3715)"/>
<path d="M134.974 129.029C135.251 128.592 135.697 128.29 136.205 128.195C136.714 128.1 137.239 128.221 137.654 128.529C139.734 129.989 143.534 133.089 148.934 134.169C156.294 135.629 162.674 132.689 164.204 134.579C165.064 135.649 164.014 136.959 162.004 138.579C157.751 141.764 152.392 143.095 147.144 142.269C140.064 140.939 134.744 132.739 134.744 129.839C134.753 129.554 134.832 129.276 134.974 129.029Z" fill="white"/>
<defs>
<linearGradient id="paint0_linear_3_3715" x1="32.4941" y1="274.742" x2="258.974" y2="274.742" gradientUnits="userSpaceOnUse">
<stop stop-color="#16243F"/>
<stop offset="1" stop-color="#6878B1"/>
</linearGradient>
</defs>
</svg>
