<svg width="227" height="275" viewBox="0 0 227 275" fill="none" xmlns="http://www.w3.org/2000/svg">
<path d="M118.6 241.696C102.05 242.756 86.0001 242.166 69.6001 241.886C50.9501 241.886 28.7201 246.746 14.7501 230.496C5.09009 219.256 6.25009 202.206 11.2301 188.246C14.7401 178.416 19.9501 168.366 18.0101 158.106C16.5401 150.336 11.1601 143.886 8.77009 136.356C6.44009 129.016 7.10009 120.036 11.0801 113.356C14.7101 107.236 20.5501 104.066 21.7601 96.3058C22.4201 92.0458 21.2401 87.7558 20.5501 83.4958C14.9001 48.5858 43.1601 24.1458 71.0101 9.49576C88.0901 0.495763 108.6 -3.62424 127.01 3.95576C128.366 4.62866 129.827 5.06494 131.33 5.24576C132.705 5.18844 134.071 5.00094 135.41 4.68576C158.31 1.30576 187.97 42.1458 181.65 62.8558C179.73 69.1258 176.71 75.6258 178.41 81.9658C180.92 91.3058 192.7 96.2658 194.16 105.826C195.74 116.136 184.21 125.366 186.48 135.556C187.82 141.556 193.53 145.476 197.15 150.486C199.867 154.295 201.42 158.811 201.62 163.486C201.76 166.372 201.37 169.26 200.47 172.006C197.77 180.156 190.61 187.566 192.4 196.006C194.52 206.006 207.4 209.546 206.73 220.926C206.36 227.006 201.03 231.716 195.4 234.026C191.348 235.556 187.173 236.741 182.92 237.566C179.78 238.266 177.01 237.636 173.87 237.956C165.13 238.846 156.51 240.216 147.71 240.716C138.07 241.196 128.3 241.076 118.6 241.696Z" fill="url(#paint0_linear_3_4145)"/>
<path d="M226.48 235.996C159.632 287.467 66.3909 287.055 0 234.996L48.66 212.186C50.1495 211.481 51.6014 210.7 53.01 209.846L54.13 209.146C54.53 208.896 54.92 208.636 55.31 208.366C61.4491 204.131 66.4803 198.482 69.98 191.896C73.98 184.346 75.3 176.006 75.36 167.506C75.36 161.786 75.05 156.066 74.99 150.336C74.95 147.162 74.9167 143.992 74.89 140.826L76.89 141.826L82.09 144.516L112.38 149.666L143.5 154.966L144.44 186.966L144.91 202.836L156.38 207.506L165.38 211.146L226.48 235.996Z" fill="#E18477"/>
<path d="M144.39 178.686C141.67 180.366 139.1 181.156 136.85 180.916C122.06 179.326 93.2099 167.736 75.0499 146.286C75.0499 145.239 75.0299 144.189 74.9899 143.136C74.9499 139.969 74.9166 136.799 74.8899 133.626L76.8899 134.626L82.0899 137.316L112.38 142.466L143.5 147.766L144.39 178.686Z" fill="#A76962"/>
<circle cx="49.8899" cy="108.576" r="17" fill="#E18477"/>
<circle cx="55.8899" cy="106.576" r="17" fill="#A76962"/>
<path d="M165.43 83.1058C177.17 123.796 152.23 172.996 136.89 172.996C115.89 172.996 64.89 156.226 53.16 115.536C41.43 74.8458 57.07 34.5958 88.07 25.6458C119.07 16.6958 153.68 42.4258 165.43 83.1058Z" fill="#E18477"/>
<path d="M99.99 90.1758C106.09 90.1758 106.09 99.5558 99.99 99.5958H99.71C93.61 99.5958 93.61 90.2258 99.71 90.1758H99.99Z" fill="#00214E"/>
<path d="M150.07 88.7858C155.74 88.7858 155.74 97.4858 150.07 97.5358H149.82C144.16 97.5358 144.16 88.8258 149.82 88.7858H150.07Z" fill="#00214E"/>
<path d="M128.15 33.7957C128.03 34.0657 127.91 34.3457 127.78 34.6257C124.853 40.8137 120.995 46.5166 116.34 51.5357C107.09 61.7357 95.5 69.6957 83.48 76.3057C76.5456 80.2613 69.3718 83.7815 62 86.8457C51.37 91.0757 42.36 93.1857 42.07 93.4857C41.14 81.5957 34.64 56.6557 66.89 32.2357C92.89 12.5657 130.58 14.1057 130.58 14.1057C130.46 21.5157 131.07 26.9957 128.15 33.7957Z" fill="url(#paint1_linear_3_4145)"/>
<path d="M128.47 84.9957C128.39 85.3457 136.83 121.406 136.83 121.406H124.33" stroke="#00214E"/>
<path d="M139.93 74.7957C146.995 71.1966 155.166 70.4242 162.78 72.6357" stroke="#00214E"/>
<path d="M84.8201 78.4957C94.5605 73.5235 106.012 73.1568 116.05 77.4957" stroke="#00214E"/>
<path d="M226.48 235.996C159.632 287.467 66.3909 287.055 0 234.996L48.66 212.186C50.9774 211.096 53.2015 209.819 55.31 208.366C55.95 207.926 56.59 207.466 57.2 206.986C62.4959 202.934 66.8551 197.787 69.98 191.896C72.3425 187.37 73.9118 182.472 74.62 177.416C75.3262 178.1 76.0672 178.748 76.84 179.356C82.9715 183.89 89.6259 187.67 96.66 190.616C100.075 192.04 103.567 193.272 107.12 194.306C117.824 197.427 129 198.609 140.12 197.796C141.66 197.676 143.21 197.526 144.75 197.416L144.9 202.496V202.826L157 207.746L226.48 235.996Z" fill="url(#paint2_linear_3_4145)"/>
<rect x="57.9563" y="35.6365" width="28.06" height="9.73" rx="4.86" transform="rotate(20.94 57.9563 35.6365)" fill="#FF2609"/>
<rect x="51.302" y="50.4697" width="28.06" height="9.73" rx="4.86" transform="rotate(20.94 51.302 50.4697)" fill="#F2D4CF"/>
<path d="M102.48 128.646C102.753 128.204 103.198 127.898 103.708 127.801C104.217 127.704 104.744 127.826 105.16 128.136C107.24 129.606 111.04 132.696 116.44 133.776C123.8 135.236 130.19 132.296 131.71 134.196C132.57 135.266 131.52 136.566 129.51 138.246C125.253 141.421 119.897 142.748 114.65 141.926C107.57 140.606 102.25 132.396 102.25 129.496C102.249 129.197 102.328 128.903 102.48 128.646Z" fill="white"/>
<defs>
<linearGradient id="paint0_linear_3_4145" x1="103.452" y1="362.248" x2="294.768" y2="191.705" gradientUnits="userSpaceOnUse">
<stop stop-color="#16243F"/>
<stop offset="1" stop-color="#6878B1"/>
</linearGradient>
<linearGradient id="paint1_linear_3_4145" x1="72.3383" y1="126.865" x2="145.098" y2="49.7444" gradientUnits="userSpaceOnUse">
<stop stop-color="#16243F"/>
<stop offset="1" stop-color="#6878B1"/>
</linearGradient>
<linearGradient id="paint2_linear_3_4145" x1="0" y1="274.349" x2="226.48" y2="274.349" gradientUnits="userSpaceOnUse">
<stop stop-color="#315676"/>
<stop offset="1" stop-color="#E1B9E0"/>
</linearGradient>
</defs>
</svg>
