<svg width="227" height="319" viewBox="0 0 227 319" fill="none" xmlns="http://www.w3.org/2000/svg">
<path d="M122.65 57.2502C121.28 63.1302 113.44 66.0302 110.13 70.6402C106.7 75.4302 106.4 83.7402 101.47 86.8002C96.54 89.8602 88.96 86.4602 83.15 87.4202C77.55 88.3502 71.48 94.1002 65.61 92.7302C59.74 91.3602 56.83 83.5202 52.21 80.2102C47.43 76.7802 39.11 76.4702 36.05 71.5502C32.99 66.6302 36.39 59.0402 35.43 53.2302C34.51 47.6202 28.76 41.5602 30.13 35.6802C31.5 29.8002 39.34 26.9002 42.65 22.2902C46.08 17.5002 46.38 9.19019 51.31 6.13019C56.24 3.07019 63.82 6.47019 69.63 5.51019C75.23 4.58019 81.3 -1.15981 87.18 0.210194C93.06 1.58019 95.95 9.41019 100.57 12.7202C105.35 16.1502 113.67 16.4602 116.73 21.3802C119.79 26.3002 116.39 33.9002 117.35 39.7102C118.28 45.3102 124.07 51.3802 122.65 57.2502Z" fill="#DAAEA8"/>
<path d="M140.47 192.06C137.95 195.06 135.77 198.34 133.2 201.29C119.58 216.95 89.91 206.66 75.2 197.29C64.37 190.44 56.2 180.11 49.2 169.35C40.6 156.08 33.41 141.65 30.29 126.15C16 55.1602 107.07 24.2802 158.14 59.1302C177.14 72.1302 194.31 101.29 190.14 124.66C188.01 136.52 179.58 147.19 180.48 159.2C181.48 172.14 193.17 184.47 188.28 196.49C186.36 201.19 182.22 204.55 178.87 208.36C174.34 213.51 171.03 219.95 170.64 226.79C170.25 233.63 173.09 240.79 178.73 244.71C164.8 242.85 156.22 226.17 159.82 212.59C161 208.13 163.18 203.97 164.13 199.45C165.08 194.93 164.52 189.68 161.07 186.62C156.64 182.69 149.42 184.18 144.77 187.84C143.201 189.101 141.76 190.515 140.47 192.06Z" fill="#F2D4CF"/>
<path d="M226.48 280.15C159.63 331.614 66.3934 331.203 0 279.15L48.66 256.34C50.1493 255.639 51.6013 254.862 53.01 254.01C53.39 253.78 53.76 253.55 54.13 253.3C54.5 253.05 54.92 252.8 55.31 252.53C61.4483 248.294 66.4794 242.646 69.98 236.06C73.98 228.52 75.3 220.18 75.36 211.68C75.36 205.95 75.05 200.24 74.99 194.5C74.95 191.334 74.9167 188.164 74.89 184.99L75.08 185.09L76.87 186.02L82.07 188.7L112.36 193.85L143.48 199.16L144.2 223.61L144.42 231.12L144.89 246.99L156.36 251.66L165.36 255.31L226.48 280.15Z" fill="#845161"/>
<path d="M144.2 223.58C142.066 225.002 139.532 225.703 136.97 225.58C122.18 223.99 93.33 212.4 75.17 190.95C75.17 189.897 75.15 188.847 75.11 187.8V185.01L76.9 185.94L82.1 188.62L112.39 193.77L143.51 199.08L144.2 223.58Z" fill="#69303A"/>
<path d="M226.48 280.15C159.632 331.621 66.3909 331.21 0 279.15L48.66 256.34C50.1495 255.636 51.6014 254.855 53.01 254C76.69 271.41 109.65 282.75 138.07 270C146.13 266.38 153.4 259.95 156.36 251.69L165.36 255.33L226.48 280.15Z" fill="#00214E"/>
<circle cx="49.89" cy="152.97" r="17" fill="#845161"/>
<circle cx="55.89" cy="150.97" r="17" fill="#69303A"/>
<path d="M165.43 127.22C177.17 167.91 152.22 217.06 136.89 217.06C115.89 217.06 64.89 200.29 53.16 159.6C41.43 118.91 57.07 78.7102 88.07 69.7602C119.07 60.8102 153.68 86.5402 165.43 127.22Z" fill="#845161"/>
<path d="M130.61 77.2802C128.21 82.0202 123.21 86.1402 120.24 90.9902C116.35 97.3402 113.41 104.24 110.11 110.91C107.66 115.91 104.92 120.85 100.78 124.52C96.64 128.19 90.78 130.36 85.47 128.83C81.83 127.78 78.87 125.18 75.62 123.25C72.37 121.32 68.19 120.03 64.85 121.83C59.93 124.47 60 131.64 56.48 135.97C48.4 145.9 33.59 132.52 31.81 123.85C29.2 111.18 39.6 100.59 47.16 91.8502C53.46 84.5502 61.99 73.4102 71.89 70.9802C72.06 70.9802 129.89 47.9802 129.89 47.9802C130.41 55.7102 133.53 67.1402 131.66 74.5402C131.415 75.4903 131.062 76.4094 130.61 77.2802V77.2802Z" fill="#F2D4CF"/>
<path d="M128.47 129.12C128.41 129.36 134.01 145 137.4 154.44C137.963 156.045 137.714 157.823 136.734 159.213C135.753 160.603 134.161 161.432 132.46 161.44H128.82" stroke="#00214E"/>
<path d="M139.93 118.91C146.995 115.311 155.166 114.539 162.78 116.75" stroke="#F2D4CF"/>
<path d="M84.82 122.61C94.5584 117.644 106.004 117.277 116.04 121.61" stroke="#F2D4CF"/>
<path d="M102.99 133.69C109.09 133.69 109.09 143.06 102.99 143.11H102.71C96.61 143.06 96.61 133.73 102.71 133.69H102.99Z" fill="#00214E"/>
<path d="M153.25 130.6C158.91 130.65 158.91 139.3 153.25 139.35H152.99C147.33 139.35 147.33 130.65 152.99 130.6H153.25Z" fill="#00214E"/>
<path d="M121.37 155.71C119.735 155.888 118.468 157.219 118.37 158.86C118.395 159.652 118.773 160.391 119.4 160.875C120.027 161.359 120.838 161.537 121.61 161.36" stroke="#00214E"/>
<path d="M103.72 170.83C103.996 170.393 104.442 170.091 104.951 169.996C105.459 169.901 105.984 170.022 106.4 170.33C108.47 171.79 112.28 174.89 117.68 175.96C125.04 177.43 131.42 174.48 132.95 176.38C133.81 177.45 132.76 178.75 130.75 180.43C126.494 183.608 121.138 184.938 115.89 184.12C108.81 182.79 103.49 174.59 103.49 171.68C103.49 171.381 103.569 171.088 103.72 170.83V170.83Z" fill="white"/>
</svg>
