<svg width="253" height="300" viewBox="0 0 253 300" fill="none" xmlns="http://www.w3.org/2000/svg">
<circle cx="116.56" cy="30.67" r="30.67" fill="url(#paint0_linear_3_3661)"/>
<path d="M143.06 197.11C127.04 196.832 111.063 195.368 95.26 192.73C63.78 187.47 32.96 177.42 5 161.93C3.34 161 1.68 160.06 0 159.1C24.79 135.57 43.19 107.1 58.74 76.9C69.94 55.11 75.74 40.74 99.93 31.57C141.99 15.64 198.81 31.13 210.77 78.45C215.82 98.45 216.01 119.36 213.14 139.71C210.37 159.39 203.08 197.29 203.08 197.29C203.08 197.29 150.91 197.25 143.06 197.11Z" fill="url(#paint1_linear_3_3661)"/>
<path d="M252.69 261.11C185.842 312.581 92.6009 312.17 26.21 260.11L74.87 237.3C76.3594 236.596 77.8114 235.815 79.22 234.96L80.34 234.26C80.74 234.01 81.13 233.75 81.52 233.48C87.6602 229.242 92.6916 223.59 96.19 217C100.19 209.45 101.51 201.11 101.57 192.61C101.57 187.94 101.38 183.27 101.26 178.61C101.26 177.557 101.24 176.507 101.2 175.46C101.16 172.287 101.127 169.117 101.1 165.95H101.17L103.08 166.95L108.28 169.64L138.57 174.79L169.69 180.09L170.4 204.09L170.6 210.97V212.04L171.07 227.91L182.54 232.58L191.54 236.22L252.69 261.11Z" fill="#F2A196"/>
<path d="M170.4 204.11C168.245 205.586 165.67 206.326 163.06 206.22C148.27 204.63 119.42 193.04 101.26 171.59C101.26 170.537 101.24 169.487 101.2 168.44V165.97L103.11 166.97L108.31 169.66L138.6 174.81L169.72 180.11L170.4 204.11Z" fill="#E88870"/>
<circle cx="76.0901" cy="133.93" r="17" fill="#F2A196"/>
<circle cx="82.0901" cy="131.93" r="17" fill="#E88870"/>
<path d="M191.63 108.19C203.38 148.87 178.43 198.06 163.09 198.06C142.09 198.06 91.09 181.28 79.36 140.6C67.63 99.92 83.19 59.68 114.19 50.73C145.19 41.78 179.89 67.54 191.63 108.19Z" fill="#F2A196"/>
<path d="M128.47 116.64C134.57 116.69 134.57 126.01 128.47 126.06H128.19C122.09 126.01 122.09 116.69 128.19 116.64H128.46H128.47Z" fill="#00214E"/>
<path d="M178.73 112.8C184.4 112.85 184.4 121.5 178.73 121.55H178.48C172.82 121.55 172.82 112.85 178.48 112.8H178.73Z" fill="#00214E"/>
<circle cx="128.46" cy="121.43" r="19" stroke="white"/>
<circle cx="181.59" cy="118.43" r="19" stroke="white"/>
<path d="M152.93 54.1C148.62 72.8 139.23 88.68 122.07 100.25C103.55 113.07 83.9999 119.25 62.6699 123.5C63.2099 110.39 61.7699 91.95 68.5299 80.26C76.2022 67.2802 87.4082 56.7505 100.84 49.9C115.65 42.25 138.56 34.75 155.2 40.05C154.737 44.7761 153.979 49.4686 152.93 54.1V54.1Z" fill="url(#paint2_linear_3_3661)"/>
<path d="M154.67 110.09C154.59 110.43 162.59 142.43 162.59 142.43H150.09" stroke="#00214E"/>
<path d="M166.13 99.88C173.192 96.271 181.367 95.4982 188.98 97.72" stroke="#00214E"/>
<path d="M111.02 103.54C120.763 98.5775 132.21 98.2109 142.25 102.54" stroke="#00214E"/>
<path d="M147.46 121.43L162.59 120.14" stroke="white"/>
<path d="M252.68 261.11C185.832 312.581 92.5909 312.17 26.2 260.11L74.86 237.3C77.1773 236.211 79.4015 234.933 81.51 233.48C82.15 233.04 82.79 232.58 83.4 232.1C88.7006 228.046 93.0633 222.895 96.1899 217C98.5468 212.479 100.113 207.589 100.82 202.54C101.526 203.224 102.267 203.872 103.04 204.48C109.171 209.014 115.826 212.795 122.86 215.74C126.275 217.164 129.767 218.396 133.32 219.43C144.024 222.551 155.2 223.733 166.32 222.92C167.86 222.8 169.41 222.65 170.95 222.54L171.1 227.62V227.95L183.2 232.87L252.68 261.11Z" fill="#845161"/>
<path d="M128.68 153.72C128.958 153.282 129.406 152.98 129.916 152.885C130.426 152.79 130.953 152.911 131.37 153.22C133.44 154.68 137.24 157.78 142.64 158.85C150 160.32 156.39 157.37 157.91 159.27C158.77 160.34 157.72 161.65 155.71 163.32C151.458 166.499 146.105 167.829 140.86 167.01C133.77 165.68 128.46 157.48 128.46 154.57C128.457 154.272 128.533 153.979 128.68 153.72V153.72Z" fill="white"/>
<defs>
<linearGradient id="paint0_linear_3_3661" x1="85.8899" y1="61.345" x2="147.24" y2="61.345" gradientUnits="userSpaceOnUse">
<stop stop-color="#16243F"/>
<stop offset="1" stop-color="#6878B1"/>
</linearGradient>
<linearGradient id="paint1_linear_3_3661" x1="132.304" y1="260.073" x2="223.687" y2="113.622" gradientUnits="userSpaceOnUse">
<stop stop-color="#16243F"/>
<stop offset="1" stop-color="#6878B1"/>
</linearGradient>
<linearGradient id="paint2_linear_3_3661" x1="94.1829" y1="152.524" x2="139.449" y2="90.5672" gradientUnits="userSpaceOnUse">
<stop stop-color="#16243F"/>
<stop offset="1" stop-color="#6878B1"/>
</linearGradient>
</defs>
</svg>
