<svg width="227" height="293" viewBox="0 0 227 293" fill="none" xmlns="http://www.w3.org/2000/svg">
<path d="M226.48 254.383C159.632 305.854 66.3909 305.443 0 253.383L48.66 230.573C50.9774 229.484 53.2015 228.206 55.31 226.753C55.95 226.313 56.59 225.853 57.2 225.373C62.4959 221.321 66.8551 216.174 69.98 210.283C72.3425 205.757 73.9118 200.859 74.62 195.803C75.1084 192.522 75.3557 189.21 75.36 185.893C75.36 182.433 75.27 178.973 75.15 175.513C75.08 173.253 75.02 170.983 74.99 168.723C74.95 165.556 74.9167 162.386 74.89 159.213L76.89 160.213L82.09 162.903L84.5 163.313L112.38 168.053L143.5 173.353L144.44 205.353L144.75 215.813L144.9 220.893V221.203L145.9 221.623L156.97 226.123L226.48 254.383Z" fill="#F2A196"/>
<path d="M144.89 221.203C141.19 221.633 134.89 220.203 131.41 218.313C118.41 211.133 111.92 205.313 105.03 200.233C96.8301 194.173 75.2301 174.733 75.2301 174.733C75.1601 172.473 75.0201 170.973 74.9901 168.733C74.9501 165.566 74.9168 162.396 74.8901 159.223L76.8901 160.223L82.0901 162.913L84.5001 163.323L112.38 168.063L143.5 173.363L144.44 205.363L144.75 215.823L144.9 220.903V221.203H144.89Z" fill="#E88870"/>
<path d="M226.48 254.383C159.632 305.854 66.3909 305.443 0 253.383L48.66 230.573C50.9774 229.484 53.2015 228.206 55.31 226.753C55.95 226.313 56.59 225.853 57.2 225.373C80.75 242.133 112.89 252.703 140.69 240.193C147.31 237.193 153.39 232.353 156.99 226.133L226.48 254.383Z" fill="#FF2609"/>
<path d="M208.58 54.103C208.49 54.693 208.38 55.273 208.25 55.853C207.556 58.826 206.442 61.6849 204.94 64.343L204.86 64.483C204.29 65.483 203.68 66.483 203.02 67.483C201.269 70.0501 199.358 72.505 197.3 74.833L196.07 76.203C195.24 77.133 194.4 78.043 193.56 78.943C198.01 77.943 202.32 82.093 203.11 86.573C203.9 91.053 202.11 95.573 199.9 99.573C196.03 106.653 190.45 111.363 185.54 117.513C181.86 122.093 179.82 127.513 175.81 131.893L175.51 132.223C164.92 143.343 148.2 145.943 134.28 150.693C129.28 152.413 75.06 167.813 75.06 171.173C75.06 170.443 69.75 165.173 63.06 158.763C39.06 135.973 31.17 100.763 45.45 70.563C60.8 38.063 95.66 14.873 128.86 3.73296C139.24 0.252962 151.02 -2.08704 160.86 2.73296C170.7 7.55296 175.6 22.503 167.44 29.803C172.572 25.9199 178.956 24.065 185.37 24.593C191.294 24.9641 196.881 27.4769 201.09 31.663C204.424 35.012 206.82 39.1775 208.04 43.743C208.944 47.1203 209.128 50.65 208.58 54.103V54.103Z" fill="#845161"/>
<path d="M208.58 54.103C208.49 54.693 208.38 55.273 208.25 55.853C208.16 56.023 208.07 56.203 207.98 56.403C206.85 58.983 206.33 61.763 204.98 64.343L204.9 64.483C204.33 65.483 203.72 66.483 203.06 67.483C201.326 70.0625 199.415 72.5184 197.34 74.833L196.07 76.203C195.24 77.133 194.4 78.043 193.56 78.943C198.01 77.943 202.32 82.093 203.11 86.573C203.9 91.053 202.11 95.573 199.9 99.573C196.03 106.653 190.45 111.363 185.54 117.513C181.86 122.093 179.82 127.513 175.81 131.893C171.154 126.357 168.19 119.598 167.27 112.423C165.63 99.163 166.63 84.713 166.18 71.293C165.9 62.853 163.18 61.293 168.24 54.463C172.309 49.443 177.015 44.9753 182.24 41.173C186.32 38.483 191.57 38.063 196.44 38.753C200.684 39.3333 204.688 41.0622 208.02 43.753C208.929 47.1257 209.12 50.6518 208.58 54.103Z" fill="#69303A"/>
<circle cx="65.0498" cy="131.203" r="17" fill="#F2A196"/>
<circle cx="70.4402" cy="131.203" r="15.22" fill="#E88870"/>
<path d="M70.6699 115.203L75.0499 170.203L141.49 211.083C151.033 214.638 161.716 210.361 166.17 201.203C171.231 190.87 175.62 180.221 179.31 169.323C181.95 161.483 184.53 153.433 184.78 145.093C185.03 136.753 182.66 128.093 179.78 120.393C179.48 119.583 177.88 117.093 178.02 116.243C179.133 109.576 180.24 102.93 181.34 96.3029C182.6 88.7929 184.21 80.9529 182.34 73.4029C180.21 64.7429 173.67 61.0529 168.29 54.5829C154.13 72.8229 130.85 83.1329 110.52 93.5829C100.07 98.9829 70.6699 115.203 70.6699 115.203Z" fill="#F2A196"/>
<path d="M181.14 163.703C176.83 180.623 172.06 198.053 168.51 204.313C165.85 208.983 162.14 209.883 156.27 211.313C141.544 214.683 126.082 211.415 113.98 202.373L74.89 170.893C74.29 165.003 73.89 164.103 73.6 158.183C73.46 155.503 72.6 152.823 73.24 150.183C73.4157 151.57 74.0085 152.871 74.94 153.913C79.67 160.333 85.19 167.583 93.05 170.223C101.25 172.973 110.58 173.403 118.5 169.523C125.39 166.143 132.14 161.733 139.33 158.953C144.112 156.978 149.272 156.087 154.44 156.343C161.78 156.843 164.92 160.153 170.29 164.523C172.05 165.963 174.02 167.463 176.29 167.523C178.85 167.473 178.98 165.353 181.14 163.703Z" fill="#845161"/>
<path d="M119.79 113.003C125.89 113.003 125.89 122.383 119.79 122.433H119.51C113.41 122.433 113.41 113.053 119.51 113.003H119.79Z" fill="#00214E"/>
<path d="M169.91 111.613C175.58 111.663 175.58 120.313 169.91 120.363H169.66C164 120.363 164 111.663 169.66 111.613H169.91Z" fill="#00214E"/>
<path d="M145.2 110.293C145.12 110.643 158.56 146.423 158.56 146.423L140.62 147.293" stroke="#00214E"/>
<path d="M102.72 103.373C111.978 101.461 121.5 101.194 130.85 102.583" stroke="#00214E"/>
<path d="M161.77 103.483C167.486 102.157 173.376 101.749 179.22 102.273" stroke="#00214E"/>
<path d="M139.59 166.203C145.21 168.147 151.302 168.259 156.99 166.523C157.6 166.333 157.34 165.363 156.73 165.523C151.216 167.213 145.308 167.104 139.86 165.213C139.25 165.003 138.99 165.963 139.59 166.213V166.203Z" fill="#F2A196"/>
</svg>
