<svg width="270" height="274" viewBox="0 0 270 274" fill="none" xmlns="http://www.w3.org/2000/svg">
<path d="M156.49 209.762C137.793 208.003 119.248 204.892 101 200.452C64 191.232 28.23 174.942 0 149.312C24.9 123.312 38.47 108.262 58 78.0523C72.49 55.6323 90.29 16.2123 117.13 6.05234C159.2 -9.87766 216.01 5.60234 227.97 52.9223C233.02 72.9223 233.21 93.8423 230.35 114.182C229.05 123.352 219.77 212.872 214.45 212.782C195.12 212.442 175.76 211.652 156.49 209.762Z" fill="#F2D4CF"/>
<path d="M269.85 235.572C203.002 287.044 109.761 286.632 43.3701 234.572L92.0301 211.762C93.5196 211.058 94.9715 210.277 96.3801 209.422L97.5001 208.722C97.9001 208.472 98.2901 208.212 98.6801 207.942C104.819 203.707 109.85 198.058 113.35 191.472C117.35 183.922 118.67 175.582 118.73 167.082C118.73 161.362 118.42 155.642 118.36 149.912C118.32 146.746 118.287 143.576 118.26 140.402L120.26 141.402L125.46 144.092L155.76 149.252L186.88 154.552L187.82 186.552L188.29 202.422L199.76 207.062L208.76 210.702L269.85 235.572Z" fill="#F2A196"/>
<path d="M187.67 181.432C184.95 183.112 182.38 183.902 180.13 183.662C165.34 182.072 136.49 170.482 118.33 149.032C118.33 147.979 118.31 146.929 118.27 145.882C118.23 142.709 118.197 139.539 118.17 136.372L120.17 137.372L125.37 140.062L155.66 145.212L186.78 150.512L187.67 181.432Z" fill="#E88870"/>
<circle cx="93.2598" cy="108.392" r="17" fill="#F2A196"/>
<circle cx="99.2598" cy="106.392" r="17" fill="#E88870"/>
<path d="M208.76 82.6423C220.5 123.332 195.55 172.512 180.22 172.512C159.22 172.512 108.22 155.742 96.4802 115.052C84.7402 74.3623 100.35 34.1323 131.35 25.1823C162.35 16.2323 197.05 41.9623 208.76 82.6423Z" fill="#F2A196"/>
<circle cx="145.62" cy="95.8923" r="19" stroke="white"/>
<circle cx="198.76" cy="92.8923" r="19" stroke="white"/>
<path d="M170.09 28.5624C165.79 47.2624 156.4 63.1424 139.23 74.7024C120.71 87.5324 99.4301 89.3324 78.1001 93.5624C78.6401 80.4524 78.9301 66.4124 85.7001 54.7124C93.373 41.7355 104.579 31.2092 118.01 24.3624C132.81 16.7024 155.72 9.20236 172.36 14.5124C171.901 19.2389 171.143 23.9316 170.09 28.5624Z" fill="#F2D4CF"/>
<path d="M171.84 84.5424C171.76 84.8924 179.76 116.892 179.76 116.892H167.26" stroke="#00214E"/>
<path d="M183.29 74.3323C190.359 70.7335 198.532 69.9612 206.15 72.1723" stroke="#00214E"/>
<path d="M128.18 78.0324C137.923 73.0712 149.369 72.7047 159.41 77.0324" stroke="#00214E"/>
<path d="M164.62 95.8924L179.76 94.6024" stroke="white"/>
<path d="M269.85 235.572C203.002 287.044 109.761 286.632 43.3701 234.572L92.0301 211.762C94.3475 210.673 96.5716 209.395 98.6801 207.942C99.3201 207.502 99.9601 207.042 100.57 206.562C105.866 202.51 110.225 197.363 113.35 191.472C115.713 186.946 117.282 182.049 117.99 176.992C118.696 177.677 119.437 178.324 120.21 178.932C126.342 183.466 132.996 187.247 140.03 190.192C143.445 191.617 146.937 192.849 150.49 193.882C161.194 197.004 172.37 198.185 183.49 197.372C185.03 197.252 186.58 197.102 188.12 196.992L188.27 202.072V202.402L200.37 207.322L269.85 235.572Z" fill="#00214E"/>
<path d="M145.85 128.182C146.123 127.741 146.568 127.435 147.078 127.338C147.588 127.241 148.114 127.362 148.53 127.672C150.61 129.142 154.41 132.232 159.81 133.312C167.17 134.772 173.55 131.832 175.08 133.732C175.94 134.802 174.89 136.102 172.88 137.782C168.623 140.958 163.267 142.285 158.02 141.462C150.94 140.142 145.62 131.932 145.62 129.032C145.619 128.733 145.698 128.44 145.85 128.182Z" fill="white"/>
<path d="M146.58 89.5424C152.68 89.5924 152.68 98.9224 146.58 98.9724H146.3C140.2 98.9224 140.2 89.5924 146.3 89.5424H146.58Z" fill="#00214E"/>
<path d="M196.84 88.8823C202.5 88.8823 202.5 97.5823 196.84 97.6323H196.58C190.92 97.5823 190.92 88.9323 196.58 88.8823H196.84Z" fill="#00214E"/>
</svg>
