<svg width="227" height="276" viewBox="0 0 227 276" fill="none" xmlns="http://www.w3.org/2000/svg">
<path d="M226.48 237.245C159.632 288.716 66.3909 288.304 0 236.245L48.66 213.435C50.9774 212.345 53.2015 211.068 55.31 209.615C55.95 209.175 56.59 208.715 57.2 208.235C62.4959 204.183 66.8551 199.035 69.98 193.145C72.3479 188.603 73.9174 183.688 74.62 178.615C75.1084 175.334 75.3557 172.022 75.36 168.705C75.36 162.985 75.05 157.265 74.99 151.535C74.95 148.361 74.9167 145.191 74.89 142.025L76.89 143.025L82.09 145.715L84.5 146.125L112.38 150.865L143.5 156.165L144.44 188.165L144.75 198.625L144.9 203.705V204.035L157 208.955L226.48 237.245Z" fill="#F2A196"/>
<path d="M226.48 237.245C159.632 288.716 66.3909 288.304 0 236.245L48.66 213.435C50.9774 212.345 53.2015 211.068 55.31 209.615C55.95 209.175 56.59 208.715 57.2 208.235C80.75 224.995 112.89 235.565 140.69 223.055C147.31 220.055 153.39 215.215 156.99 208.995L226.48 237.245Z" fill="url(#paint0_linear_3_4443)"/>
<path d="M144.88 203.735C134.43 204.365 123.88 196.255 112.98 189.985C92.5703 178.195 80.5603 163.045 84.4803 146.185L112.36 150.925L143.48 156.225L144.42 188.225L144.88 203.735Z" fill="#E88870"/>
<path d="M192.82 43.0747C197.96 63.0747 189.59 81.7747 181.52 100.075C171.31 123.205 156.65 125.955 134.27 133.595C129.27 135.315 75.0498 150.715 75.0498 154.075C75.0498 153.345 69.7398 148.075 63.0498 141.665C39.0498 118.875 31.1598 83.6647 45.4398 53.4647C64.4398 13.3547 121.06 6.18466 159.92 15.9347C173.32 19.2947 186.4 24.5947 191.43 38.4847C191.95 40.0247 192.42 41.5547 192.82 43.0747Z" fill="#00214E"/>
<circle cx="65.0498" cy="114.065" r="17" fill="#F2A196"/>
<circle cx="70.4505" cy="114.065" r="15.22" fill="#E88870"/>
<path d="M70.6699 98.0247L75.0499 155.025L141.49 193.845C151.028 197.408 161.712 193.139 166.17 183.985C175.73 164.405 191.07 133.495 189.05 121.985C186.05 104.985 178.05 98.9847 178.05 98.9847L181.38 79.0447C182.63 71.5347 184.24 63.6947 182.38 56.1447C180.25 47.4947 173.71 43.7947 168.33 37.3247C154.17 55.5647 130.89 65.8747 110.56 76.3247C100.07 81.8447 70.6699 98.0247 70.6699 98.0247Z" fill="#F2A196"/>
<path d="M145.2 93.1647C145.12 93.5047 158.56 129.285 158.56 129.285L140.62 130.165" stroke="#00214E"/>
<path d="M102.72 86.2347C111.977 84.3232 121.499 84.0558 130.85 85.4447" stroke="#00214E"/>
<path d="M161.77 86.3447C167.486 85.0238 173.375 84.6155 179.22 85.1347" stroke="#00214E"/>
<path d="M122.24 140.165C122.516 139.727 122.962 139.425 123.471 139.33C123.979 139.235 124.504 139.357 124.92 139.665C127 141.125 130.8 144.225 136.2 145.295C143.56 146.765 149.94 143.815 151.47 145.715C152.33 146.785 151.28 148.095 149.27 149.765C145.017 152.949 139.658 154.28 134.41 153.455C127.33 152.125 122.01 143.925 122.01 141.015C122.009 140.716 122.089 140.423 122.24 140.165Z" fill="white"/>
<path d="M119.07 96.1347C125.18 96.1347 125.18 105.515 119.07 105.565H118.8C112.7 105.565 112.7 96.1847 118.8 96.1347H119.07Z" fill="#00214E"/>
<path d="M169.24 94.7447C174.9 94.7947 174.9 103.445 169.24 103.495H168.99C163.32 103.495 163.32 94.7947 168.99 94.7447H169.24Z" fill="#00214E"/>
<path d="M169.07 18.9147C148.043 19.315 127.135 22.1676 106.77 27.4147C86.3172 32.4017 66.5167 39.7581 47.7695 49.3347C52.2295 28.7047 72.6595 9.66469 100.51 2.67469C128.36 -4.31531 155.35 2.84469 169.07 18.9147Z" fill="#845161"/>
<defs>
<linearGradient id="paint0_linear_3_4443" x1="0" y1="275.563" x2="226.48" y2="275.563" gradientUnits="userSpaceOnUse">
<stop stop-color="#16243F"/>
<stop offset="1" stop-color="#6878B1"/>
</linearGradient>
</defs>
</svg>
