<svg width="227" height="277" viewBox="0 0 227 277" fill="none" xmlns="http://www.w3.org/2000/svg">
<path d="M45.48 114.584C34.71 92.354 36.14 65.344 48.3 43.964C65.91 12.964 105.3 -1.68599 139.55 0.154009C146.29 0.514009 153.64 1.80401 158.04 6.92401C159.41 8.51401 160.54 10.504 162.49 11.304C163.849 11.7214 165.281 11.8408 166.69 11.654C173.03 11.364 179.61 12.294 185 15.654C190.39 19.014 194.34 25.084 193.9 31.414C193.77 33.244 193.31 35.194 194.09 36.864C194.74 38.254 196.09 39.124 197.23 40.194C200.23 43.104 201.23 47.644 200.75 51.814C199.26 65.604 195.26 79.864 187.96 91.844C183.456 99.2661 177.822 105.94 171.26 111.624C164.78 117.204 156.73 119.834 151.13 126.244C145.28 132.934 146.02 142.014 140.28 149.244C134.19 156.934 125.28 161.894 115.85 164.334C105.29 167.064 84.57 168.074 75.13 161.784C72.27 159.874 70.23 156.984 68.3 154.134C59.7564 141.514 52.1301 128.297 45.48 114.584V114.584Z" fill="#00214E"/>
<path d="M226.48 238.134C159.632 289.605 66.3909 289.194 0 237.134L48.66 214.324C50.9774 213.235 53.2015 211.957 55.31 210.504C55.95 210.064 56.59 209.604 57.2 209.124C62.4959 205.072 66.8551 199.925 69.98 194.034C72.3425 189.508 73.9118 184.61 74.62 179.554C75.1084 176.273 75.3557 172.961 75.36 169.644C75.36 163.924 75.05 158.204 74.99 152.474C74.95 149.307 74.9167 146.137 74.89 142.964L76.89 143.964L82.09 146.654L84.5 147.064L112.38 151.804L143.5 157.104L144.44 189.104L144.75 199.564L144.9 204.644V204.974L157 209.894L226.48 238.134Z" fill="#845161"/>
<path d="M226.48 238.134C159.632 289.605 66.3909 289.194 0 237.134L48.66 214.324C50.9774 213.235 53.2015 211.957 55.31 210.504C55.95 210.064 56.59 209.604 57.2 209.124C80.75 225.884 112.89 236.454 140.69 223.944C147.31 220.944 153.39 216.104 156.99 209.884L226.48 238.134Z" fill="#FF2609"/>
<path d="M144.88 204.624C134.43 205.254 122.75 202.554 111.88 196.284C91.4701 184.494 80.5601 163.934 84.4801 147.074L112.36 151.814L143.48 157.114L144.42 189.114L144.88 204.624Z" fill="#69303A"/>
<circle cx="65.05" cy="114.954" r="17" fill="#845161"/>
<circle cx="70.44" cy="114.954" r="15.22" fill="#69303A"/>
<path d="M70.6699 98.904L72.9899 129.084L74.4999 148.814C75.0599 156.074 77.8899 160.424 82.6199 166.234C91.0248 176.543 101.732 184.736 113.88 190.154C125.48 195.324 141.56 200.474 153.94 195.454C166.59 190.334 170.63 176.124 174.88 164.354C179.13 152.584 183.09 139.614 182.88 126.894C182.61 109.634 178.04 99.954 178.04 99.954C179.147 93.2873 180.253 86.6407 181.36 80.014C182.61 72.504 184.22 64.664 182.36 57.114C180.23 48.454 173.69 44.764 168.31 38.294C154.15 56.534 130.87 66.844 110.54 77.294C100.07 82.764 70.6699 98.904 70.6699 98.904Z" fill="#845161"/>
<path d="M147.12 103.764C147.06 104.004 152.66 119.644 156.05 129.084C156.613 130.691 156.364 132.471 155.381 133.861C154.398 135.251 152.803 136.08 151.1 136.084H147.47" stroke="#00214E"/>
<path d="M133.46 130.044C132.125 130.836 131.565 132.481 132.141 133.923C132.717 135.364 134.257 136.171 135.77 135.824" stroke="#00214E"/>
<path d="M99.1699 92.204C108.428 90.2946 117.949 90.0238 127.3 91.404" stroke="#00214E"/>
<path d="M161.77 91.254C167.498 89.9181 173.403 89.5096 179.26 90.044" stroke="#00214E"/>
<path d="M108 152.084C111.705 146.001 116.975 141.024 123.26 137.674" stroke="#00214E"/>
<path d="M125.92 107.404C125.412 111.53 122.744 115.074 118.92 116.704C116.856 117.452 114.699 117.913 112.51 118.074" stroke="#00214E"/>
<path d="M127.28 75.024H158.88" stroke="#00214E"/>
<path d="M123.25 81.544H154.86" stroke="#00214E"/>
<path d="M158.74 105.124C159.696 107.67 160.952 110.094 162.48 112.344C163.976 114.422 166.207 115.853 168.72 116.344" stroke="#00214E"/>
<path d="M120.06 148.604C120.336 148.167 120.782 147.864 121.291 147.77C121.799 147.675 122.324 147.796 122.74 148.104C124.82 149.564 128.62 152.664 134.02 153.734C141.38 155.204 147.77 152.254 149.29 154.154C150.15 155.224 149.1 156.524 147.09 158.204C142.843 161.375 137.498 162.705 132.26 161.894C125.18 160.564 119.86 152.364 119.86 149.454C119.851 149.158 119.92 148.865 120.06 148.604Z" fill="white"/>
<path d="M117.34 100.814C123.45 100.754 123.63 110.074 117.53 110.244H117.26C111.16 110.314 110.98 100.994 117.08 100.824H117.35L117.34 100.814Z" fill="#00214E"/>
<path d="M167.58 99.184C173.25 99.114 173.41 107.774 167.75 107.924H167.5C161.84 107.984 161.67 99.334 167.33 99.174H167.58V99.184Z" fill="#00214E"/>
</svg>
