<svg width="227" height="300" viewBox="0 0 227 300" fill="none" xmlns="http://www.w3.org/2000/svg">
<path d="M208.55 91.94C208.55 99.81 199.65 106.41 197.71 113.67C195.71 121.19 200.05 131.34 196.25 137.92C192.45 144.5 181.38 145.92 175.97 151.29C170.56 156.66 169.26 167.71 162.59 171.57C155.92 175.43 145.86 171.03 138.35 173.04C131.09 174.98 124.49 183.88 116.61 183.88C108.73 183.88 102.14 174.98 94.8802 173.04C87.3702 171.04 77.2102 175.38 70.6402 171.57C64.0702 167.76 62.6402 156.71 57.2602 151.29C51.8802 145.87 40.8402 144.59 36.9802 137.92C33.1202 131.25 37.5202 121.19 35.5202 113.67C33.5802 106.41 24.6802 99.81 24.6802 91.94C24.6802 84.07 33.5802 77.47 35.5202 70.21C37.5202 62.69 33.1802 52.54 36.9802 45.96C40.7802 39.38 51.8502 37.96 57.2602 32.59C62.6702 27.22 63.9602 16.17 70.6402 12.31C77.3202 8.45 87.3702 12.85 94.8802 10.84C102.14 8.9 108.74 0 116.61 0C124.48 0 131.09 8.9 138.35 10.84C145.86 12.84 156.01 8.5 162.59 12.31C169.17 16.12 170.59 27.17 175.97 32.59C181.35 38.01 192.39 39.29 196.25 45.96C200.11 52.63 195.7 62.69 197.71 70.21C199.65 77.47 208.55 84.07 208.55 91.94Z" fill="#00214E"/>
<circle cx="64.8901" cy="137.66" r="17" fill="#E18477"/>
<circle cx="70.75" cy="136.66" r="16" fill="#A76962"/>
<path d="M226.48 260.84C159.632 312.311 66.3909 311.9 0 259.84L48.66 237.03C50.9774 235.941 53.2015 234.663 55.31 233.21C55.95 232.77 56.59 232.31 57.2 231.83C62.4959 227.778 66.8551 222.631 69.98 216.74C73.98 209.19 75.3 200.85 75.36 192.35C75.36 186.63 75.05 180.91 74.99 175.18C74.95 172.013 74.9167 168.843 74.89 165.67L76.89 166.67L82.07 169.41L84.48 169.82L112.36 174.56L143.48 179.86L144.42 211.86L144.88 227.4V227.73L156.98 232.65L226.48 260.84Z" fill="#E18477"/>
<path d="M144.76 223.79L143.22 223.95C128.17 225.269 113.301 219.913 102.55 209.3L75.1698 177.89C75.0798 174.99 74.9698 176.79 74.9398 173.89C74.8998 170.723 74.8665 167.553 74.8398 164.38L76.8398 165.38L82.0398 168.07L84.4498 168.48L112.33 173.22L143.45 178.52L144.39 210.52L144.76 223.79Z" fill="#A76962"/>
<path d="M70.0001 103.06C69.2101 104.06 68.5101 106.01 67.7601 109.17C66.0301 116.5 73.6101 164.63 75.0601 178.79L111.48 205.65C123.584 214.687 139.044 217.955 153.77 214.59C159.64 213.2 163.36 212.3 166.01 207.59C171.13 198.59 183.7 167.8 184.52 146.08C184.75 139.92 184.6 130.52 180.8 125.26C178.95 122.71 178 122.66 178.67 119.05C179.34 115.44 180.35 111.58 181.18 107.84C183.47 97.51 185.3 85.84 181.99 75.56C180.23 70.06 177.12 66.42 172.7 62.89C167.98 59.11 166.03 59.29 163.2 64.89C161.29 68.69 159.37 71.89 155.5 74.05C149.89 77.16 146.07 75.14 140.5 74.71C135.62 74.34 136.14 78.11 135.07 81.71C133.962 85.489 131.567 88.7613 128.3 90.96C122.227 94.9002 114.416 94.9432 108.3 91.07C107.47 90.4747 106.471 90.1626 105.45 90.18C102.11 90.36 101.96 94.37 101.2 97.25C99.5901 103.25 92.5801 106.57 86.3501 106.09C76.1901 105.33 72.5701 99.67 70.0001 103.06Z" fill="#E18477"/>
<path d="M150.26 120.95C150.535 124.835 151.205 128.681 152.26 132.43C153.26 135.74 154.78 137.8 156.78 140.65C157.471 141.591 158.07 142.595 158.57 143.65C161.21 149.59 157.7 156.18 151.02 156.18H146.89" stroke="#00214E"/>
<path d="M121.23 165.98C126.038 171.342 132.623 174.784 139.77 175.67" stroke="#00214E"/>
<path d="M102.56 109.83C111.818 107.919 121.34 107.651 130.69 109.04" stroke="#00214E"/>
<path d="M161.61 109.94C167.328 108.607 173.223 108.199 179.07 108.73" stroke="#00214E"/>
<path d="M226.48 260.84C159.632 312.311 66.3909 311.9 0 259.84L48.66 237.03C50.9774 235.941 53.2015 234.663 55.31 233.21C55.95 232.77 56.59 232.31 57.2 231.83C80.75 248.59 112.89 259.16 140.69 246.65C147.31 243.65 153.39 238.81 156.99 232.59L226.48 260.84Z" fill="url(#paint0_linear_3_4237)"/>
<path d="M133.56 149.14C132.081 149.914 131.379 151.645 131.903 153.23C132.426 154.816 134.021 155.789 135.67 155.53" stroke="#00214E"/>
<path d="M117.24 119.34C123.35 119.34 123.35 128.72 117.24 128.77H116.97C110.87 128.72 110.87 119.39 116.97 119.34H117.24Z" fill="#00214E"/>
<path d="M167.51 118.68C173.17 118.68 173.17 127.38 167.51 127.43H167.25C161.59 127.38 161.59 118.73 167.25 118.68H167.51Z" fill="#00214E"/>
<circle cx="64.8498" cy="136.66" r="6.01" fill="#F2D4CF"/>
<path d="M53.4601 151.13C53.0801 151.07 52.7001 151 52.3201 150.91C45.0999 149.25 40.2799 142.43 41.1253 135.07C41.9707 127.709 48.2116 122.16 55.6201 122.18V122.18C56.0461 122.179 56.4174 122.47 56.5173 122.884C56.6173 123.298 56.4198 123.727 56.0401 123.92C51.6305 126.304 48.7571 130.788 48.434 135.79C48.111 140.792 50.3837 145.609 54.4501 148.54C54.9858 148.917 55.1973 149.609 54.9635 150.22C54.7297 150.832 54.1104 151.207 53.4601 151.13V151.13Z" fill="#F2D4CF"/>
<path d="M53.1299 123.76C55.2016 122.97 57.4959 122.995 59.5499 123.83C61.7302 124.799 63.3954 126.65 64.1299 128.92C64.6973 130.523 64.942 132.222 64.8499 133.92" stroke="#F2D4CF" stroke-width="2"/>
<defs>
<linearGradient id="paint0_linear_3_4237" x1="0" y1="299.158" x2="226.48" y2="299.158" gradientUnits="userSpaceOnUse">
<stop stop-color="#315676"/>
<stop offset="1" stop-color="#E1B9E0"/>
</linearGradient>
</defs>
</svg>
