<svg width="227" height="298" viewBox="0 0 227 298" fill="none" xmlns="http://www.w3.org/2000/svg">
<path d="M192.23 90.7896C193.02 98.9096 200.52 105.93 198.99 113.93C196.88 124.93 180.18 127.21 176.65 137.82C174.54 144.13 177.97 151.18 176.34 157.63C174.48 164.98 166.65 169.22 159.2 170.63C148.2 172.63 138.2 171.69 128.26 177.63C122.98 180.8 118.94 185.77 113.26 188.24C96.7098 195.4 77.3298 186.95 66.0298 174.38C51.3198 158 44.5598 137.11 40.1998 115.94C39.4198 112.14 38.7031 108.336 38.0498 104.53C37.9598 104 37.8598 103.47 37.7598 102.94C35.9598 93.4696 32.7598 83.0396 31.3898 72.8396C31.2498 71.7996 31.1298 70.7596 31.0298 69.7196C29.9698 58.6496 31.4498 47.9996 39.6298 39.3296C47.7041 30.9125 59.3286 26.8839 70.8798 28.4996C74.5298 29.0396 78.1798 30.1496 81.8298 29.6596C88.0098 28.8496 92.6198 23.8196 96.9798 19.3796C106.64 9.55958 120.19 0.689584 133.37 4.67958C138.48 6.22958 143.06 9.62958 148.37 10.0696L149.28 10.1196C155.47 10.2396 161.11 6.44958 166.65 3.48958C172.45 0.389584 179.94 -1.79042 185.28 2.04958C194.93 8.97958 186.55 24.9996 191.35 35.8696C194.25 42.4396 201.75 46.3196 203.92 53.1596C207.98 65.9696 190.93 77.3196 192.23 90.7896Z" fill="url(#paint0_linear_3_4513)"/>
<path d="M226.48 259.66C159.632 311.131 66.3909 310.719 0 258.66L48.66 235.85C50.1495 235.145 51.6014 234.364 53.01 233.51L54.13 232.81C54.53 232.56 54.92 232.3 55.31 232.03C61.4491 227.794 66.4803 222.146 69.98 215.56C73.98 208.01 75.3 199.67 75.36 191.17C75.36 185.45 75.05 179.73 74.99 174C74.95 170.833 74.9167 167.663 74.89 164.49L76.89 165.49L82.09 168.18L112.38 173.33L143.5 178.63L144.44 210.63L144.91 226.5L156.38 231.17L165.38 234.81L226.48 259.66Z" fill="#845161"/>
<path d="M144.42 210.61C134.36 212.396 124.011 211.587 114.35 208.26C92.7701 201.01 78.2401 183.52 76.8701 165.5L82.0701 168.19L112.36 173.34L143.48 178.64L144.42 210.61Z" fill="#69303A"/>
<path d="M226.48 259.66C159.632 311.131 66.3909 310.719 0 258.66L48.66 235.85C50.1495 235.145 51.6014 234.364 53.01 233.51C76.69 250.92 109.65 262.26 138.07 249.51C146.13 245.89 153.4 239.46 156.36 231.2L165.36 234.84L226.48 259.66Z" fill="url(#paint1_linear_3_4513)"/>
<circle cx="51.8301" cy="130.93" r="17" fill="#845161"/>
<circle cx="57.9102" cy="129.19" r="17" fill="#69303A"/>
<path d="M136.07 198.67C115.07 197.78 64.85 178.87 54.83 137.73C52.7186 129.159 51.7767 120.343 52.03 111.52C52.03 109.79 52.18 108.07 52.32 106.38C54.8 78.1196 70.32 55.0496 93.45 49.3796C94.7693 49.052 96.1044 48.7917 97.45 48.5996C105.529 47.4412 113.77 48.3672 121.39 51.2896C131.204 55.1096 139.975 61.195 146.99 69.0496C149.948 72.2983 152.65 75.7721 155.07 79.4396C161.238 88.8041 165.726 99.1728 168.33 110.08C178.37 151.21 151.37 199.31 136.07 198.67Z" fill="#845161"/>
<path d="M103.31 112.37C109.41 112.67 109.02 121.99 102.92 121.78H102.64C96.5502 121.48 96.9402 112.16 103.04 112.37H103.31V112.37Z" fill="#00214E"/>
<path d="M153.69 110.65C159.35 110.93 158.98 119.58 153.32 119.39H153.07C147.41 119.1 147.78 110.46 153.44 110.65H153.69Z" fill="#00214E"/>
<path d="M135.42 110.36C135.531 114.254 136.037 118.127 136.93 121.92C137.83 125.27 139.22 127.38 141.1 130.32C141.753 131.284 142.313 132.308 142.77 133.38C145.16 139.38 141.37 145.86 134.7 145.57L130.57 145.4" stroke="#00214E"/>
<path d="M106.18 155.55C110.753 161.118 117.192 164.838 124.3 166.02" stroke="#00214E"/>
<path d="M116.29 137.13C114.754 137.823 113.958 139.537 114.419 141.158C114.88 142.779 116.459 143.818 118.13 143.6" stroke="#00214E"/>
<path d="M140.66 98.2796C147.871 94.9822 156.067 94.5567 163.58 97.0896" stroke="#00214E"/>
<path d="M88.1201 98.9696C98.0636 94.4247 109.515 94.5457 119.36 99.2996" stroke="#00214E"/>
<path d="M162.97 58.7096C162.07 63.3096 158.88 67.2096 152.97 69.7096C147.86 71.8896 142.27 72.5896 136.89 73.9696C129.18 75.9696 124.64 81.7696 117.44 84.0596C111.28 86.0596 104.7 85.7496 98.2098 85.9796C95.22 86.0324 92.2398 86.3334 89.2998 86.8796C84.6357 87.9279 80.1372 89.6102 75.9298 91.8796C69.8077 95.1247 64.0169 98.9595 58.6398 103.33C56.0398 105.43 52.9298 108.05 52.2298 111.49C51.9898 112.67 51.9198 114.05 50.9798 114.81C50.3842 115.207 49.6945 115.442 48.9798 115.49C46.0698 115.94 43.0598 116.49 40.6898 118.3C39.1798 114.03 38.8098 108.93 38.0498 104.47C37.9598 103.94 37.8598 103.41 37.7598 102.88C35.9598 93.4096 32.7598 82.9796 31.3898 72.7796C31.2498 71.7396 31.1298 70.6996 31.0298 69.6596C29.9698 58.5896 31.4498 47.9396 39.6298 39.2696C47.7041 30.8525 59.3286 26.8239 70.8798 28.4396C74.5298 28.9796 78.1798 30.0896 81.8298 29.5996L82.3398 29.5196C88.2698 28.5196 92.7398 23.6396 96.9798 19.3196C106.64 9.49961 120.19 0.629605 133.37 4.61961C138.48 6.1696 143.06 9.5696 148.37 10.0096C151.51 10.2696 149.85 16.0596 149.64 18.3496C149.11 24.1596 148.76 27.4396 152.06 32.6996C154.66 36.8196 157.73 40.6396 160.06 44.8996C162.71 49.7896 163.79 54.5296 162.97 58.7096Z" fill="url(#paint2_linear_3_4513)"/>
<defs>
<linearGradient id="paint0_linear_3_4513" x1="30.6998" y1="190.818" x2="204.53" y2="190.818" gradientUnits="userSpaceOnUse">
<stop stop-color="#315676"/>
<stop offset="1" stop-color="#E1B9E0"/>
</linearGradient>
<linearGradient id="paint1_linear_3_4513" x1="0" y1="297.953" x2="226.48" y2="297.953" gradientUnits="userSpaceOnUse">
<stop stop-color="#16243F"/>
<stop offset="1" stop-color="#6878B1"/>
</linearGradient>
<linearGradient id="paint2_linear_3_4513" x1="16.7635" y1="151.992" x2="184.331" y2="106.816" gradientUnits="userSpaceOnUse">
<stop stop-color="#315676"/>
<stop offset="0.98" stop-color="#E1B9E0"/>
</linearGradient>
</defs>
</svg>
