<svg width="227" height="273" viewBox="0 0 227 273" fill="none" xmlns="http://www.w3.org/2000/svg">
<path d="M162.59 151.561C108.758 158.607 54.0837 155.555 1.37012 142.561C8.83998 108.34 20.3822 75.1367 35.7501 43.661C49.0001 16.511 76.6301 2.59103 106.43 0.23103C130.94 -1.70897 154.07 8.61103 166.67 29.601C176.41 45.811 182.47 67.521 186.44 85.951C190.68 105.631 194.523 125.384 197.97 145.211C197.92 144.911 166.02 151.091 162.59 151.561Z" fill="url(#paint0_linear_3_4124)"/>
<path d="M226.48 234.391C159.632 285.862 66.3909 285.451 0 233.391L48.69 210.571C50.1795 209.867 51.6314 209.086 53.04 208.231L54.16 207.531C54.56 207.281 54.95 207.021 55.34 206.751C61.4791 202.516 66.5103 196.867 70.01 190.281C74.01 182.731 75.33 174.391 75.39 165.891C75.39 160.171 75.08 154.451 75.02 148.721C74.98 145.554 74.9467 142.384 74.92 139.211L76.92 140.211L82.12 142.901L112.36 148.091L143.48 153.391L144.42 185.391L144.89 201.261L156.36 205.931L165.36 209.571L226.48 234.391Z" fill="#E18477"/>
<path d="M144.42 185.341C134.36 187.127 124.011 186.319 114.35 182.991C92.7701 175.741 78.2401 158.251 76.8701 140.231L82.0701 142.921L112.36 148.091L143.48 153.391L144.42 185.341Z" fill="#A76962"/>
<circle cx="45.8899" cy="107.211" r="17" fill="#E18477"/>
<circle cx="51.8899" cy="105.211" r="17" fill="#A76962"/>
<path d="M168.8 80.431C181.25 123.571 157.01 173.681 138.54 175.731C93.9001 180.731 62.2001 157.941 49.7401 114.801C37.2801 71.661 53.8401 28.981 86.7401 19.491C119.64 10.001 156.35 37.281 168.8 80.431Z" fill="#E18477"/>
<path d="M106.58 134.741C111.597 139.912 118.319 143.089 125.5 143.681" stroke="#00214E"/>
<path d="M132.16 24.5711C131.77 26.4715 131.207 28.3325 130.48 30.1311C122.92 48.6711 111.27 64.6611 94.3301 75.7311C74.3301 88.8311 54.7001 88.2011 32.3301 91.3611C33.6201 83.1811 33.1701 76.8611 33.4501 68.2911C33.8901 54.8711 40.2601 48.2911 48.7501 38.5011C55.0701 31.2211 63.6301 20.1011 73.5301 17.6911L131.6 3.85107C132.2 13.8411 134.13 15.0911 132.16 24.5711Z" fill="url(#paint1_linear_3_4124)"/>
<path d="M139.92 75.1511C146.985 71.5513 155.157 70.7824 162.77 73.0011" stroke="#00214E"/>
<path d="M84.8101 78.851C94.5533 73.8899 105.999 73.5234 116.04 77.851" stroke="#00214E"/>
<path d="M226.48 234.391C159.632 285.862 66.3909 285.451 0 233.391L48.69 210.571C51.0074 209.482 53.2315 208.204 55.34 206.751C55.98 206.311 56.62 205.851 57.23 205.371C62.5259 201.319 66.8851 196.172 70.01 190.281C72.3725 185.755 73.9418 180.857 74.65 175.801C75.3562 176.485 76.0972 177.133 76.87 177.741C83.0015 182.275 89.6559 186.056 96.69 189.001C100.105 190.426 103.597 191.657 107.15 192.691C117.854 195.812 129.03 196.994 140.15 196.181C141.69 196.061 143.24 195.911 144.78 195.801L144.93 200.881V201.211L156.99 206.091L226.48 234.391Z" fill="#845161"/>
<path d="M91.4099 135.451C92.6512 133.362 94.1869 131.462 95.9699 129.811C99.6419 126.437 104.252 124.257 109.19 123.561" stroke="#00214E"/>
<path d="M117.13 55.9711H140.79" stroke="#00214E"/>
<path d="M111.35 63.791H140.79" stroke="#00214E"/>
<path d="M99.3401 107.091C102.137 107.271 104.887 106.309 106.96 104.423C109.034 102.538 110.254 99.8922 110.34 97.0911" stroke="#00214E"/>
<path d="M143.21 94.891C143.265 97.5251 144.471 100.003 146.51 101.671C148.531 103.302 150.778 104.633 153.18 105.621" stroke="#00214E"/>
<path d="M140.49 116.901C140.968 117.642 141.402 118.41 141.79 119.201C142.244 119.945 142.55 120.771 142.69 121.631C142.717 122.254 142.461 122.856 141.993 123.268C141.524 123.68 140.895 123.858 140.28 123.751C139.66 123.621 139.39 124.581 140.02 124.751C140.828 124.91 141.665 124.74 142.348 124.281C143.031 123.821 143.503 123.109 143.66 122.301C143.735 121.253 143.491 120.207 142.96 119.301C142.486 118.293 141.952 117.315 141.36 116.371C141.02 115.831 140.15 116.371 140.49 116.881V116.901Z" fill="#00214E"/>
<path d="M123.78 118.091C122.93 119.451 121.92 121.151 122.41 122.821C122.8 124.181 124.25 125.441 125.72 124.911C126.32 124.691 126.06 123.721 125.45 123.911C124.45 124.291 123.45 123.231 123.31 122.271C123.1 120.951 123.98 119.621 124.65 118.561C124.99 118.011 124.12 117.561 123.78 118.061V118.091Z" fill="#00214E"/>
<ellipse cx="101.631" cy="93.8134" rx="3.278" ry="7.95943" transform="rotate(-85.9958 101.631 93.8134)" fill="#00214E"/>
<ellipse cx="153.35" cy="93.3434" rx="7.94" ry="3.27" transform="rotate(-8.86 153.35 93.3434)" fill="#00214E"/>
<defs>
<linearGradient id="paint0_linear_3_4124" x1="1.37012" y1="155.269" x2="197.97" y2="155.269" gradientUnits="userSpaceOnUse">
<stop stop-color="#315676"/>
<stop offset="1" stop-color="#E1B9E0"/>
</linearGradient>
<linearGradient id="paint1_linear_3_4124" x1="83.755" y1="163.13" x2="223.257" y2="28.2842" gradientUnits="userSpaceOnUse">
<stop stop-color="#315676"/>
<stop offset="0.21" stop-color="#516889"/>
<stop offset="0.67" stop-color="#A296BA"/>
<stop offset="1" stop-color="#E1B9E0"/>
</linearGradient>
</defs>
</svg>
