<svg width="227" height="277" viewBox="0 0 227 277" fill="none" xmlns="http://www.w3.org/2000/svg">
<path d="M45.48 114.592C34.71 92.3621 36.14 65.3521 48.3 43.9621C65.91 13.0121 105.3 -1.67792 139.55 0.152083C146.29 0.512083 153.64 1.80208 158.04 6.92208C159.41 8.52208 160.54 10.5121 162.49 11.3021C163.848 11.7228 165.28 11.8456 166.69 11.6621C173.03 11.3721 179.61 12.3021 185 15.6621C190.39 19.0221 194.34 25.0921 193.9 31.4121C193.77 33.2521 193.31 35.2021 194.09 36.8621C194.74 38.2521 196.09 39.1321 197.23 40.2021C200.23 43.1121 201.23 47.6521 200.75 51.8221C199.22 65.6221 195.28 79.8921 187.96 91.8221C183.45 99.2456 177.809 105.919 171.24 111.602C164.76 117.182 156.71 119.812 151.11 126.222C145.26 132.912 146 141.982 140.26 149.222C134.17 156.922 125.26 161.882 115.83 164.312C105.27 167.052 84.55 168.062 75.11 161.772C72.25 159.862 70.21 156.972 68.28 154.122C59.7462 141.507 52.1267 128.296 45.48 114.592Z" fill="#DAAEA8"/>
<path d="M226.48 238.142C159.632 289.613 66.3909 289.202 0 237.142L48.66 214.332C50.9791 213.227 53.2032 211.932 55.31 210.462C55.95 210.022 56.59 209.562 57.2 209.082C62.4959 205.03 66.8551 199.883 69.98 193.992C72.3425 189.466 73.9118 184.568 74.62 179.512C75.1084 176.231 75.3557 172.919 75.36 169.602C75.36 163.882 75.05 158.162 74.99 152.432C74.95 149.265 74.9167 146.095 74.89 142.922L76.89 143.922L82.09 146.612L84.5 147.022L112.38 151.762L143.5 157.062L144.44 189.062L144.75 199.522L144.9 204.602V204.932L157 209.852L226.48 238.142Z" fill="#845161"/>
<path d="M226.48 238.142C159.632 289.613 66.3909 289.202 0 237.142L48.66 214.332C50.9791 213.227 53.2032 211.932 55.31 210.462C55.95 210.022 56.59 209.562 57.2 209.082C80.75 225.842 112.89 236.412 140.69 223.902C147.31 220.902 153.39 216.062 156.99 209.842L226.48 238.142Z" fill="#DE8276"/>
<path d="M144.84 204.632C134.39 205.262 122.71 202.562 111.84 196.292C91.43 184.502 80.52 163.942 84.44 147.082L112.32 151.822L143.44 157.122L144.38 189.122L144.84 204.632Z" fill="#69303A"/>
<circle cx="65.05" cy="114.962" r="17" fill="#845161"/>
<circle cx="70.44" cy="114.962" r="15.22" fill="#69303A"/>
<path d="M70.6699 98.9121L72.9899 129.092L74.4999 148.822C75.0599 156.082 77.8899 160.432 82.6199 166.242C91.0174 176.543 101.709 184.734 113.84 190.162C125.43 195.332 141.52 200.472 153.9 195.462C166.55 190.332 170.59 176.132 174.84 164.352C179.09 152.572 183.05 139.612 182.84 126.892C182.57 109.632 178 99.9621 178 99.9621C179.107 93.2954 180.213 86.6488 181.32 80.0221C182.57 72.5121 184.18 64.6621 182.32 57.1221C180.19 48.4621 173.65 44.7721 168.32 38.2921C154.16 56.5321 130.88 66.8421 110.55 77.2921C100.07 82.7321 70.6699 98.9121 70.6699 98.9121Z" fill="#845161"/>
<path d="M147.12 103.792C147.06 104.032 152.66 119.672 156.05 129.112C156.616 130.727 156.361 132.517 155.367 133.91C154.372 135.302 152.762 136.124 151.05 136.112H147.42" stroke="#00214E"/>
<path d="M133.46 130.052C132.109 130.834 131.538 132.488 132.117 133.937C132.697 135.386 134.253 136.189 135.77 135.822" stroke="#00214E"/>
<path d="M99.1699 92.2121C108.427 90.2927 117.949 90.0219 127.3 91.4121" stroke="#00214E"/>
<path d="M161.77 91.2521C167.487 89.9313 173.376 89.5229 179.22 90.0421" stroke="#00214E"/>
<path d="M108 152.092C111.701 146.007 116.968 141.027 123.25 137.672" stroke="#00214E"/>
<path d="M125.92 107.462C125.428 111.593 122.755 115.14 118.92 116.752C116.858 117.507 114.7 117.972 112.51 118.132" stroke="#00214E"/>
<path d="M127.28 75.0221H158.88" stroke="#00214E"/>
<path d="M123.25 81.5521H154.86" stroke="#00214E"/>
<path d="M158.74 105.122C159.694 107.673 160.95 110.1 162.48 112.352C163.979 114.427 166.209 115.857 168.72 116.352" stroke="#00214E"/>
<path d="M120.06 148.612C120.333 148.171 120.778 147.864 121.288 147.767C121.797 147.67 122.324 147.792 122.74 148.102C124.82 149.572 128.62 152.662 134.02 153.742C141.38 155.202 147.77 152.262 149.29 154.162C150.15 155.232 149.1 156.532 147.09 158.212C142.833 161.388 137.477 162.714 132.23 161.892C125.15 160.572 119.84 152.362 119.84 149.462C119.836 149.164 119.912 148.871 120.06 148.612Z" fill="white"/>
<path d="M117.34 100.822C123.45 100.752 123.63 110.082 117.53 110.242H117.25C111.15 110.312 110.97 100.982 117.07 100.822H117.34Z" fill="#00214E"/>
<path d="M167.58 99.1821C173.25 99.1221 173.41 107.772 167.75 107.932H167.5C161.84 108.002 161.67 99.3421 167.33 99.1921H167.58V99.1821Z" fill="#00214E"/>
</svg>
