<svg width="228" height="276" viewBox="0 0 228 276" fill="none" xmlns="http://www.w3.org/2000/svg">
<path d="M0 178.671C0 178.671 19 73.411 27.23 53.231C40.05 21.701 70.62 2.90103 104.15 0.23103C128.66 -1.70897 151.79 8.61103 164.4 29.601C180.5 56.411 195.67 178.821 195.67 178.821L0 178.671Z" fill="url(#paint0_linear_3_4087)"/>
<path d="M227.42 236.711C160.572 288.182 67.3309 287.771 0.939941 235.711L49.5999 212.901C51.0894 212.197 52.5413 211.416 53.9499 210.561L55.0699 209.861C55.4699 209.611 55.8599 209.351 56.2499 209.081C62.389 204.846 67.4203 199.197 70.9199 192.611C74.9199 185.061 76.2399 176.721 76.2999 168.221C76.2999 162.501 75.9899 156.781 75.9299 151.051C75.8899 147.884 75.8566 144.714 75.8299 141.541V141.541L77.8299 142.541L83.0299 145.231L113.3 150.351L144.42 155.651L145.12 179.451L145.36 187.621L145.83 203.491L157.3 208.161L166.3 211.801L227.42 236.711Z" fill="#E18477"/>
<path d="M145.12 179.491C142.45 181.121 139.93 181.881 137.72 181.641C122.93 180.051 94.08 168.461 75.92 147.011C75.92 145.964 75.9 144.914 75.86 143.861C75.86 143.081 75.86 142.311 75.86 141.531L77.86 142.531L83.06 145.221L113.3 150.351L144.42 155.651L145.12 179.491Z" fill="#A76962"/>
<path d="M227.43 236.711C160.582 288.182 67.3409 287.771 0.949951 235.711L49.61 212.901C51.0994 212.197 52.5514 211.416 53.9599 210.561C77.6399 227.971 110.6 239.311 139.02 226.561C147.08 222.941 154.35 216.511 157.31 208.251L166.31 211.891L227.43 236.711Z" fill="#F2D4CF"/>
<circle cx="49.16" cy="108.251" r="17" fill="#E18477"/>
<circle cx="55.16" cy="106.251" r="17" fill="#A76962"/>
<path d="M164.69 82.511C176.44 123.191 151.54 172.351 136.16 172.351C115.16 172.351 64.1601 155.571 52.4201 114.891C40.6801 74.211 56.2901 33.971 87.2901 25.021C118.29 16.071 152.95 41.821 164.69 82.511Z" fill="#E18477"/>
<path d="M129.83 32.971C129.442 34.8697 128.887 36.7303 128.17 38.531C120.65 57.101 109.05 73.111 92.17 84.231C72.17 97.391 52.57 96.811 30.17 100.031C31.44 91.851 34.31 84.031 34.56 75.461C34.96 62.041 37.99 56.921 46.45 47.121C52.75 39.831 61.28 28.691 71.18 26.251C71.35 26.251 129.18 3.25098 129.18 3.25098C129.82 13.241 131.78 23.471 129.83 32.971Z" fill="url(#paint1_linear_3_4087)"/>
<path d="M137.54 75.891C144.605 72.2903 152.778 71.5214 160.39 73.741" stroke="#00214E"/>
<path d="M85.0699 78.791C94.8128 73.8285 106.26 73.462 116.3 77.791" stroke="#00214E"/>
<path d="M134.75 102.851C134.75 102.851 135.04 108.511 136.36 111.161C136.94 112.301 137.82 113.261 138.36 114.391C140.58 118.731 137 119.641 133.55 119.641" stroke="#00214E"/>
<path d="M120.82 112.731C119.327 113.495 118.615 115.233 119.141 116.825C119.668 118.417 121.276 119.388 122.93 119.111" stroke="#00214E"/>
<path d="M104.92 131.861C109.725 137.227 116.312 140.669 123.46 141.551" stroke="#00214E"/>
<ellipse cx="101.546" cy="93.3074" rx="3.27" ry="7.94" transform="rotate(-85.77 101.546 93.3074)" fill="#00214E"/>
<ellipse cx="153.056" cy="91.6897" rx="7.94" ry="3.27" transform="rotate(-8.86 153.056 91.6897)" fill="#00214E"/>
<defs>
<linearGradient id="paint0_linear_3_4087" x1="0" y1="178.842" x2="195.67" y2="178.842" gradientUnits="userSpaceOnUse">
<stop stop-color="#315676"/>
<stop offset="1" stop-color="#E1B9E0"/>
</linearGradient>
<linearGradient id="paint1_linear_3_4087" x1="43.4356" y1="209.208" x2="243.938" y2="86.5991" gradientUnits="userSpaceOnUse">
<stop stop-color="#315676"/>
<stop offset="0.08" stop-color="#375979"/>
<stop offset="0.18" stop-color="#496383"/>
<stop offset="0.2" stop-color="#4D6585"/>
<stop offset="0.29" stop-color="#546989"/>
<stop offset="0.43" stop-color="#677495"/>
<stop offset="0.6" stop-color="#8786A9"/>
<stop offset="0.78" stop-color="#B39FC4"/>
<stop offset="0.95" stop-color="#E1B9E0"/>
</linearGradient>
</defs>
</svg>
