<svg width="237" height="299" viewBox="0 0 237 299" fill="none" xmlns="http://www.w3.org/2000/svg">
<path d="M53.8599 132.72C52.2899 129.6 50.7699 126.44 49.3099 123.27C46.4499 117.07 43.7699 110.72 42.5699 104C38.6799 82.32 49.8899 58.68 65.9799 44.78C88.8799 25.01 121.32 17.54 146.55 0C145.152 8.62191 140.543 16.3956 133.65 21.76C145.46 12.66 180.65 27.65 191.65 33.27C209.889 42.453 225.388 56.2764 236.59 73.35C224.715 68.5225 211.788 66.8683 199.08 68.55C208.96 78.12 219.24 88.33 222.98 101.55C205.25 88.77 176.94 94.92 166.14 113.97C159.21 126.17 159.31 141.03 155.14 154.44C150.74 168.64 138.87 177.66 124.91 181.44C114.39 184.32 93.6899 185.62 84.1599 179.44C81.2699 177.57 79.1599 174.71 77.2199 171.89C68.5083 159.408 60.7017 146.317 53.8599 132.72V132.72Z" fill="#DAAEA8"/>
<circle cx="64.8901" cy="136.69" r="17" fill="#845161"/>
<circle cx="70.75" cy="135.69" r="16" fill="#69303A"/>
<path d="M226.48 259.92C159.632 311.391 66.3909 310.98 0 258.92L48.66 236.11C50.9774 235.021 53.2015 233.743 55.31 232.29C55.95 231.85 56.59 231.39 57.2 230.91C62.4959 226.858 66.8551 221.711 69.98 215.82C73.98 208.27 75.3 199.93 75.36 191.43C75.36 188.62 75.3 185.8 75.22 182.98C75.14 180.16 75.02 177.17 74.99 174.26C74.95 171.093 74.9167 167.923 74.89 164.75L76.89 165.75L82.09 168.44L84.5 168.85L112.38 173.59L143.5 178.89L144.44 210.89L144.83 224.18L144.9 226.43V226.76L157 231.68L226.48 259.92Z" fill="#845161"/>
<path d="M144.81 224.11L143.27 224.27C128.221 225.589 113.351 220.233 102.6 209.62L75.0199 177.11C74.9299 174.21 75.0199 177.11 75.0199 174.2C74.9799 171.033 74.9466 167.863 74.9199 164.69L76.9199 165.69L82.1199 168.38L84.5299 168.79L112.41 173.53L143.53 178.83L144.47 210.83L144.81 224.11Z" fill="#69303A"/>
<path d="M73.55 104.98C70.4313 107.738 68.426 111.539 67.91 115.67C65.82 135.2 73.05 158.25 75.06 177.81L111.48 204.67C123.582 213.71 139.044 216.979 153.77 213.61C159.64 212.22 163.36 211.32 166.01 206.61C171.13 197.61 183.7 166.82 184.52 145.1C184.75 138.93 184.6 129.53 180.8 124.28C178.95 121.73 178 121.67 178.67 118.07C179.36 114.31 180.35 110.59 181.18 106.86C182.386 101.465 182.723 95.9116 182.18 90.41C181.63 85.41 181.65 80.97 181.12 75.88C180.86 73.41 179.76 62.6 179.76 62.6C173.41 72.16 161.95 77.18 151.35 80.48C136.93 84.96 121.92 87.15 107.3 90.91C97.61 93.44 81.94 97.04 73.55 104.98Z" fill="#845161"/>
<path d="M116.76 120.05C122.86 120.1 122.86 129.43 116.76 129.48H116.49C110.38 129.43 110.38 120.1 116.49 120.05H116.76Z" fill="#00214E"/>
<path d="M169.45 117.2C175.12 117.2 175.12 125.9 169.45 125.95H169.2C163.54 125.9 163.54 117.24 169.2 117.2H169.45Z" fill="#00214E"/>
<path d="M121.23 165C126.034 170.367 132.621 173.81 139.77 174.69" stroke="#00214E"/>
<path d="M102.56 108.86C111.817 106.94 121.339 106.67 130.69 108.06" stroke="#DAAEA8"/>
<path d="M161.61 108.92C167.326 107.599 173.216 107.191 179.06 107.71" stroke="#DAAEA8"/>
<path d="M226.48 259.92C159.632 311.391 66.3909 310.98 0 258.92L48.66 236.11C50.9774 235.021 53.2015 233.743 55.31 232.29C55.95 231.85 56.59 231.39 57.2 230.91C80.75 247.67 112.89 258.24 140.69 245.73C147.31 242.73 153.39 237.89 156.99 231.67L226.48 259.92Z" fill="#DE8276"/>
<path d="M133.56 148.17C132.067 148.934 131.354 150.672 131.881 152.264C132.407 153.856 134.016 154.827 135.67 154.55" stroke="#00214E"/>
<path d="M148.97 119.13C151.46 128.68 153.53 138.13 155.9 147.7C156.178 148.578 156.28 149.502 156.2 150.42C155.77 153.17 152.5 154.3 149.78 154.89" stroke="#00214E"/>
</svg>
