<svg width="227" height="272" viewBox="0 0 227 272" fill="none" xmlns="http://www.w3.org/2000/svg">
<path fill-rule="evenodd" clip-rule="evenodd" d="M152.14 12.8673C182.12 32.4273 188.04 68.8273 188.45 102.017C188.623 116.049 188.491 130.019 188.359 143.972C188.102 171.115 187.845 198.189 189.84 225.507C189.7 223.557 158.09 218.867 154.48 218.707C146.89 218.379 139.04 219.092 131.279 219.797C127.454 220.144 123.65 220.489 119.91 220.707C113.387 221.115 106.717 221.279 100.012 221.443C87.1558 221.758 74.1655 222.077 61.81 224.127C59.4141 224.526 57.0498 224.93 54.7048 225.33C42.2902 227.449 30.4183 229.476 17.28 230.207C16.2415 230.388 15.1729 230.178 14.28 229.617C13.28 228.797 13.28 227.317 13.28 226.027C13.28 210.571 13.9724 195.121 14.6643 179.683C15.6416 157.876 16.6178 136.093 15.64 114.347C14.7702 95.8473 17.8378 77.3734 24.64 60.1473C30.4517 45.2925 39.5687 31.9555 51.3 21.1473C54.4849 18.2689 57.9033 15.66 61.52 13.3473C88.39 -3.93268 125.07 -4.79268 152.14 12.8673ZM63.98 87.8373L78.07 97.8373L123.47 52.4473L117.76 48.8373C112.318 58.0606 104.85 65.9255 95.92 71.8373C86.0584 78.6116 75.3107 83.9955 63.98 87.8373Z" fill="#00214E"/>
<path d="M226.48 232.717C159.632 284.189 66.3909 283.777 0 231.717L48.66 208.907C50.1495 208.203 51.6014 207.422 53.01 206.567L54.13 205.867C54.53 205.617 54.92 205.357 55.31 205.087C61.4491 200.852 66.4803 195.203 69.98 188.617C73.98 181.067 75.3 172.727 75.36 164.227C75.36 159.557 75.17 154.887 75.05 150.227C75.05 149.181 75.03 148.131 74.99 147.077C74.95 143.911 74.9167 140.741 74.89 137.567H74.95L76.87 138.567L82.07 141.257L112.36 146.407L143.48 151.707L144.22 176.707L144.39 182.607V183.677L144.86 199.547L156.33 204.217L165.33 207.857L226.48 232.717Z" fill="#F2A196"/>
<path d="M144.22 176.697C142.057 178.183 139.472 178.93 136.85 178.827C122.07 177.237 93.21 165.647 75.07 144.197C75.07 143.151 75.05 142.101 75.01 141.047C75.01 139.887 75.01 138.727 75.01 137.567L76.93 138.567L82.13 141.257L112.42 146.407L143.54 151.707L144.22 176.697Z" fill="#E88870"/>
<circle cx="46.89" cy="105.537" r="17" fill="#F2A196"/>
<circle cx="52.89" cy="103.537" r="17" fill="#E88870"/>
<path d="M165.43 79.7973C177.17 120.477 152.22 169.667 136.89 169.667C115.89 169.667 64.89 152.887 53.16 112.207C41.43 71.5273 57.07 31.2873 88.07 22.3473C119.07 13.4073 153.68 39.1073 165.43 79.7973Z" fill="#F2A196"/>
<path d="M107.37 129.217C112.174 134.585 118.761 138.027 125.91 138.907" stroke="#00214E"/>
<path d="M127.99 84.0773C127.99 84.2773 132.78 92.6373 135.31 101.667C136.479 106.498 137.02 111.459 136.92 116.427H123.41" stroke="#00214E"/>
<path d="M140.4 75.5673C147.465 71.9682 155.636 71.1958 163.25 73.4073" stroke="#00214E"/>
<path d="M81.26 79.5473C91.0029 74.5848 102.45 74.2182 112.49 78.5473" stroke="#00214E"/>
<path d="M98.8 88.4073C104.9 88.4573 104.9 97.7773 98.8 97.8273H98.52C92.42 97.8273 92.42 88.4573 98.52 88.4073H98.8Z" fill="#00214E"/>
<path d="M148.92 87.0173C154.59 87.0173 154.59 95.7173 148.92 95.7573H148.67C143.01 95.7573 143.01 87.0573 148.67 87.0173H148.92Z" fill="#00214E"/>
<path d="M129 11.6673C128.535 16.3766 127.777 21.0524 126.73 25.6673C124.941 33.8112 121.905 41.63 117.73 48.8473C112.288 58.0706 104.82 65.9355 95.89 71.8473C86.0283 78.6217 75.2807 84.0056 63.95 87.8473C55.11 90.9273 45.95 91.1973 36.49 93.0773C36.8 85.4473 36.49 78.0073 37.43 69.1473C38.13 62.7873 39.53 56.7173 42.35 51.8273C50.0013 38.8885 61.1624 28.3827 74.54 21.5273L74.66 21.4673C89.45 13.8573 112.36 6.34734 129 11.6673Z" fill="#00214E"/>
<circle cx="49.39" cy="105.497" r="6.01" fill="#F2D4CF"/>
<path d="M37.99 119.967C37.62 119.907 37.24 119.837 36.86 119.747C29.6417 118.088 24.8221 111.27 25.6647 103.912C26.5074 96.5534 32.7434 91.0022 40.15 91.0173V91.0173C40.576 91.016 40.9472 91.3073 41.0472 91.7214C41.1471 92.1356 40.9497 92.5641 40.57 92.7573C36.1545 95.1353 33.2749 99.6195 32.9497 104.624C32.6245 109.629 34.8995 114.448 38.97 117.377C39.5028 117.753 39.7139 118.442 39.4831 119.052C39.2524 119.662 38.6382 120.038 37.99 119.967V119.967Z" fill="#F2D4CF"/>
<path d="M37.67 92.5973C39.7417 91.8074 42.036 91.8324 44.09 92.6673C46.2703 93.6365 47.9355 95.4872 48.67 97.7573C49.2374 99.3602 49.4821 101.06 49.39 102.757" stroke="#F2D4CF" stroke-width="2"/>
<path d="M226.48 232.717C159.632 284.189 66.3909 283.777 0 231.717L48.66 208.907C50.9774 207.818 53.2015 206.54 55.31 205.087C55.95 204.647 56.59 204.187 57.2 203.707C62.4959 199.655 66.8551 194.508 69.98 188.617C72.3425 184.091 73.9118 179.194 74.62 174.137C75.3262 174.822 76.0672 175.469 76.84 176.077C82.971 180.615 89.6255 184.399 96.66 187.347C100.075 188.772 103.567 190.004 107.12 191.037C117.824 194.159 129 195.34 140.12 194.527C141.66 194.407 143.21 194.257 144.75 194.147L144.9 199.227V199.557L157 204.477L226.48 232.717Z" fill="#F2D4CF"/>
<path d="M117.71 48.8873C112.268 58.1105 104.8 65.9755 95.87 71.8873C86.0083 78.6616 75.2607 84.0455 63.93 87.8873L37.41 69.1873L24.64 60.1873C30.4517 45.3325 39.5687 31.9955 51.3 21.1873C54.4834 18.2951 57.9018 15.6727 61.52 13.3473L74.52 21.5673L117.71 48.8873Z" fill="url(#paint0_linear_3_3599)"/>
<defs>
<linearGradient id="paint0_linear_3_3599" x1="87.0619" y1="115.947" x2="127.271" y2="32.5144" gradientUnits="userSpaceOnUse">
<stop offset="0.29" stop-color="#00214E"/>
<stop offset="0.51" stop-color="#6878B1"/>
<stop offset="0.79" stop-color="#00214E"/>
</linearGradient>
</defs>
</svg>
