<svg width="227" height="284" viewBox="0 0 227 284" fill="none" xmlns="http://www.w3.org/2000/svg">
<path d="M60.9201 140.745C40.7901 108.905 27.5701 51.1247 63.4301 24.1447C86.0036 7.25502 113.761 -1.23244 141.92 0.144689C149.92 0.574689 158.21 1.91469 164.99 6.25469C171.77 10.5947 176.72 18.5347 175.54 26.4947C174.36 34.4547 172.95 36.6147 180.07 39.9747C186.383 42.967 192.047 47.1699 196.74 52.3447C202.15 58.3447 205.96 66.1947 205.4 74.2347C204.72 83.9247 197.92 92.7847 198.93 102.455C199.69 109.655 204.63 115.615 207.71 122.165C211.047 129.029 211.977 136.817 210.35 144.275C205.43 164.645 185.73 162.345 169.05 163.975L134.59 167.345C125.31 168.255 115.98 167.545 106.68 168.975C98.6201 170.215 89.8301 172.865 82.4101 167.905C80.1585 166.255 78.1606 164.284 76.4801 162.055C70.8486 155.287 65.6515 148.17 60.9201 140.745V140.745Z" fill="url(#paint0_linear_3_4544)"/>
<path d="M226.48 244.775C159.632 296.246 66.3909 295.834 0 243.775L48.66 220.965C50.9774 219.875 53.2015 218.598 55.31 217.145C55.95 216.705 56.59 216.245 57.2 215.765C62.4959 211.713 66.8551 206.565 69.98 200.675C72.3425 196.148 73.9118 191.251 74.62 186.195C75.1084 182.914 75.3557 179.602 75.36 176.285C75.36 170.565 75.05 164.845 74.99 159.115C74.95 155.948 74.9167 152.778 74.89 149.605L76.89 150.605L82.07 153.345L84.48 153.755L112.36 158.495L143.48 163.795L144.42 195.795L144.73 206.255L144.88 211.335V211.665L156.98 216.585L226.48 244.775Z" fill="#845161"/>
<path d="M144.78 209.215C141.343 209.806 137.807 209.258 134.71 207.655L75.0696 158.885C74.9996 156.625 74.9396 158.985 74.9096 156.725C74.8696 153.558 74.8362 150.388 74.8096 147.215L76.8096 148.215L82.0096 150.905L84.4196 151.315L112.3 156.055L143.37 161.345L144.31 193.345L144.62 203.805L144.77 208.885V209.215H144.78Z" fill="#69303A"/>
<path d="M226.48 244.775C159.632 296.246 66.3909 295.834 0 243.775L48.66 220.965C50.9774 219.875 53.2015 218.598 55.31 217.145C55.95 216.705 56.59 216.245 57.2 215.765C80.75 232.525 112.89 243.095 140.69 230.585C147.31 227.585 153.39 222.745 156.99 216.525L226.48 244.775Z" fill="#F2A196"/>
<circle cx="63.7803" cy="123.505" r="17" fill="#845161"/>
<circle cx="69.1702" cy="123.325" r="15.22" fill="#69303A"/>
<path d="M68.8398 107.275L75.1898 164.135C75.3498 165.605 86.0998 170.025 87.3798 170.705C101.78 178.475 116.58 188.705 132.98 191.545C139.98 192.735 147.31 192.685 153.98 190.235C165.75 185.885 167.44 177.075 171.59 166.745C175.33 157.437 178.3 147.838 180.47 138.045C181.47 133.515 182.63 128.805 182.79 124.155C182.98 118.635 181.79 112.215 177.89 108.105C176.98 107.155 176.02 106.015 176.2 104.605C177.82 92.3047 180.31 78.3947 175.08 66.6847C171.69 59.0747 166.08 52.6847 159.96 47.0047C159.96 47.0047 112.3 81.9047 107.96 84.3347C97.6698 90.0947 68.8398 107.275 68.8398 107.275Z" fill="#845161"/>
<path d="M148.78 113.775C150.348 117.319 152.314 120.674 154.64 123.775C156.55 126.095 158.85 127.555 158.88 130.955C158.94 135.895 154.29 138.765 149.72 138.535" stroke="#00214E"/>
<path d="M121.82 151.495C126.817 156.675 133.52 159.872 140.69 160.495" stroke="#00214E"/>
<path d="M101.22 96.0247C110.407 93.7924 119.916 93.1966 129.31 94.2647" stroke="#00214E"/>
<path d="M160.24 94.0947C165.908 92.5752 171.781 91.9642 177.64 92.2847" stroke="#00214E"/>
<path d="M133.56 132.975C132.082 133.784 131.419 135.554 132.003 137.135C132.587 138.716 134.24 139.63 135.89 139.285" stroke="#00214E"/>
<path d="M116.97 103.125C123.07 102.965 123.4 112.285 117.3 112.545H117.07C110.97 112.705 110.64 103.385 116.74 103.125H117.01H116.97Z" fill="#00214E"/>
<path d="M167.21 101.345C172.87 101.205 173.21 109.845 167.51 110.095H167.25C161.59 110.245 161.25 101.595 166.95 101.355H167.21V101.345Z" fill="#00214E"/>
<defs>
<linearGradient id="paint0_linear_3_4544" x1="43.863" y1="172.882" x2="211.854" y2="167.881" gradientUnits="userSpaceOnUse">
<stop stop-color="#315676"/>
<stop offset="1" stop-color="#E1B9E0"/>
</linearGradient>
</defs>
</svg>
