<svg width="340" height="340" viewBox="0 0 340 340" fill="none" xmlns="http://www.w3.org/2000/svg">
<path d="M185.22 233.031C150.56 233.201 122.94 229.331 89.43 220.481C76.43 217.051 45 205.121 45 205.121C62.57 171.221 78.35 136.521 93.15 101.331C103.24 77.3307 116.51 48.8907 142.49 39.0507C184.55 23.1207 241.37 38.6107 253.33 85.9307C258.82 107.681 257.33 131.381 258.07 153.621C258.87 177.331 259.26 201.071 261.64 224.691C238.86 233.121 209.32 232.921 185.22 233.031Z" fill="#F2D4CF"/>
<path d="M295.21 268.591C228.362 320.062 135.121 319.65 68.73 267.591L117.39 244.781C118.879 244.076 120.331 243.295 121.74 242.441L122.86 241.741C123.26 241.491 123.65 241.231 124.04 240.961C130.179 236.726 135.21 231.077 138.71 224.491C142.71 216.941 144.03 208.601 144.09 200.101C144.09 194.381 143.78 188.661 143.72 182.931C143.68 179.764 143.647 176.594 143.62 173.421L145.62 174.421L150.82 177.111L181.09 182.291L212.21 187.591L213.15 219.591L213.62 235.461L225.09 240.131L234.09 243.771L295.21 268.591Z" fill="#F2A196"/>
<path d="M213.15 219.541C203.09 221.327 192.741 220.518 183.08 217.191C161.5 209.941 146.97 192.451 145.6 174.431L150.8 177.121L181.09 182.291L212.21 187.591L213.15 219.541Z" fill="#E88870"/>
<circle cx="114.62" cy="141.411" r="17" fill="#F2A196"/>
<circle cx="120.62" cy="139.411" r="17" fill="#E88870"/>
<path d="M237.53 114.631C249.98 157.771 225.74 207.881 207.27 209.931C162.63 214.931 130.93 192.141 118.47 149.001C106.01 105.861 122.57 63.1808 155.47 53.6908C188.37 44.2008 225.07 71.4808 237.53 114.631Z" fill="#F2A196"/>
<circle cx="170.98" cy="130.911" r="19" stroke="white"/>
<circle cx="224.12" cy="127.911" r="19" stroke="white"/>
<path d="M195.45 61.5807C191.14 80.2807 181.75 96.1607 164.59 107.721C146.07 120.551 124.78 122.361 103.46 126.581C104 113.471 104.29 99.4307 111.05 87.7407C118.722 74.7609 129.928 64.2312 143.36 57.3807C158.17 49.7307 181.08 42.2307 197.72 47.5307C197.256 52.2567 196.498 56.9492 195.45 61.5807V61.5807Z" fill="#F2D4CF"/>
<path d="M197.2 119.571C197.12 119.911 206.99 158.411 206.99 158.411H194.49" stroke="#00214E"/>
<path d="M208.65 109.351C215.715 105.751 223.887 104.982 231.5 107.201" stroke="#00214E"/>
<path d="M153.54 113.051C163.283 108.09 174.729 107.723 184.77 112.051" stroke="#00214E"/>
<path d="M189.98 130.911L205.12 129.621" stroke="white"/>
<path d="M295.21 268.591C228.362 320.062 135.121 319.65 68.73 267.591L117.39 244.781C119.707 243.691 121.931 242.414 124.04 240.961C124.68 240.521 125.32 240.061 125.93 239.581C131.226 235.529 135.585 230.381 138.71 224.491C141.072 219.965 142.642 215.067 143.35 210.011C144.056 210.695 144.797 211.343 145.57 211.951C151.702 216.485 158.356 220.265 165.39 223.211C168.808 224.632 172.304 225.861 175.86 226.891C186.564 230.012 197.74 231.194 208.86 230.381C210.4 230.261 211.95 230.111 213.49 230.001L213.64 235.081V235.411L225.74 240.331L295.21 268.591Z" fill="#00214E"/>
<path d="M167.19 139.581C169.987 139.761 172.737 138.798 174.81 136.913C176.884 135.028 178.104 132.382 178.19 129.581" stroke="#00214E"/>
<path d="M211.06 127.391C211.115 130.025 212.321 132.503 214.36 134.171C216.378 135.82 218.625 137.167 221.03 138.171" stroke="#00214E"/>
<path d="M160.14 169.651C161.381 167.561 162.917 165.662 164.7 164.011C168.372 160.637 172.982 158.457 177.92 157.761" stroke="#00214E"/>
<path d="M185.86 90.1707H209.52" stroke="#00214E"/>
<path d="M180.08 97.9907H209.52" stroke="#00214E"/>
<path d="M171.2 168.411C171.478 167.973 171.926 167.67 172.436 167.576C172.946 167.481 173.473 167.602 173.89 167.911C175.96 169.371 179.77 172.471 185.16 173.551C192.52 175.011 198.91 172.071 200.44 173.971C201.29 175.041 200.24 176.341 198.23 177.971C193.976 181.145 188.623 182.471 183.38 181.651C176.29 180.331 170.98 172.121 170.98 169.221C170.99 168.937 171.065 168.66 171.2 168.411V168.411Z" fill="white"/>
<path d="M169.86 124.011C175.96 123.951 176.14 133.271 170.04 133.441H169.86C163.75 133.511 163.57 124.191 169.67 124.021H169.86V124.011Z" fill="#00214E"/>
<path d="M220.13 122.381C225.8 122.311 225.96 130.971 220.3 131.121H220.05C214.39 131.181 214.22 122.531 219.88 122.371H220.13V122.381Z" fill="#00214E"/>
</svg>
