<svg width="227" height="278" viewBox="0 0 227 278" fill="none" xmlns="http://www.w3.org/2000/svg">
<path d="M200.3 233.241C198.3 167.131 195.52 97.8509 162.12 40.7609C153.92 26.7609 140.98 12.3109 124.83 13.8209C105.95 15.5809 96.5702 37.0609 91.0702 55.2009C82.8902 82.0909 74.6902 109.001 67.8402 136.271C62.8902 156.001 49.2002 189.841 56.6802 210.271C70.0002 246.601 168.97 234.341 200.3 233.241Z" fill="#DAAEA8"/>
<circle cx="57.54" cy="117.681" r="17" fill="#F2A196"/>
<circle cx="63.3701" cy="116.531" r="16" fill="#E88870"/>
<path d="M226.48 238.701C159.632 290.172 66.3909 289.761 0 237.701L48.66 214.891C50.9774 213.802 53.2015 212.524 55.31 211.071L56.42 210.291L57.2 209.691C62.4959 205.639 66.8551 200.492 69.98 194.601C73.98 187.051 75.3 178.711 75.36 170.211C75.36 167.341 75.3 164.471 75.21 161.601C75.12 158.731 75.02 155.901 74.99 153.041C74.95 149.874 74.9167 146.704 74.89 143.531L76.73 144.481L76.87 144.551L82.07 147.241L84.48 147.651L112.36 152.341L123.41 154.221L143.48 157.641L144.42 189.641L144.81 202.941L144.88 205.181V205.511L156.98 210.431L157.73 210.741L226.48 238.701Z" fill="#F2A196"/>
<path d="M75.2102 159.341L108.07 190.161C118.19 199.056 131.385 203.646 144.84 202.951L144.45 189.651L143.51 157.651L123.44 154.231C120.7 155.471 117.96 156.711 115.22 157.791C107.02 161.021 97.7502 159.791 89.8002 156.431C83.8766 153.805 78.7483 149.666 74.9302 144.431L75.2102 159.341Z" fill="#E88870"/>
<path d="M226.48 238.701C159.632 290.172 66.3909 289.761 0 237.701L48.66 214.891C50.9774 213.802 53.2015 212.524 55.31 211.071L56.42 210.291C80.78 226.901 113.24 236.951 141.42 224.291C148.033 221.433 153.691 216.746 157.73 210.781L226.48 238.701Z" fill="#F2D4CF"/>
<path d="M177.35 123.101C177.102 130.412 176.097 137.677 174.35 144.781C170.47 161.781 163.76 178.711 160.35 185.061C157.8 189.801 154.12 190.791 148.29 192.331C133.651 196.072 118.109 193.194 105.78 184.461L68.6898 158.531C68.0598 153.531 67.0598 148.321 65.9698 143.001C62.7998 127.531 58.7798 111.161 59.9698 96.6009C60.3725 92.4549 62.2834 88.6011 65.3398 85.7709C73.5098 77.6209 89.0898 73.6209 98.7098 70.8909C113.23 66.7609 128.19 64.1909 142.48 59.3409C153.01 55.7809 164.33 50.4709 170.48 40.7509C170.48 40.7509 171.86 51.5309 172.17 53.9909C172.83 59.0709 172.93 63.4809 173.61 68.4909C174.286 73.9779 174.083 79.5376 173.01 84.9609C172.28 88.7109 171.39 92.4509 170.79 96.2309C170.21 99.8509 171.16 99.8809 173.07 102.381C177.07 107.531 177.42 116.931 177.35 123.101Z" fill="#F2A196"/>
<path d="M109.76 96.491C115.86 96.381 116.09 105.701 110 105.911H109.72C103.62 106.011 103.38 96.691 109.48 96.481H109.76V96.491Z" fill="#00214E"/>
<path d="M159.83 93.8309C165.49 93.7309 165.71 102.381 160.05 102.571H159.8C154.14 102.661 153.92 94.0109 159.58 93.8209H159.83V93.8309Z" fill="#00214E"/>
<path d="M141.68 99.7009C141.68 99.9009 146.68 108.131 149.44 117.101C150.737 121.894 151.409 126.835 151.44 131.801L137.93 132.151" stroke="#00214E"/>
<path d="M174.39 144.781C170.51 161.781 163.8 178.711 160.39 185.061C157.84 189.801 154.16 190.791 148.33 192.331C133.692 196.072 118.149 193.194 105.82 184.461L68.73 158.531C67.99 152.671 65.73 147.081 64.34 141.321C63.73 138.701 63.18 135.981 63.78 133.321C63.9855 134.707 64.6141 135.996 65.58 137.011C70.46 143.311 76.16 150.411 84.09 152.851C92.35 155.391 101.7 155.591 109.51 151.511C116.31 147.961 122.95 143.381 130.07 140.411C134.789 138.32 139.91 137.296 145.07 137.411C152.42 137.731 155.65 140.961 161.13 145.191C162.92 146.581 164.93 148.031 167.21 147.991C169.81 147.971 172.27 146.491 174.39 144.781Z" fill="#00214E"/>
<path d="M127.96 151.341C134.891 153.305 142.3 152.687 148.81 149.601" stroke="#F2A196"/>
<path d="M94.4902 88.9109C103.696 86.7614 113.208 86.2503 122.59 87.4009" stroke="#00214E"/>
<path d="M153.52 87.5209C159.202 86.0496 165.083 85.4926 170.94 85.8709" stroke="#00214E"/>
<path d="M126.47 127.421C124.982 128.217 124.303 129.984 124.875 131.571C125.447 133.158 127.096 134.086 128.75 133.751" stroke="#00214E"/>
<path d="M65.0298 143.081L66.0298 143.001L66.7098 143.761L69.2098 157.521L68.7298 157.711L67.9898 156.741L65.0298 143.081V143.081Z" fill="#00214E"/>
<path d="M89.51 123.591C84.16 146.651 71.19 241.471 70.51 265.071C70.7 258.071 15.93 247.961 11.25 241.071C11.25 241.071 45.58 74.1909 46.56 58.8309C46.64 57.5709 49.56 45.3309 51.27 42.2009C80.14 -9.53908 149.57 -14.4591 182.82 31.6309C183.49 32.5609 185.08 39.4109 185.71 40.3609C187.56 43.1409 188.92 45.9209 190.52 48.6909C200.34 65.6909 201.12 89.9409 201.92 109.431C202.92 133.841 215.86 236.891 215.86 236.891C215.86 236.891 181.74 246.891 181.46 246.951C181.46 246.951 182.74 125.371 181.7 112.821C180.7 100.821 178.27 85.2709 171.94 74.8209C166.94 66.6009 128.07 68.2109 117.43 71.6409C102.9 76.3209 97.25 88.8809 93.88 104.231C92.46 110.711 91.0033 117.164 89.51 123.591Z" fill="#F2D4CF"/>
<path d="M48.5 39.7509C73.7747 46.4585 99.9891 48.9153 126.07 47.0209C146.831 45.7105 167.321 41.6138 186.99 34.8409" stroke="#00214E" stroke-width="3" stroke-linecap="round"/>
<path d="M45.1699 49.3409C72.1254 56.5226 100.078 59.2252 127.91 57.3409C149.575 55.9883 170.958 51.7163 191.48 44.6409" stroke="#00214E" stroke-width="3" stroke-linecap="round"/>
</svg>
