<svg width="227" height="273" viewBox="0 0 227 273" fill="none" xmlns="http://www.w3.org/2000/svg">
<path d="M180.41 113.913C178.855 115.539 177.151 117.015 175.32 118.323C164.92 125.853 151.04 128.323 139.18 132.383C134.18 134.093 79.9598 149.503 79.9598 152.853C79.9598 152.123 74.6498 146.853 67.9598 140.453C44.8644 118.367 37.1478 84.6446 48.3398 54.7125C59.2498 26.0425 94.0298 6.28254 123.16 1.71254C137.05 -0.447459 153.51 -1.65746 166.34 4.97254C172.89 8.38254 178.39 13.3525 183.34 18.8625C184.9 20.6025 186.413 22.3792 187.88 24.1925C188.51 24.9525 189.13 25.7125 189.74 26.4825C212.53 55.0925 204.46 88.6425 180.41 113.913Z" fill="url(#paint0_linear_3_4216)"/>
<path d="M180.41 113.913C178.855 115.539 177.151 117.015 175.32 118.323C174.893 117.578 174.509 116.811 174.17 116.023C171.53 110.023 170.17 103.513 169.17 97.0225C167.619 87.574 166.561 78.0511 166 68.4925C165.09 53.1525 158.54 45.4925 171.57 33.5825C176.259 29.2851 181.843 26.0815 187.92 24.2025C188.55 24.9625 189.17 25.7225 189.78 26.4925C212.53 55.0925 204.46 88.6425 180.41 113.913Z" fill="url(#paint1_linear_3_4216)"/>
<path d="M226.48 234.273C159.632 285.744 66.3909 285.332 0 233.273L48.66 210.463C50.9774 209.373 53.2015 208.096 55.31 206.643C55.95 206.203 56.59 205.743 57.2 205.263C62.4959 201.21 66.8551 196.063 69.98 190.173C72.3425 185.646 73.9118 180.749 74.62 175.693C75.1084 172.412 75.3557 169.1 75.36 165.783C75.36 160.063 75.05 154.343 74.99 148.613C74.95 145.446 74.9167 142.276 74.89 139.103L76.89 140.103L82.09 142.793L84.5 143.203L112.34 147.973L143.46 153.273L144.4 185.273L144.71 195.733L144.86 200.813V201.143L156.96 206.063L226.48 234.273Z" fill="#E18477"/>
<path d="M226.48 234.273C159.632 285.744 66.3909 285.332 0 233.273L48.66 210.463C50.9774 209.373 53.2015 208.096 55.31 206.643C55.95 206.203 56.59 205.743 57.2 205.263C80.75 222.023 112.89 232.593 140.69 220.083C147.31 217.083 153.39 212.243 156.99 206.023L226.48 234.273Z" fill="url(#paint2_linear_3_4216)"/>
<path d="M144.87 200.763C134.42 201.393 122.74 198.693 111.87 192.423C91.4601 180.633 80.5501 160.073 84.4701 143.213L112.34 147.973L143.46 153.273L144.4 185.273L144.87 200.763Z" fill="#A76962"/>
<circle cx="65.0498" cy="111.093" r="17" fill="#E18477"/>
<circle cx="70.4402" cy="111.093" r="15.22" fill="#A76962"/>
<path d="M71.0599 95.9726C71.2799 98.5726 71.1399 101.173 71.3399 103.783C71.8933 110.943 72.4399 118.103 72.9799 125.263L74.4999 144.973C75.0599 152.233 77.8899 156.583 82.6199 162.393C91.0248 172.702 101.732 180.895 113.88 186.313C125.47 191.483 141.56 196.633 153.93 191.613C166.58 186.483 170.62 172.283 174.88 160.503C179.14 148.723 183.09 135.773 182.88 123.053C182.61 105.793 178.04 96.1126 178.04 96.1126C179.14 89.4459 180.247 82.7993 181.36 76.1726C182.61 68.6626 184.22 60.8226 182.36 53.2726C181.01 47.7626 177.36 43.9326 173.58 39.9826C168.89 35.1526 166.58 35.3226 159.94 37.2026C148.411 40.5653 138.341 47.6949 131.34 57.4526C124.34 67.1126 120.24 79.1026 111 86.6326C104.65 91.8126 96.7599 93.9526 88.7299 94.6326C85.8197 94.9809 82.8825 95.0445 79.9599 94.8226C77.0054 94.7295 74.0479 94.8464 71.1099 95.1726H70.9399C71.0099 95.4026 71.0399 95.6726 71.0599 95.9726Z" fill="#E18477"/>
<path d="M99.1699 88.3426C108.427 86.4279 117.949 86.1572 127.3 87.5426" stroke="#00214E"/>
<path d="M161.76 87.3925C167.478 86.0617 173.372 85.6532 179.22 86.1825" stroke="#00214E"/>
<path d="M108 148.222C111.701 142.138 116.968 137.158 123.25 133.802" stroke="#00214E"/>
<path d="M127.27 71.1526H158.88" stroke="#00214E"/>
<path d="M123.25 77.6825H154.85" stroke="#00214E"/>
<path d="M126.48 105.073C125.971 109.199 123.304 112.742 119.48 114.373C117.416 115.12 115.259 115.581 113.07 115.743" stroke="#00214E"/>
<path d="M159.34 102.792C160.29 105.321 161.532 107.731 163.04 109.972C164.541 112.045 166.77 113.474 169.28 113.972" stroke="#00214E"/>
<path d="M155.96 124.163C156.43 124.913 156.86 125.673 157.26 126.463C157.707 127.209 158.009 128.034 158.15 128.893C158.165 129.509 157.903 130.099 157.436 130.502C156.97 130.905 156.347 131.077 155.74 130.973C155.12 130.843 154.85 131.803 155.48 131.973C156.287 132.131 157.125 131.962 157.808 131.502C158.491 131.043 158.963 130.33 159.12 129.523C159.185 128.491 158.941 127.464 158.42 126.573C157.946 125.565 157.412 124.586 156.82 123.643C156.48 123.103 155.61 123.643 155.96 124.153V124.163Z" fill="#00214E"/>
<path d="M139.24 125.333C138.39 126.693 137.39 128.393 137.87 130.063C138.27 131.423 139.71 132.683 141.18 132.153C141.78 131.933 141.52 130.963 140.92 131.153C139.87 131.533 138.92 130.473 138.78 129.513C138.56 128.193 139.44 126.863 140.11 125.803C140.45 125.253 139.58 124.753 139.24 125.303V125.333Z" fill="#00214E"/>
<path d="M120.05 144.743C120.326 144.302 120.774 143.998 121.285 143.903C121.797 143.808 122.324 143.931 122.74 144.243C124.81 145.703 128.62 148.803 134.02 149.873C141.38 151.343 147.76 148.393 149.29 150.293C150.15 151.363 149.1 152.663 147.08 154.343C142.826 157.516 137.475 158.846 132.23 158.033C125.15 156.703 119.83 148.503 119.83 145.593C119.83 145.295 119.906 145.003 120.05 144.743V144.743Z" fill="white"/>
<ellipse cx="117.356" cy="103.647" rx="3.27" ry="7.94" transform="rotate(-85.77 117.356 103.647)" fill="#00214E"/>
<ellipse cx="168.859" cy="102.011" rx="7.94" ry="3.27" transform="rotate(-8.86 168.859 102.011)" fill="#00214E"/>
<defs>
<linearGradient id="paint0_linear_3_4216" x1="43.2598" y1="152.869" x2="203.24" y2="152.869" gradientUnits="userSpaceOnUse">
<stop stop-color="#16243F"/>
<stop offset="1" stop-color="#6878B1"/>
</linearGradient>
<linearGradient id="paint1_linear_3_4216" x1="137.489" y1="86.1079" x2="204.555" y2="105.116" gradientUnits="userSpaceOnUse">
<stop stop-color="#16243F"/>
<stop offset="1" stop-color="#6878B1"/>
</linearGradient>
<linearGradient id="paint2_linear_3_4216" x1="0" y1="272.591" x2="226.48" y2="272.591" gradientUnits="userSpaceOnUse">
<stop stop-color="#16243F"/>
<stop offset="1" stop-color="#6878B1"/>
</linearGradient>
</defs>
</svg>
