<svg width="227" height="287" viewBox="0 0 227 287" fill="none" xmlns="http://www.w3.org/2000/svg">
<path d="M208.84 91.88C208.84 99.76 199.94 106.36 198 113.62C196 121.13 200.34 131.28 196.53 137.86C192.72 144.44 181.67 145.86 176.25 151.24C170.83 156.62 169.55 167.66 162.88 171.52C156.21 175.38 146.18 171 138.63 173C131.37 174.94 124.77 183.84 116.9 183.84C109.03 183.84 102.43 174.92 95.18 173C87.67 171 77.52 175.34 70.94 171.54C64.36 167.74 62.94 156.67 57.57 151.26C52.2 145.85 41.15 144.55 37.29 137.88C33.43 131.21 37.83 121.15 35.82 113.64C33.88 106.38 24.98 99.78 24.98 91.9C24.98 84.02 33.88 77.43 35.82 70.17C37.82 62.66 33.48 52.5 37.29 45.93C41.1 39.36 52.18 38 57.55 32.53C62.92 27.06 64.25 16.11 70.92 12.25C77.59 8.39 87.65 12.79 95.17 10.79C102.43 8.84 109.03 0 116.9 0C124.77 0 131.37 8.89 138.63 10.84C146.15 12.84 156.3 8.5 162.88 12.3C169.46 16.1 170.88 27.17 176.25 32.58C181.62 37.99 192.67 39.28 196.53 45.96C200.39 52.64 195.99 62.69 198 70.2C199.94 77.41 208.84 84 208.84 91.88Z" fill="url(#paint0_linear_3_4196)"/>
<path d="M226.48 248C159.632 299.471 66.3909 299.06 0 247L48.66 224.19C50.9774 223.101 53.2015 221.823 55.31 220.37C55.95 219.93 56.59 219.47 57.2 218.99C62.4959 214.938 66.8551 209.791 69.98 203.9C72.3425 199.374 73.9118 194.476 74.62 189.42C75.1084 186.139 75.3557 182.827 75.36 179.51C75.36 173.79 75.05 168.07 74.99 162.34C74.95 159.167 74.9167 155.997 74.89 152.83L76.89 153.83L82.09 156.52L84.5 156.93L112.38 161.67L143.48 167L144.42 199L144.73 209.46L144.88 214.54V214.87L156.98 219.79L226.48 248Z" fill="#E18477"/>
<path d="M226.48 248C159.632 299.471 66.3909 299.06 0 247L48.66 224.19C50.9774 223.101 53.2015 221.823 55.31 220.37C55.95 219.93 56.59 219.47 57.2 218.99C80.75 235.75 112.89 246.32 140.69 233.81C147.31 230.81 153.39 225.97 156.99 219.75L226.48 248Z" fill="#845161"/>
<path d="M144.87 214.52C134.42 215.15 122.74 212.45 111.87 206.18C91.4601 194.39 80.5501 173.83 84.4701 156.97L112.35 161.71L143.47 167.01L144.41 199.01L144.87 214.52Z" fill="#A76962"/>
<circle cx="65.0498" cy="124.85" r="17" fill="#E18477"/>
<circle cx="70.4402" cy="124.85" r="15.22" fill="#A76962"/>
<path d="M71.06 109.69C71.28 112.29 71.14 114.89 71.34 117.5L72.99 139L74.5 158.72C75.06 165.99 77.89 170.34 82.62 176.15C91.0288 186.455 101.735 194.648 113.88 200.07C125.47 205.24 141.56 210.38 153.93 205.37C166.58 200.24 170.62 186.04 174.88 174.26C179.14 162.48 183.09 149.52 182.88 136.8C182.61 119.54 178.04 109.87 178.04 109.87C179.14 103.203 180.247 96.5567 181.36 89.93C182.61 82.42 184.22 74.57 182.36 67.02C181.59 63.9 179.44 58.85 177.12 56.62C175.67 55.23 173.37 54.5 171.59 55.44C170.29 56.12 169.59 57.51 168.59 58.63C166.247 61.2629 162.657 62.4124 159.22 61.63C154.69 60.56 149.94 54.42 145.07 55.87C140.2 57.32 140.18 64.06 139.74 68C139.326 72.5834 137.609 76.9523 134.79 80.59C131.91 84.2319 127.533 86.3692 122.89 86.4C119.58 86.3 116.45 84.92 113.19 84.3C109.93 83.68 106.09 84.03 104.03 86.63C100.88 90.63 103.86 96.53 102.54 101.4C101.22 106.27 95.54 109.09 90.4 109.4C83.95 109.84 77.63 108.15 71.15 108.84H70.98C71.01 109.16 71.04 109.42 71.06 109.69Z" fill="#E18477"/>
<path d="M99.1802 102.1C108.437 100.18 117.959 99.9096 127.31 101.3" stroke="#00214E"/>
<path d="M161.76 101.14C167.467 99.8233 173.346 99.415 179.18 99.93" stroke="#00214E"/>
<path d="M108 162C111.698 155.913 116.966 150.932 123.25 147.58" stroke="#00214E"/>
<path d="M125.91 117.3C125.422 121.432 122.748 124.982 118.91 126.59C116.844 127.345 114.684 127.81 112.49 127.97" stroke="#00214E"/>
<path d="M127.27 84.91H158.88" stroke="#00214E"/>
<path d="M123.25 91.4399H154.85" stroke="#00214E"/>
<path d="M158.73 115C159.688 117.549 160.943 119.975 162.47 122.23C163.972 124.306 166.206 125.735 168.72 126.23" stroke="#00214E"/>
<path d="M120.06 158.5C120.333 158.059 120.778 157.752 121.288 157.655C121.797 157.558 122.324 157.68 122.74 157.99C124.81 159.46 128.62 162.55 134.02 163.63C141.38 165.09 147.76 162.15 149.29 164.05C150.15 165.12 149.1 166.42 147.09 168.05C142.833 171.225 137.477 172.551 132.23 171.73C125.15 170.41 119.83 162.2 119.83 159.3C119.838 159.018 119.917 158.743 120.06 158.5V158.5Z" fill="white"/>
<path d="M149.54 112.15C149.82 116.034 150.49 119.88 151.54 123.63C152.54 126.94 154.06 129 156.06 131.85C156.754 132.789 157.353 133.794 157.85 134.85C160.5 140.79 156.99 147.37 150.31 147.37H146.18" stroke="#00214E"/>
<path d="M132.84 140.34C131.361 141.114 130.66 142.845 131.183 144.43C131.707 146.016 133.301 146.989 134.95 146.73" stroke="#00214E"/>
<path d="M118.18 112C124.28 111.93 124.46 121.25 118.36 121.42H118.09C111.99 121.49 111.81 112.17 117.91 112H118.18Z" fill="#00214E"/>
<path d="M168.41 110.36C174.07 110.3 174.24 118.95 168.58 119.1H168.32C162.66 119.16 162.49 110.51 168.16 110.35H168.41V110.36Z" fill="#00214E"/>
<defs>
<linearGradient id="paint0_linear_3_4196" x1="24.96" y1="183.81" x2="208.84" y2="183.81" gradientUnits="userSpaceOnUse">
<stop stop-color="#16243F"/>
<stop offset="1" stop-color="#6878B1"/>
</linearGradient>
</defs>
</svg>
