<svg width="234" height="318" viewBox="0 0 234 318" fill="none" xmlns="http://www.w3.org/2000/svg">
<path d="M209.659 109.229C209.379 115.969 200.559 121.409 199.029 127.719C197.459 134.229 202.769 143.099 200.029 149.029C197.289 154.959 187.029 156.719 183.099 162.029C179.169 167.339 180.699 177.619 175.839 182.089C170.979 186.559 160.899 184.179 155.249 187.629C149.599 191.079 147.129 201.119 140.879 203.399C134.629 205.679 126.339 199.609 119.729 200.629C113.309 201.629 107.149 209.949 100.409 209.629C93.669 209.309 88.229 200.529 81.919 198.999C75.419 197.419 66.539 202.739 60.609 199.999C54.679 197.259 52.929 186.999 47.609 183.079C42.289 179.159 32.019 180.679 27.549 175.819C23.079 170.959 25.449 160.879 21.999 155.219C18.549 149.559 8.52899 147.109 6.23899 140.869C3.94899 134.629 10.039 126.329 9.00899 119.719C8.00899 113.299 -0.311007 107.129 0.00899294 100.399C0.328993 93.669 9.11899 88.219 10.649 81.909C12.219 75.409 6.90899 66.529 9.64899 60.599C12.389 54.669 22.649 52.919 26.569 47.599C30.489 42.279 28.979 32.009 33.839 27.599C38.699 23.189 48.779 25.499 54.429 22.049C60.079 18.599 62.549 8.56899 68.799 6.27899C75.049 3.98899 83.329 10.029 89.919 9.00899C96.329 8.00899 102.499 -0.311007 109.229 0.00899294C115.959 0.328993 121.409 9.11899 127.729 10.639C134.229 12.219 143.099 6.89899 149.029 9.63899C154.959 12.379 156.719 22.639 162.029 26.559C167.339 30.479 177.619 28.959 182.089 33.819C186.559 38.679 184.189 48.769 187.639 54.419C191.089 60.069 201.119 62.539 203.409 68.779C205.699 75.019 199.609 83.319 200.629 89.929C201.609 96.309 209.949 102.499 209.659 109.229Z" fill="url(#paint0_linear_3_3940)"/>
<path d="M233.039 278.679C166.191 330.15 72.95 329.739 6.55908 277.679L55.2191 254.869C56.7085 254.165 58.1605 253.384 59.5691 252.529L60.6891 251.829C61.0891 251.579 61.4791 251.319 61.8691 251.049C68.0081 246.814 73.0394 241.165 76.5391 234.579C80.5391 227.029 81.8591 218.689 81.9191 210.189C81.9191 204.469 81.6091 198.749 81.5491 193.019C81.5091 189.852 81.4757 186.682 81.4491 183.509L83.4491 184.509L88.6491 187.199L118.939 192.349L150.059 197.649L150.999 229.649L151.469 245.519L162.939 250.189L171.939 253.829L233.039 278.679Z" fill="#845161"/>
<path d="M150.979 229.629C140.922 231.425 130.572 230.626 120.909 227.309C99.3292 220.059 84.7992 202.569 83.4292 184.549L88.6292 187.239L118.919 192.389L150.039 197.689L150.979 229.629Z" fill="#69303A"/>
<path d="M233.039 278.679C166.191 330.15 72.95 329.739 6.55908 277.679L55.2191 254.869C56.7085 254.165 58.1605 253.384 59.5691 252.529C83.2491 269.939 116.199 281.279 144.629 268.529C152.689 264.909 159.959 258.479 162.919 250.219L171.919 253.859L233.039 278.679Z" fill="url(#paint1_linear_3_3940)"/>
<circle cx="58.939" cy="149.949" r="17" fill="#845161"/>
<circle cx="65.019" cy="148.209" r="17" fill="#69303A"/>
<path d="M142.609 217.689C121.609 216.799 71.3891 197.889 61.3591 156.749C59.252 148.178 58.3102 139.362 58.5591 130.539C58.5591 128.809 58.7191 127.099 58.8591 125.399C61.3291 97.139 76.8091 74.069 99.9791 68.399C101.319 68.079 102.659 67.809 103.979 67.619C112.068 66.4559 120.319 67.3819 127.949 70.309C137.758 74.1317 146.526 80.2168 153.539 88.069C156.503 91.3053 159.208 94.7692 161.629 98.429C167.803 107.792 172.294 118.161 174.899 129.069C184.919 170.239 157.929 218.309 142.609 217.689Z" fill="#845161"/>
<path d="M109.869 131.389C115.959 131.699 115.569 141.009 109.469 140.809H109.199C103.099 140.499 103.499 131.179 109.589 131.389H109.869V131.389Z" fill="#00214E"/>
<path d="M160.249 129.669C165.899 129.959 165.539 138.599 159.879 138.409H159.619C153.969 138.129 154.329 129.479 159.989 129.669H160.249Z" fill="#00214E"/>
<path d="M141.969 129.379C142.079 133.274 142.588 137.148 143.489 140.939C144.389 144.289 145.779 146.409 147.659 149.339C148.305 150.306 148.861 151.33 149.319 152.399C151.709 158.399 147.929 164.879 141.249 164.599L137.129 164.419" stroke="#00214E"/>
<path d="M112.729 174.579C117.306 180.141 123.743 183.857 130.849 185.039" stroke="#00214E"/>
<path d="M122.839 156.149C121.303 156.843 120.507 158.557 120.968 160.178C121.429 161.799 123.008 162.837 124.679 162.619" stroke="#00214E"/>
<path d="M147.219 117.309C154.427 114.003 162.625 113.574 170.139 116.109" stroke="#00214E"/>
<path d="M94.6689 117.989C104.613 113.442 116.066 113.566 125.909 118.329" stroke="#00214E"/>
<path d="M155.329 88.819C155.819 89.999 155.719 91.029 154.879 92.639C153.875 94.545 152.625 96.3103 151.159 97.889C145.039 104.624 135.672 107.382 126.879 105.039C124.563 104.488 122.351 103.566 120.329 102.309C118.829 101.309 117.089 98.949 115.049 99.749C114.221 100.184 113.568 100.89 113.199 101.749C109.929 107.529 107.919 113.599 101.459 116.639C97.7019 118.252 93.5364 118.657 89.5389 117.799C86.1189 117.189 85.0589 114.479 82.1289 113.649C80.4789 113.179 78.8289 114.449 77.8289 115.849C75.9389 118.499 75.7789 121.849 74.2189 124.659C72.2189 128.359 68.1489 131.659 63.8089 132.139C62.0758 132.378 60.3389 131.727 59.1889 130.409C56.9789 127.549 58.2889 122.409 58.7089 119.099C60.3089 106.719 64.5689 94.459 72.0989 84.409C78.8889 75.409 88.3789 68.409 99.4389 65.759C118.589 61.089 142.299 72.259 154.189 86.919C154.667 87.4878 155.052 88.1291 155.329 88.819Z" fill="url(#paint2_linear_3_3940)"/>
<path d="M153.029 85.479V85.479C134.619 80.539 112.919 81.479 98.1889 89.749C72.5889 104.089 66.5789 115.469 58.4389 127.399L58.0889 127.929C58.0889 127.239 58.0889 126.539 58.1789 125.849C59.7589 96.199 75.5089 71.659 99.5089 65.849C118.419 61.239 138.139 69.299 152.999 85.449L153.029 85.479Z" fill="#00214E"/>
<defs>
<linearGradient id="paint0_linear_3_3940" x1="81.2695" y1="337.153" x2="326.702" y2="127.516" gradientUnits="userSpaceOnUse">
<stop stop-color="#315676"/>
<stop offset="1" stop-color="#E1B9E0"/>
</linearGradient>
<linearGradient id="paint1_linear_3_3940" x1="6.55908" y1="316.972" x2="233.039" y2="316.972" gradientUnits="userSpaceOnUse">
<stop stop-color="#16243F"/>
<stop offset="1" stop-color="#6878B1"/>
</linearGradient>
<linearGradient id="paint2_linear_3_3940" x1="106.547" y1="213.564" x2="142.559" y2="67.6983" gradientUnits="userSpaceOnUse">
<stop stop-color="#315676"/>
<stop offset="1" stop-color="#E1B9E0"/>
</linearGradient>
</defs>
</svg>
