<svg width="227" height="273" viewBox="0 0 227 273" fill="none" xmlns="http://www.w3.org/2000/svg">
<path d="M180.42 113.919C178.865 115.545 177.161 117.022 175.33 118.329C164.93 125.859 151.05 128.329 139.19 132.389C134.19 134.099 79.9699 149.509 79.9699 152.859C79.9699 152.129 74.6599 146.859 67.9699 140.459C44.8955 118.359 37.2029 84.6394 48.4099 54.7191C59.3199 26.0491 94.0999 6.28908 123.23 1.71908C137.1 -0.450916 153.56 -1.66092 166.37 4.98908C172.92 8.39908 178.42 13.3691 183.37 18.8791C184.93 20.6191 186.443 22.3958 187.91 24.2091C188.54 24.9691 189.16 25.7291 189.77 26.4991C212.54 55.1291 204.47 88.6491 180.42 113.919Z" fill="url(#paint0_linear_3_4288)"/>
<path d="M180.42 113.919C178.865 115.545 177.161 117.022 175.33 118.329C174.903 117.585 174.519 116.817 174.18 116.029C171.54 110.029 170.18 103.519 169.18 97.0291C167.629 87.5805 166.571 78.0577 166.01 68.4991C165.1 53.1591 158.55 45.5491 171.58 33.5891C176.269 29.2917 181.853 26.0881 187.93 24.2091C188.56 24.9691 189.18 25.7291 189.79 26.4991C212.54 55.1291 204.47 88.6491 180.42 113.919Z" fill="url(#paint1_linear_3_4288)"/>
<path d="M226.48 234.279C159.632 285.75 66.3909 285.339 0 233.279L48.66 210.469C50.9774 209.38 53.2015 208.102 55.31 206.649C55.95 206.209 56.59 205.749 57.2 205.269C62.5014 201.203 66.861 196.038 69.98 190.129C72.3425 185.603 73.9118 180.705 74.62 175.649C75.1084 172.368 75.3557 169.056 75.36 165.739C75.36 160.019 75.05 154.299 74.99 148.569C74.95 145.402 74.9167 142.232 74.89 139.059L76.89 140.059L82.09 142.749L84.5 143.159L112.38 147.899L143.5 153.199L144.44 185.199L144.75 195.659L144.9 200.739V201.129L157 206.049L226.48 234.279Z" fill="#E18477"/>
<path d="M226.48 234.279C159.632 285.75 66.3909 285.339 0 233.279L48.66 210.469C50.9774 209.38 53.2015 208.102 55.31 206.649C55.95 206.209 56.59 205.749 57.2 205.269C80.75 222.029 112.89 232.599 140.69 220.089C147.31 217.089 153.39 212.249 156.99 206.029L226.48 234.279Z" fill="url(#paint2_linear_3_4288)"/>
<path d="M144.88 200.769C134.43 201.399 122.75 198.699 111.88 192.429C91.4698 180.639 80.5598 160.079 84.4798 143.219L112.36 147.959L143.48 153.259L144.42 185.259L144.88 200.769Z" fill="#A76962"/>
<circle cx="65.0498" cy="111.099" r="17" fill="#E18477"/>
<circle cx="70.45" cy="111.099" r="15.22" fill="#A76962"/>
<path d="M71.0698 95.9391C71.2898 98.5391 71.1398 101.139 71.3398 103.749L72.9898 125.229L74.4998 144.949C75.0598 152.219 77.8998 156.569 82.6198 162.379C91.0286 172.684 101.735 180.877 113.88 186.299C125.48 191.469 141.56 196.609 153.94 191.599C166.59 186.469 170.63 172.269 174.89 160.489C179.15 148.709 183.09 135.749 182.89 123.029C182.62 105.769 178.07 96.1291 178.07 96.1291L181.4 76.1291C182.65 68.6291 184.26 60.7791 182.4 53.2291C181.04 47.7291 177.4 43.8891 173.61 39.9491C168.93 35.1191 166.61 35.2791 159.98 37.1591C148.461 40.5379 138.404 47.6733 131.41 57.4291C124.42 67.1291 120.28 79.1291 111.07 86.6291C104.71 91.8191 96.8298 93.9491 88.7898 94.6291C85.8829 94.9791 82.9485 95.0394 80.0298 94.8091C77.075 94.7239 74.1179 94.8442 71.1798 95.1691H71.0098C71.0698 95.4091 71.0698 95.6691 71.0698 95.9391Z" fill="#E18477"/>
<path d="M145.2 94.899C145.12 95.249 158.56 133.369 158.56 133.369L140.62 134.249" stroke="#00214E"/>
<path d="M99.1802 88.3391C108.438 86.4276 117.96 86.1602 127.31 87.5491" stroke="#00214E"/>
<path d="M161.77 87.3891C167.487 86.0683 173.376 85.6599 179.22 86.1791" stroke="#00214E"/>
<path d="M108.01 148.229C111.702 142.14 116.966 137.159 123.25 133.809" stroke="#00214E"/>
<path d="M125.92 103.539C125.505 106.943 123.609 109.991 120.74 111.869C120.154 112.256 119.535 112.59 118.89 112.869C116.829 113.627 114.671 114.088 112.48 114.239" stroke="#00214E"/>
<path d="M127.28 71.1591H158.88" stroke="#00214E"/>
<path d="M123.25 77.6891H154.86" stroke="#00214E"/>
<path d="M158.74 101.259C159.698 103.808 160.954 106.234 162.48 108.489C163.977 110.566 166.208 111.997 168.72 112.489" stroke="#00214E"/>
<path d="M120.07 144.739C120.347 144.302 120.793 144 121.301 143.905C121.81 143.81 122.335 143.931 122.75 144.239C124.83 145.699 128.63 148.799 134.03 149.879C141.39 151.339 147.78 148.399 149.3 150.299C150.16 151.359 149.11 152.669 147.1 154.349C142.844 157.525 137.487 158.851 132.24 158.029C125.16 156.709 119.85 148.499 119.85 145.599C119.847 145.298 119.923 145.002 120.07 144.739Z" fill="white"/>
<path d="M117.37 98.4391C123.48 98.3691 123.66 107.699 117.56 107.869H117.28C111.18 107.939 111 98.6191 117.1 98.4491H117.37V98.4391Z" fill="#00214E"/>
<path d="M167.61 96.8091C173.28 96.7391 173.44 105.399 167.78 105.549H167.53C161.87 105.609 161.7 96.9591 167.36 96.7991H167.61V96.8091Z" fill="#00214E"/>
<defs>
<linearGradient id="paint0_linear_3_4288" x1="43.2699" y1="152.883" x2="203.24" y2="152.883" gradientUnits="userSpaceOnUse">
<stop stop-color="#16243F"/>
<stop offset="1" stop-color="#6878B1"/>
</linearGradient>
<linearGradient id="paint1_linear_3_4288" x1="137.488" y1="86.1044" x2="204.554" y2="105.112" gradientUnits="userSpaceOnUse">
<stop stop-color="#16243F"/>
<stop offset="1" stop-color="#6878B1"/>
</linearGradient>
<linearGradient id="paint2_linear_3_4288" x1="0" y1="272.597" x2="226.48" y2="272.597" gradientUnits="userSpaceOnUse">
<stop stop-color="#16243F"/>
<stop offset="1" stop-color="#6878B1"/>
</linearGradient>
</defs>
</svg>
