<svg width="340" height="340" viewBox="0 0 340 340" fill="none" xmlns="http://www.w3.org/2000/svg">
<path d="M179.65 68.2502C178.28 74.1302 170.45 77.0302 167.14 81.6402C163.71 86.4302 163.4 94.7402 158.48 97.8002C153.56 100.86 145.96 97.4602 140.16 98.4202C134.55 99.3502 128.48 105.1 122.61 103.73C116.74 102.36 113.83 94.5202 109.22 91.2102C104.43 87.7802 96.1198 87.4702 93.0598 82.5502C89.9998 77.6302 93.3998 70.0402 92.4398 64.2302C91.5098 58.6202 85.7598 52.5602 87.1298 46.6802C88.4998 40.8002 96.3398 37.9002 99.6498 33.2902C103.08 28.5002 103.39 20.1902 108.31 17.1302C113.23 14.0702 120.82 17.4702 126.63 16.5102C132.24 15.5802 138.3 9.84019 144.18 11.2102C150.06 12.5802 152.96 20.4102 157.57 23.7202C162.36 27.1502 170.67 27.4602 173.73 32.3802C176.79 37.3002 173.39 44.9002 174.35 50.7102C175.28 56.3102 181.07 62.3802 179.65 68.2502Z" fill="url(#paint0_linear_3_4585)"/>
<path d="M197.47 203.06C194.95 206.06 192.77 209.34 190.21 212.29C176.59 227.95 146.91 217.66 132.15 208.29C121.32 201.44 113.15 191.11 106.15 180.35C97.5499 167.08 90.3599 152.65 87.2499 137.15C72.9999 66.1602 164.07 35.2802 215.14 70.1302C234.14 83.1302 251.32 112.29 247.14 135.66C245.01 147.52 236.57 158.19 237.47 170.2C238.47 183.14 250.17 195.47 245.27 207.49C243.35 212.19 239.22 215.55 235.86 219.36C231.33 224.51 228.03 230.95 227.63 237.79C227.23 244.63 230.08 251.79 235.73 255.71C221.8 253.85 213.21 237.17 216.82 223.59C218 219.13 220.17 214.97 221.12 210.45C222.07 205.93 221.52 200.68 218.07 197.62C213.64 193.69 206.42 195.18 201.76 198.84C200.194 200.102 198.757 201.515 197.47 203.06V203.06Z" fill="url(#paint1_linear_3_4585)"/>
<path d="M283.48 291.14C216.632 342.611 123.391 342.2 57 290.14L105.66 267.33C107.149 266.626 108.601 265.845 110.01 264.99L111.13 264.29C111.53 264.04 111.92 263.78 112.31 263.51C118.447 259.281 123.478 253.639 126.98 247.06C130.98 239.51 132.3 231.17 132.36 222.67C132.36 216.95 132.05 211.23 131.99 205.5C131.95 202.334 131.917 199.164 131.89 195.99L132.09 196.09L133.87 197.01L139.07 199.7L169.36 204.85L200.48 210.15L201.2 234.62L201.42 242.12L201.89 257.99L213.36 262.66L222.36 266.3L283.48 291.14Z" fill="#845161"/>
<path d="M201.2 234.59C199.069 236.01 196.539 236.711 193.98 236.59C179.19 235 150.34 223.41 132.18 201.96C132.18 200.907 132.16 199.857 132.12 198.81V196.02L133.9 196.94L139.1 199.63L169.39 204.78L200.51 210.08L201.2 234.59Z" fill="#69303A"/>
<path d="M283.48 291.15C216.632 342.621 123.391 342.21 57 290.15L105.66 267.34C107.152 266.634 108.607 265.853 110.02 265C133.69 282.41 166.65 293.75 195.07 281C203.13 277.38 210.4 270.95 213.36 262.69L222.36 266.33L283.48 291.15Z" fill="url(#paint2_linear_3_4585)"/>
<circle cx="106.89" cy="163.97" r="17" fill="#845161"/>
<circle cx="112.89" cy="161.97" r="17" fill="#69303A"/>
<path d="M222.43 138.22C234.17 178.91 209.23 228.06 193.89 228.06C172.89 228.06 121.89 211.29 110.16 170.6C98.43 129.91 114.07 89.7102 145.07 80.7602C176.07 71.8102 210.69 97.5402 222.43 138.22Z" fill="#845161"/>
<ellipse cx="157.45" cy="151.47" rx="19" ry="11.84" stroke="white"/>
<ellipse cx="212.25" cy="148.91" rx="19" ry="11.84" stroke="white"/>
<path d="M187.61 88.2802C185.21 93.0202 180.21 97.1402 177.24 101.99C173.35 108.34 170.41 115.24 167.11 121.91C164.66 126.91 161.93 131.85 157.78 135.52C153.63 139.19 147.78 141.36 142.47 139.83C138.83 138.78 135.88 136.18 132.62 134.25C129.36 132.32 125.19 131.03 121.85 132.83C116.93 135.47 117 142.64 113.48 146.97C105.41 156.9 90.6002 143.52 88.8102 134.85C86.2102 122.18 96.6002 111.59 104.16 102.85C110.47 95.5502 118.99 84.4102 128.89 81.9802C129.07 81.9802 186.89 58.9802 186.89 58.9802C187.41 66.7102 190.53 78.1402 188.67 85.5402C188.421 86.4907 188.066 87.4099 187.61 88.2802V88.2802Z" fill="url(#paint3_linear_3_4585)"/>
<path d="M185.47 140.12C185.42 140.36 191.01 156 194.4 165.44C194.963 167.045 194.715 168.823 193.734 170.213C192.753 171.603 191.161 172.432 189.46 172.44H185.82" stroke="#00214E"/>
<path d="M196.93 129.91C203.995 126.311 212.166 125.539 219.78 127.75" stroke="#00214E"/>
<path d="M141.82 133.61C151.562 128.643 163.01 128.277 173.05 132.61" stroke="#00214E"/>
<path d="M176.45 151.47L193.39 150.17" stroke="white"/>
<path d="M159.99 144.69C166.09 144.69 166.09 154.06 159.99 154.11H159.72C153.61 154.06 153.61 144.73 159.72 144.69H159.99Z" fill="#00214E"/>
<path d="M210.25 141.6C215.91 141.65 215.91 150.3 210.25 150.35H210C204.33 150.35 204.33 141.65 210 141.6H210.25Z" fill="#00214E"/>
<path d="M178.37 166.71C176.738 166.892 175.472 168.221 175.37 169.86C175.395 170.652 175.773 171.391 176.4 171.875C177.027 172.359 177.838 172.537 178.61 172.36" stroke="#00214E"/>
<path d="M160.72 181.83C160.997 181.393 161.443 181.091 161.951 180.996C162.46 180.901 162.985 181.022 163.4 181.33C165.48 182.79 169.28 185.89 174.68 186.96C182.04 188.43 188.43 185.48 189.95 187.38C190.81 188.45 189.76 189.75 187.75 191.43C183.495 194.609 178.138 195.94 172.89 195.12C165.81 193.79 160.49 185.59 160.49 182.68C160.49 182.381 160.569 182.088 160.72 181.83V181.83Z" fill="white"/>
<defs>
<linearGradient id="paint0_linear_3_4585" x1="76.3381" y1="93.0149" x2="168.857" y2="114.585" gradientUnits="userSpaceOnUse">
<stop stop-color="#16243F"/>
<stop offset="1" stop-color="#6878B1"/>
</linearGradient>
<linearGradient id="paint1_linear_3_4585" x1="85.7799" y1="255.685" x2="247.76" y2="255.685" gradientUnits="userSpaceOnUse">
<stop stop-color="#16243F"/>
<stop offset="1" stop-color="#6878B1"/>
</linearGradient>
<linearGradient id="paint2_linear_3_4585" x1="143.066" y1="357.645" x2="178.078" y2="246.015" gradientUnits="userSpaceOnUse">
<stop stop-color="#315676"/>
<stop offset="1" stop-color="#E1B9E0"/>
</linearGradient>
<linearGradient id="paint3_linear_3_4585" x1="76.2615" y1="130.232" x2="171.688" y2="178.567" gradientUnits="userSpaceOnUse">
<stop stop-color="#16243F"/>
<stop offset="1" stop-color="#6878B1"/>
</linearGradient>
</defs>
</svg>
