<svg width="227" height="293" viewBox="0 0 227 293" fill="none" xmlns="http://www.w3.org/2000/svg">
<path d="M226.48 254.383C159.632 305.854 66.3909 305.443 0 253.383L48.66 230.573C50.9774 229.484 53.2015 228.206 55.31 226.753C55.95 226.313 56.59 225.853 57.2 225.373C62.4959 221.321 66.8551 216.174 69.98 210.283C72.3425 205.757 73.9118 200.859 74.62 195.803C75.1084 192.522 75.3557 189.21 75.36 185.893C75.36 182.433 75.27 178.973 75.15 175.513C75.08 173.253 75.02 170.983 74.99 168.723C74.95 165.556 74.9167 162.386 74.89 159.213L76.89 160.213L82.09 162.903L84.5 163.313L112.38 168.053L143.5 173.353L144.44 205.353L144.75 215.813L144.9 220.893V221.203L145.9 221.623L156.97 226.123L226.48 254.383Z" fill="#F2A196"/>
<path d="M144.89 221.203C141.453 221.794 137.917 221.247 134.82 219.643L75.1501 170.873C75.0801 168.613 75.0201 170.973 74.9901 168.713C74.9501 165.546 74.9168 162.376 74.8901 159.203L76.8901 160.203L82.0901 162.893L84.5001 163.303L112.38 168.043L143.5 173.343L144.44 205.343L144.75 215.803L144.9 220.883V221.203H144.89Z" fill="#E88870"/>
<path d="M226.48 254.383C159.632 305.854 66.3909 305.443 0 253.383L48.66 230.573C50.9774 229.484 53.2015 228.206 55.31 226.753C55.95 226.313 56.59 225.853 57.2 225.373C80.75 242.133 112.89 252.703 140.69 240.193C147.31 237.193 153.39 232.353 156.99 226.133L226.48 254.383Z" fill="#F2D4CF"/>
<path d="M146.55 229.503C122.04 229.913 98.2299 226.683 75.7899 217.873C73.4199 216.933 71.0799 215.923 68.7899 214.873C68.4315 214.714 68.0134 214.78 67.7206 215.04C67.4277 215.301 67.3141 215.708 67.4299 216.083C68.3648 218.687 68.2646 221.551 67.1499 224.083C66.3664 227.479 65.014 230.718 63.1499 233.663C59.5441 239.677 54.5863 244.769 48.6699 248.533C48.3881 248.703 48.0409 248.723 47.7413 248.587C47.4417 248.451 47.2281 248.177 47.1699 247.853C45.8799 240.713 44.7699 233.373 46.4599 226.343C47.8499 220.543 51.7899 214.663 57.1399 211.833C56.6901 211.913 56.2298 211.913 55.7799 211.833C55.2699 211.833 54.7799 211.833 54.2699 211.763C53.2166 211.703 52.1666 211.603 51.1199 211.463C49.0976 211.207 47.0935 210.823 45.1199 210.313C40.8828 209.217 36.8366 207.484 33.1199 205.173C32.5599 204.823 29.5599 202.453 27.8099 201.063C27.5342 200.847 27.3918 200.502 27.4348 200.154C27.4778 199.806 27.6998 199.506 28.0199 199.363C31.4899 197.843 40.4899 194.363 48.6899 195.493C52.5262 195.985 56.248 197.139 59.6899 198.903L59.7899 198.963C61.2999 199.963 62.7899 200.893 64.2399 201.803C64.5153 201.977 64.858 202.005 65.1585 201.88C65.459 201.755 65.6797 201.491 65.7499 201.173C65.864 200.707 66.0179 200.252 66.2099 199.813C68.2432 195.361 73.3058 193.157 77.9499 194.703C108.22 204.363 123.68 208.703 149.95 205.803C151.591 205.591 153.26 205.783 154.81 206.363C163.34 209.803 162.21 223.153 154.28 227.623C151.875 228.815 149.234 229.458 146.55 229.503Z" fill="url(#paint0_linear_3_4359)"/>
<path d="M208.58 54.103C208.49 54.693 208.38 55.273 208.25 55.853C207.556 58.826 206.442 61.6849 204.94 64.343L204.86 64.483C204.29 65.483 203.68 66.483 203.02 67.483C201.269 70.0501 199.358 72.505 197.3 74.833L196.07 76.203C195.24 77.133 194.4 78.043 193.56 78.943C198.01 77.943 202.32 82.093 203.11 86.573C203.9 91.053 202.11 95.573 199.9 99.573C196.03 106.653 190.45 111.363 185.54 117.513C181.86 122.093 179.82 127.513 175.81 131.893L175.51 132.223C164.92 143.343 148.2 145.943 134.28 150.693C129.28 152.413 75.06 167.813 75.06 171.173C75.06 170.443 69.75 165.173 63.06 158.763C39.06 135.973 31.17 100.763 45.45 70.563C60.8 38.063 95.66 14.873 128.86 3.73296C139.24 0.252962 151.02 -2.08704 160.86 2.73296C170.7 7.55296 175.6 22.503 167.44 29.803C172.572 25.9199 178.956 24.065 185.37 24.593C191.294 24.9641 196.881 27.4769 201.09 31.663C204.424 35.012 206.82 39.1775 208.04 43.743C208.944 47.1203 209.128 50.65 208.58 54.103V54.103Z" fill="#845161"/>
<path d="M208.58 54.103C208.49 54.693 208.38 55.273 208.25 55.853C208.16 56.023 208.07 56.203 207.98 56.403C206.85 58.983 206.33 61.763 204.98 64.343L204.9 64.483C204.33 65.483 203.72 66.483 203.06 67.483C201.326 70.0625 199.415 72.5184 197.34 74.833L196.07 76.203C195.24 77.133 194.4 78.043 193.56 78.943C198.01 77.943 202.32 82.093 203.11 86.573C203.9 91.053 202.11 95.573 199.9 99.573C196.03 106.653 190.45 111.363 185.54 117.513C181.86 122.093 179.82 127.513 175.81 131.893C171.154 126.357 168.19 119.598 167.27 112.423C165.63 99.163 166.63 84.713 166.18 71.293C165.9 62.853 163.18 61.293 168.24 54.463C172.309 49.443 177.015 44.9753 182.24 41.173C186.32 38.483 191.57 38.063 196.44 38.753C200.684 39.3333 204.688 41.0622 208.02 43.753C208.929 47.1257 209.12 50.6518 208.58 54.103Z" fill="#69303A"/>
<circle cx="65.0498" cy="131.203" r="17" fill="#F2A196"/>
<circle cx="70.4402" cy="131.203" r="15.22" fill="#E88870"/>
<path d="M70.6699 115.203L75.0699 172.203L141.51 211.023C151.032 214.575 161.696 210.328 166.17 201.203C175.73 181.623 191.07 150.703 189.05 139.203C186.05 122.203 178.05 116.203 178.05 116.203C179.163 109.536 180.27 102.89 181.37 96.263C182.63 88.753 184.24 80.913 182.37 73.363C180.24 64.703 173.7 61.013 168.32 54.543C154.16 72.783 130.88 83.093 110.55 93.543C100.07 98.983 70.6699 115.203 70.6699 115.203Z" fill="#F2A196"/>
<path d="M119.79 113.003C125.89 113.003 125.89 122.383 119.79 122.433H119.51C113.41 122.433 113.41 113.053 119.51 113.003H119.79Z" fill="#00214E"/>
<path d="M169.91 111.613C175.58 111.663 175.58 120.313 169.91 120.363H169.66C164 120.363 164 111.663 169.66 111.613H169.91Z" fill="#00214E"/>
<path d="M145.2 110.293C145.12 110.643 158.56 146.423 158.56 146.423L140.62 147.293" stroke="#00214E"/>
<path d="M102.72 103.373C111.978 101.461 121.5 101.194 130.85 102.583" stroke="#00214E"/>
<path d="M161.77 103.483C167.486 102.157 173.376 101.749 179.22 102.273" stroke="#00214E"/>
<path d="M122.24 157.303C122.514 156.863 122.96 156.559 123.47 156.464C123.979 156.369 124.505 156.492 124.92 156.803C127 158.263 130.8 161.363 136.2 162.433C143.56 163.903 149.94 160.953 151.47 162.853C152.33 163.923 151.28 165.223 149.27 166.853C145.015 170.032 139.658 171.362 134.41 170.543C127.33 169.213 122.01 161.013 122.01 158.103C122.017 157.821 122.096 157.546 122.24 157.303V157.303Z" fill="white"/>
<defs>
<linearGradient id="paint0_linear_3_4359" x1="50.1608" y1="257.414" x2="134.179" y2="168.595" gradientUnits="userSpaceOnUse">
<stop stop-color="#81008C"/>
<stop offset="0.28" stop-color="#004AFF"/>
<stop offset="0.45" stop-color="#00830D"/>
<stop offset="0.64" stop-color="#FFED00"/>
<stop offset="0.83" stop-color="#FF8500"/>
<stop offset="1" stop-color="#FF2609"/>
</linearGradient>
</defs>
</svg>
