<svg width="227" height="272" viewBox="0 0 227 272" fill="none" xmlns="http://www.w3.org/2000/svg">
<path d="M226.48 233.31C159.632 284.781 66.3909 284.369 0 232.31L48.66 209.5C50.9774 208.41 53.2015 207.133 55.31 205.68C55.95 205.24 56.59 204.78 57.2 204.3C62.4959 200.247 66.8551 195.1 69.98 189.21C72.3425 184.683 73.9118 179.786 74.62 174.73C75.1084 171.449 75.3557 168.136 75.36 164.82C75.36 159.1 75.05 153.38 74.99 147.65C74.95 144.476 74.9167 141.306 74.89 138.14L76.89 139.14L82.09 141.83L84.5 142.24L112.38 146.98L143.5 152.28L144.44 184.28L144.75 194.74L144.9 199.82V200.15L157 205.07L226.48 233.31Z" fill="#845161"/>
<path d="M226.48 233.31C159.632 284.781 66.3909 284.369 0 232.31L48.66 209.5C50.9774 208.41 53.2015 207.133 55.31 205.68C55.95 205.24 56.59 204.78 57.2 204.3C80.75 221.06 112.89 231.63 140.69 219.12C147.31 216.12 153.39 211.28 156.99 205.06L226.48 233.31Z" fill="#FF2609"/>
<path d="M144.88 199.83C134.43 200.46 122.75 197.76 111.88 191.49C91.4698 179.7 80.5598 159.14 84.4798 142.28L112.36 147.02L143.48 152.32L144.42 184.32L144.88 199.83Z" fill="#69303A"/>
<path d="M197.83 37.0095C200.358 42.327 201.722 48.1228 201.83 54.0095C202.05 75.1895 189.68 95.6595 175.83 110.85L175.53 111.18C164.94 122.3 148.22 124.9 134.3 129.65C129.3 131.37 75.0801 146.77 75.0801 150.13C75.0801 149.4 69.7701 144.13 63.0801 137.72C50.8724 126.139 42.634 110.999 39.5401 94.4595C37.0001 80.5195 39.1401 63.3095 43.2301 49.7795C50.6101 25.4295 71.2301 9.65954 95.2301 3.56954C118.48 -2.32046 148.42 -1.33046 170.09 9.61954C181.75 15.4895 192.33 25.1595 197.83 37.0095Z" fill="url(#paint0_linear_3_4493)"/>
<circle cx="65.0498" cy="110.16" r="17" fill="#845161"/>
<circle cx="70.4402" cy="110.16" r="15.22" fill="#69303A"/>
<path d="M70.6699 94.1095L72.9899 124.31L74.4999 144.03C75.0599 151.3 77.8899 155.65 82.6199 161.46C91.0287 171.765 101.735 179.957 113.88 185.38C125.48 190.55 141.56 195.69 153.94 190.68C166.59 185.55 170.63 171.35 174.88 159.57C179.13 147.79 183.09 134.83 182.88 122.11C182.61 104.85 178.04 95.1795 178.04 95.1795C179.153 88.5129 180.26 81.8662 181.36 75.2395C182.62 67.7295 184.23 59.8795 182.36 52.3295C180.23 43.6795 173.69 39.9895 168.31 33.5095C154.15 51.7495 130.87 62.0595 110.54 72.5095C100.07 77.9295 70.6699 94.1095 70.6699 94.1095Z" fill="#845161"/>
<path d="M148.55 98.8095C149.019 102.384 149.85 105.902 151.03 109.31C152.17 112.31 153.65 114.12 155.66 116.64C156.347 117.469 156.956 118.359 157.48 119.3C160.25 124.64 157.37 130.92 151.2 131.3L147.39 131.52" stroke="#00214E"/>
<path d="M133.46 125.25C132.109 126.031 131.538 127.686 132.117 129.134C132.697 130.583 134.253 131.386 135.77 131.02" stroke="#00214E"/>
<path d="M99.1401 87.4095C108.397 85.4899 117.919 85.2191 127.27 86.6095" stroke="#00214E"/>
<path d="M161.77 86.4495C167.487 85.1287 173.376 84.7203 179.22 85.2395" stroke="#00214E"/>
<path d="M108 147.31C111.698 141.222 116.966 136.242 123.25 132.89" stroke="#00214E"/>
<path d="M125.92 102.61C125.428 106.74 122.755 110.288 118.92 111.9C116.858 112.656 114.7 113.12 112.51 113.28" stroke="#00214E"/>
<path d="M127.28 70.2195H158.88" stroke="#00214E"/>
<path d="M123.25 76.7495H154.86" stroke="#00214E"/>
<path d="M158.74 100.31C159.698 102.858 160.954 105.285 162.48 107.54C163.981 109.613 166.21 111.041 168.72 111.54" stroke="#00214E"/>
<path d="M120.06 143.81C120.333 143.368 120.778 143.062 121.288 142.965C121.797 142.868 122.324 142.989 122.74 143.3C124.82 144.77 128.62 147.86 134.02 148.94C141.38 150.4 147.77 147.46 149.29 149.36C150.15 150.43 149.1 151.73 147.09 153.36C142.833 156.535 137.477 157.862 132.23 157.04C125.15 155.72 119.83 147.51 119.83 144.61C119.838 144.328 119.917 144.052 120.06 143.81V143.81Z" fill="white"/>
<path d="M116.21 97.1395C122.31 97.0695 122.5 106.39 116.4 106.56H116.14C110.04 106.63 109.86 97.2995 115.96 97.1295H116.23L116.21 97.1395Z" fill="#00214E"/>
<path d="M166.45 95.4995C172.11 95.4395 172.28 104.09 166.62 104.25H166.37C160.7 104.32 160.54 95.6595 166.2 95.5095H166.45V95.4995Z" fill="#00214E"/>
<defs>
<linearGradient id="paint0_linear_3_4493" x1="98.9119" y1="206.504" x2="252.667" y2="70.8678" gradientUnits="userSpaceOnUse">
<stop stop-color="#315676"/>
<stop offset="1" stop-color="#E1B9E0"/>
</linearGradient>
</defs>
</svg>
