<svg width="227" height="287" viewBox="0 0 227 287" fill="none" xmlns="http://www.w3.org/2000/svg">
<path d="M192.65 91.4853C191.28 109.265 186.16 126.975 176.17 141.155C174.59 143.564 172.624 145.696 170.35 147.465C166.35 147.545 160.72 151.515 156.14 151.955C152.69 152.295 149.02 151.345 145.68 151.895C135.26 153.585 124.21 161.235 114.68 165.745C108.25 168.745 101.68 171.865 94.5701 172.465C85.9701 173.175 77.8701 170.155 70.6901 165.265C64.6537 161.002 59.2937 155.854 54.7901 149.995C39.7201 130.885 29.8701 105.355 32.8601 80.3652C39.6001 24.1553 109.57 -11.5748 160.73 3.43525C163.401 4.20779 165.943 5.37392 168.27 6.89525C168.99 7.69525 169.7 8.52525 170.38 9.35525C171.8 11.0653 173.16 12.8252 174.48 14.6252L175.16 15.5652C180.014 22.4195 184.08 29.7995 187.28 37.5653C194.69 55.5352 194.12 72.2653 192.65 91.4853Z" fill="url(#paint0_linear_3_4459)"/>
<path d="M170.38 9.35527C168.55 16.8653 160.92 27.4153 157.79 32.9053C143.04 58.6953 120.35 77.9053 104.49 102.165C103.36 103.895 102.38 105.715 101.37 107.515C96.17 116.725 91.16 126.055 86.18 135.395C83.2067 140.975 80.2634 146.569 77.35 152.175C76.2 154.415 74.48 156.495 74.23 159.005C73.9238 161.397 73.7569 163.804 73.73 166.215C73.7737 167.197 73.9589 168.167 74.28 169.095C74.39 169.435 75.08 171.615 75.47 171.635C74.01 171.438 72.629 170.855 71.47 169.945C63.78 164.815 58.1 158.225 52.61 150.945C50.1241 147.74 47.8141 144.401 45.69 140.945C40.38 132.035 37.51 121.945 35.37 111.885C33.14 101.385 31.58 91.1253 32.87 80.3753C39.6 24.1553 109.57 -11.5747 160.73 3.43527C163.401 4.20781 165.942 5.37394 168.27 6.89527C168.99 7.69527 169.7 8.52527 170.38 9.35527Z" fill="url(#paint1_linear_3_4459)"/>
<circle cx="56.3701" cy="126.295" r="17" fill="#845161"/>
<circle cx="62.2002" cy="125.175" r="16" fill="#69303A"/>
<path d="M226.48 248.335C159.632 299.807 66.3909 299.395 0 247.335L48.66 224.525C50.9774 223.436 53.2015 222.158 55.31 220.705C55.95 220.265 56.59 219.805 57.2 219.325C62.4959 215.273 66.8551 210.126 69.98 204.235C73.98 196.685 75.3 188.345 75.36 179.845V179.225C75.36 174.475 75.13 169.715 75.03 164.955C75.03 164.195 75.03 163.435 75.03 162.675C74.99 159.509 74.9567 156.339 74.93 153.165L76.93 154.165L82.13 156.855L84.54 157.265L112.42 162.005L116.21 162.655L143.54 167.305L144.48 199.305L144.75 208.515L144.94 214.845V215.155L157.04 220.075L226.48 248.335Z" fill="#845161"/>
<path d="M144.69 208.495C130.682 211.313 116.133 208.196 104.51 199.885L75.3598 179.215C75.3598 174.465 75.1298 169.705 75.0298 164.945C85.5998 170.295 98.2398 172.215 108.38 166.945C110.98 165.615 113.56 164.115 116.15 162.625L143.48 167.275L144.42 199.275L144.69 208.495Z" fill="#69303A"/>
<path d="M176.14 132.355C175.75 154.095 163.8 185.105 158.86 194.225C156.31 198.945 152.61 199.925 146.77 201.425C132.115 205.096 116.588 202.137 104.31 193.335L67.3099 166.515C65.7499 153.855 62.4999 142.195 60.4899 129.605C59.1999 121.505 55.1699 104.245 61.8999 97.7852C62.8331 96.9504 63.8973 96.2747 65.0499 95.7852C69.4599 93.7152 75.9999 92.5152 79.6199 91.0852C86.2865 88.4652 92.8899 85.6952 99.4299 82.7752C106.097 79.7819 112.71 76.6419 119.27 73.3552C125.543 70.2019 131.737 66.9186 137.85 63.5052L147.64 69.1852C153.6 72.6452 159.557 76.1052 165.51 79.5652C177.42 86.4752 171.62 94.3652 169.79 105.485C169.19 109.095 170.14 109.135 172.05 111.645C175.91 116.795 176.26 126.155 176.14 132.355Z" fill="#845161"/>
<path d="M93.4702 97.7153C102.689 95.6238 112.203 95.1668 121.58 96.3653" stroke="#00214E"/>
<path d="M152.51 96.6453C158.201 95.2088 164.084 94.6823 169.94 95.0853" stroke="#00214E"/>
<path d="M226.48 248.335C159.632 299.807 66.3909 299.395 0 247.335L48.66 224.525C50.9774 223.436 53.2015 222.158 55.31 220.705C55.95 220.265 56.59 219.805 57.2 219.325C80.75 236.085 112.89 246.655 140.69 234.145C147.31 231.145 153.39 226.305 156.99 220.085L226.48 248.335Z" fill="#FF2609"/>
<path d="M125.25 136.405C123.765 137.196 123.082 138.953 123.642 140.539C124.202 142.125 125.838 143.063 127.49 142.745" stroke="#00214E"/>
<path d="M140.07 107.065C142.75 116.565 145.01 125.925 147.57 135.495C147.869 136.366 147.988 137.288 147.92 138.205C147.55 140.965 144.3 142.155 141.59 142.795" stroke="#00214E"/>
<circle cx="138.15" cy="90.8053" r="4.02" fill="#FF2609"/>
<path d="M150.22 70.6752C142.49 70.8752 132.33 71.1752 124.64 72.2652C122.42 72.5852 119.23 73.3252 119.23 73.3252C125.503 70.1719 131.697 66.8886 137.81 63.4752L150.22 70.6752Z" fill="white"/>
<path d="M173.07 153.985C169.07 170.985 162.49 187.895 159.07 194.225C156.51 198.945 152.81 199.915 146.97 201.425C133.06 205.002 118.286 202.548 106.28 194.665C101.77 191.785 97.1499 189.105 92.5499 186.385C87.3599 183.325 82.1999 180.205 77.2999 176.715C73.0299 173.665 69.0299 170.625 66.7599 165.715C65.9528 163.905 65.2842 162.036 64.7599 160.125C64.2999 158.535 63.7599 156.695 64.1199 155.025C64.2439 154.363 64.7132 153.817 65.3499 153.595C65.8052 153.5 66.2783 153.542 66.7099 153.715C69.5799 154.575 72.1999 156.525 74.7999 157.975C77.6017 159.591 80.5817 160.877 83.6799 161.805C91.7599 164.145 100.76 164.345 108.39 160.415C115.21 156.905 121.87 152.355 129 149.415C133.748 147.352 138.896 146.372 144.07 146.545C151.42 146.895 154.62 150.145 160.07 154.405C161.86 155.805 163.86 157.265 166.13 157.235C168.67 157.155 170.95 155.675 173.07 153.985Z" fill="#00214E"/>
<path d="M126.63 161.655C133.326 164.316 140.76 164.455 147.55 162.045" stroke="#F2A196"/>
<path d="M106.15 106.545C112.25 106.475 112.44 115.795 106.34 115.965H106.07C99.9698 116.035 99.7898 106.715 105.89 106.545H106.16H106.15Z" fill="#00214E"/>
<path d="M156.39 104.905C162.05 104.845 162.22 113.495 156.56 113.645H156.31C150.64 113.705 150.48 105.055 156.14 104.895H156.39V104.905Z" fill="#00214E"/>
<defs>
<linearGradient id="paint0_linear_3_4459" x1="90.9858" y1="162.402" x2="238.137" y2="184.302" gradientUnits="userSpaceOnUse">
<stop stop-color="#16243F"/>
<stop offset="1" stop-color="#6878B1"/>
</linearGradient>
<linearGradient id="paint1_linear_3_4459" x1="48.5327" y1="278.777" x2="261.941" y2="175.266" gradientUnits="userSpaceOnUse">
<stop stop-color="#16243F"/>
<stop offset="1" stop-color="#6878B1"/>
</linearGradient>
</defs>
</svg>
