<svg width="231" height="282" viewBox="0 0 231 282" fill="none" xmlns="http://www.w3.org/2000/svg">
<path d="M226.48 243.566C159.632 295.038 66.3909 294.626 0 242.566L48.66 219.756C50.9774 218.667 53.2015 217.389 55.31 215.936C55.95 215.496 56.59 215.036 57.2 214.556C62.4959 210.504 66.8551 205.357 69.98 199.466C72.3425 194.94 73.9118 190.043 74.62 184.986C75.1084 181.705 75.3557 178.393 75.36 175.076C75.36 169.356 75.05 163.636 74.99 157.906C74.95 154.733 74.9167 151.563 74.89 148.396L76.89 149.396L82.09 152.086L84.5 152.496L112.38 157.236L143.5 162.536L144.44 194.536L144.75 204.996L144.9 210.076V210.406L157 215.326L226.48 243.566Z" fill="#E18477"/>
<path d="M144.86 209.176C141.423 209.768 137.887 209.22 134.79 207.616L75.1201 158.806C75.0501 156.546 74.9901 158.916 74.9601 156.656C74.9201 153.49 74.8868 150.32 74.8601 147.146L76.8601 148.146L82.0601 150.836L84.4701 151.246L112.35 155.986L143.47 161.286L144.41 193.286L144.72 203.746L144.87 208.826V209.156L144.86 209.176Z" fill="#A76962"/>
<path d="M189.48 47.0363C206.636 56.7549 220.148 71.8119 227.96 89.9163C221.32 90.4541 214.773 91.8179 208.47 93.9763H208.41C206.77 94.5363 205.143 95.153 203.53 95.8263L202.53 96.2563L200.94 96.9563V96.9563C200.41 97.1863 199.88 97.4363 199.36 97.6963C198.84 97.9563 198.36 98.2063 197.79 98.4763C197.22 98.7463 196.79 99.0063 196.24 99.2863C195.69 99.5663 195.33 99.7763 194.88 100.036C193.8 100.636 192.74 101.266 191.7 101.916C191.287 102.17 190.877 102.43 190.47 102.696C186.46 105.292 182.694 108.248 179.22 111.526C174.83 115.676 170.73 120.446 166.22 124.706C162.352 128.605 157.822 131.784 152.84 134.096C143.2 138.246 132.05 140.646 122.04 144.096L75.0401 160.346C75.0401 159.606 69.7201 154.346 63.0401 147.936C45.4599 131.223 35.2737 108.187 34.7401 83.9363C33.1201 10.6763 119.18 -10.8637 177.74 4.8363C187.042 7.341 195.888 11.3034 203.95 16.5763C209.289 20.0287 214.174 24.1375 218.49 28.8063C223.527 34.225 227.572 40.487 230.44 47.3063L229.65 47.1663C216.376 44.7184 202.77 44.6744 189.48 47.0363Z" fill="url(#paint0_linear_3_4177)"/>
<path d="M227.96 89.9163C221.32 90.454 214.772 91.8179 208.47 93.9763H208.41C206.75 94.5028 205.121 95.1204 203.53 95.8263L202.53 96.2563L200.92 96.9763C200.39 97.2163 199.87 97.4563 199.34 97.7163C198.81 97.9763 198.34 98.2263 197.77 98.4963C197.2 98.7663 196.77 99.0263 196.22 99.3063C195.67 99.5863 195.31 99.7963 194.86 100.056C193.78 100.656 192.72 101.286 191.68 101.936L190.45 102.716C186.44 105.312 182.674 108.268 179.2 111.546C174.81 115.696 170.71 120.466 166.2 124.726C164.74 125.326 163.29 125.956 161.84 126.586C162.02 126.506 160.69 109.586 160.73 107.876C160.897 101.343 161.643 94.8376 162.96 88.4363C165.5 76.1263 163.88 64.6763 166.33 52.0563C166.847 49.2393 167.515 46.452 168.33 43.7063C172.51 40.5863 178.33 39.6263 183.4 38.8963C195.55 37.1463 208.05 38.8063 219.74 42.4863C221.673 43.0983 223.572 43.8126 225.43 44.6263C226.31 45.0163 227.17 45.4363 228.02 45.8863C228.769 46.4508 229.581 46.9273 230.44 47.3063C216.895 44.8072 203.016 44.7158 189.44 47.0363C206.611 56.7481 220.138 71.8059 227.96 89.9163Z" fill="url(#paint1_linear_3_4177)"/>
<circle cx="65.05" cy="120.386" r="17" fill="#E18477"/>
<circle cx="70.44" cy="120.386" r="15.22" fill="#A76962"/>
<path d="M70.6699 104.346L75.0499 161.346L141.49 200.166C151.028 203.724 161.709 199.457 166.17 190.306C175.73 170.726 191.07 139.816 189.05 128.306C186.05 111.306 178.05 105.306 178.05 105.306C179.163 98.6397 180.27 91.993 181.37 85.3664C182.63 77.8564 184.23 70.0164 182.37 62.4664C180.24 53.8164 173.7 50.1164 168.32 43.6464C154.16 61.8864 130.88 72.1964 110.55 82.6464C100.05 88.1664 70.6699 104.346 70.6699 104.346Z" fill="#E18477"/>
<path d="M102.72 92.5563C111.98 90.6581 121.502 90.4042 130.85 91.8063" stroke="#00214E"/>
<path d="M161.77 92.6663C167.487 91.3455 173.376 90.9371 179.22 91.4563" stroke="#00214E"/>
<path d="M138.74 131.146C137.247 131.91 136.535 133.648 137.061 135.24C137.588 136.832 139.196 137.803 140.85 137.526" stroke="#00214E"/>
<path d="M156.79 120.806C156.79 120.806 157.08 126.456 158.41 129.106C158.98 130.246 159.87 131.206 160.41 132.346C162.62 136.676 159.05 137.596 155.6 137.596" stroke="#00214E"/>
<path d="M226.48 243.566C159.632 295.038 66.3909 294.626 0 242.566L48.66 219.756C50.9774 218.667 53.2015 217.389 55.31 215.936C55.95 215.496 56.59 215.036 57.2 214.556C62.4959 210.504 66.8551 205.357 69.98 199.466C72.3425 194.94 73.9118 190.043 74.62 184.986C75.3262 185.671 76.0672 186.318 76.84 186.926C82.9715 191.46 89.6259 195.241 96.66 198.186C100.075 199.611 103.567 200.843 107.12 201.876C117.824 204.998 129 206.179 140.12 205.366C141.66 205.246 143.21 205.096 144.75 204.986L144.9 210.066V210.396L157 215.316L226.48 243.566Z" fill="#00214E"/>
<circle cx="123.64" cy="107.556" r="19" stroke="white"/>
<circle cx="176.78" cy="104.556" r="19" stroke="white"/>
<path d="M142.64 107.556L157.78 106.256" stroke="white"/>
<path d="M122.22 149.036C122.498 148.598 122.946 148.296 123.456 148.201C123.966 148.106 124.493 148.228 124.91 148.536C126.98 149.996 130.79 153.096 136.19 154.166C143.55 155.636 149.93 152.686 151.46 154.586C152.32 155.656 151.27 156.966 149.26 158.636C145.004 161.814 139.648 163.144 134.4 162.326C127.32 160.996 122 152.796 122 149.886C122.002 149.589 122.077 149.297 122.22 149.036V149.036Z" fill="white"/>
<ellipse cx="119.165" cy="107.379" rx="3.27" ry="7.94" transform="rotate(-85.77 119.165 107.379)" fill="#00214E"/>
<ellipse cx="170.678" cy="105.757" rx="7.94" ry="3.27" transform="rotate(-8.86 170.678 105.757)" fill="#00214E"/>
<defs>
<linearGradient id="paint0_linear_3_4177" x1="147.931" y1="177.383" x2="266.113" y2="30.8286" gradientUnits="userSpaceOnUse">
<stop stop-color="#16243F"/>
<stop offset="1" stop-color="#6878B1"/>
</linearGradient>
<linearGradient id="paint1_linear_3_4177" x1="160.74" y1="126.584" x2="230.44" y2="126.584" gradientUnits="userSpaceOnUse">
<stop stop-color="#16243F"/>
<stop offset="1" stop-color="#6878B1"/>
</linearGradient>
</defs>
</svg>
