<svg width="227" height="272" viewBox="0 0 227 272" fill="none" xmlns="http://www.w3.org/2000/svg">
<path d="M149.71 210.062C144.114 216.656 137.884 222.685 131.11 228.062C119.11 237.582 110.11 236.492 96.1699 235.222C79.9199 233.742 63.7899 231.052 47.5899 229.052C45.5299 228.802 43.3299 228.472 41.8099 227.002C40.4899 225.722 39.9499 223.802 39.4699 222.002C29.9033 185.539 24.1392 148.183 22.2699 110.532C20.4899 74.472 38.2699 39.182 71.5699 25.942C106.21 12.202 151.3 21.342 171.84 55.732C200.65 104.002 184.74 169.042 149.71 210.062Z" fill="url(#paint0_linear_3_3620)"/>
<path d="M226.48 233.332C159.632 284.803 66.3909 284.392 0 232.332L48.66 209.522C50.1495 208.818 51.6014 208.037 53.01 207.182L54.13 206.482C54.53 206.232 54.92 205.972 55.31 205.702C61.4491 201.467 66.4803 195.818 69.98 189.232C73.98 181.682 75.3 173.342 75.36 164.842C75.36 159.122 75.05 153.402 74.99 147.672C74.95 144.505 74.9167 141.335 74.89 138.162L76.89 139.162L82.09 141.852L112.38 147.002L143.5 152.302L144.44 184.302L144.91 200.172L156.38 204.842L165.38 208.482L226.48 233.332Z" fill="#F2A196"/>
<path d="M144.42 184.282C134.36 186.068 124.01 185.26 114.35 181.932C92.77 174.682 78.24 157.192 76.87 139.172L82.07 141.862L112.36 147.012L143.48 152.312L144.42 184.282Z" fill="#E88870"/>
<circle cx="45.89" cy="106.152" r="17" fill="#F2A196"/>
<circle cx="51.89" cy="104.152" r="17" fill="#E88870"/>
<path d="M168.84 79.4021C181.3 122.542 157.05 172.652 138.58 174.702C93.95 179.702 62.24 156.912 49.79 113.772C37.34 70.6321 53.89 27.9521 86.79 18.4621C119.69 8.97206 156.35 36.2221 168.84 79.4021Z" fill="#F2A196"/>
<path d="M168.09 54.0821C163.37 44.2121 151.91 39.8321 141.44 36.6521C135.78 34.9421 129.97 33.2921 124.06 33.4721C118.589 33.7895 113.237 35.2006 108.32 37.6221C99.66 41.6221 90.85 47.2721 84.4 54.3321C81.27 57.7521 78.45 61.3321 75.22 64.7621C73.44 66.6621 71.7434 68.6354 70.13 70.6821C68.9 72.2421 67.5 75.4321 65.91 76.5221C95.38 56.4021 132.84 47.4021 168.09 54.0821Z" fill="#FF2609"/>
<path d="M128.47 84.3021C128.39 84.6521 138.26 123.152 138.26 123.152H125.76" stroke="#00214E"/>
<path d="M139.93 74.092C146.995 70.4913 155.167 69.7223 162.78 71.942" stroke="#00214E"/>
<path d="M84.84 77.7921C94.5829 72.8295 106.03 72.463 116.07 76.7921" stroke="#00214E"/>
<path d="M226.48 233.332C159.632 284.803 66.3909 284.392 0 232.332L48.66 209.522C50.9774 208.433 53.2015 207.155 55.31 205.702C55.95 205.262 56.59 204.802 57.2 204.322C62.4959 200.27 66.8551 195.123 69.98 189.232C72.3425 184.706 73.9118 179.808 74.62 174.752C75.3262 175.436 76.0672 176.084 76.84 176.692C82.9715 181.226 89.6259 185.007 96.66 187.952C100.075 189.377 103.567 190.609 107.12 191.642C117.824 194.763 129 195.945 140.12 195.132C141.66 195.012 143.21 194.862 144.75 194.752L144.9 199.832V200.162L157 205.082L226.48 233.332Z" fill="#00214E"/>
<path fill-rule="evenodd" clip-rule="evenodd" d="M138.47 3.14206C170.1 12.6321 187.1 39.9821 193.1 70.4521C197.169 91.5686 196.406 113.332 190.87 134.112C185.15 155.012 175.84 174.712 166.01 194.012C165.858 194.309 165.707 194.605 165.557 194.9C159.368 207.04 154.278 217.023 140.61 222.402C116.58 231.882 87.29 226.492 67.7 209.602C33.18 179.812 16.9 118.402 23.65 74.1421C31.18 24.7821 91.1 -11.0779 138.47 3.14206ZM101.78 165.552C112.02 171.092 129.01 176.182 140.48 171.552C141.164 171.236 141.814 170.851 142.42 170.402C144.073 169.271 145.57 167.926 146.87 166.402C155.42 156.902 160.7 144.942 163.87 132.402C166.06 123.469 167.399 114.348 167.87 105.162C168.78 89.2521 164.24 74.2921 156.36 60.5121C149.45 48.4321 134.74 36.3921 120.06 40.1221C111 42.4321 103.48 48.2821 97.06 54.8921C93.4381 58.6169 90.2781 62.6898 87.1237 66.7554C82.6227 72.5567 78.1331 78.3431 72.33 83.0821C69.6325 85.3843 66.6996 87.3954 63.58 89.0821C63.11 89.3221 56.76 92.4621 56.7 92.1421C57.3641 95.5634 58.2052 98.9479 59.22 102.282C65.84 125.402 76.76 149.322 97.54 163.012C98.92 163.925 100.333 164.772 101.78 165.552Z" fill="url(#paint1_linear_3_3620)"/>
<path d="M98.47 104.322C101.265 104.497 104.012 103.532 106.084 101.648C108.157 99.764 109.378 97.1213 109.47 94.3221" stroke="#00214E"/>
<path d="M142.33 92.1321C142.394 94.7639 143.598 97.2381 145.63 98.9121C147.653 100.559 149.903 101.906 152.31 102.912" stroke="#00214E"/>
<path d="M91.41 134.402C92.6549 132.313 94.194 130.413 95.98 128.762C99.6529 125.387 104.262 123.205 109.2 122.502" stroke="#00214E"/>
<path d="M117.13 57.662H140.8" stroke="#00214E"/>
<path d="M111.36 65.4821H140.8" stroke="#00214E"/>
<path d="M102.48 133.152C102.756 132.715 103.202 132.413 103.711 132.318C104.219 132.223 104.745 132.344 105.16 132.652C107.24 134.112 111.04 137.212 116.44 138.292C123.8 139.752 130.19 136.812 131.71 138.712C132.57 139.772 131.52 141.082 129.51 142.712C125.257 145.896 119.898 147.227 114.65 146.402C107.57 145.082 102.25 136.872 102.25 133.972C102.257 133.684 102.336 133.402 102.48 133.152V133.152Z" fill="white"/>
<path d="M101.57 91.1121C107.67 91.0421 107.85 100.362 101.75 100.532H101.48C95.37 100.602 95.19 91.2721 101.29 91.1021H101.57V91.1121Z" fill="#00214E"/>
<path d="M151.84 89.4721C157.51 89.4121 157.68 98.0621 152.01 98.2221H151.76C146.1 98.2921 145.93 89.6321 151.59 89.4821H151.84V89.4721Z" fill="#00214E"/>
<defs>
<linearGradient id="paint0_linear_3_3620" x1="22.1499" y1="236.054" x2="186.76" y2="236.054" gradientUnits="userSpaceOnUse">
<stop stop-color="#16243F"/>
<stop offset="1" stop-color="#6878B1"/>
</linearGradient>
<linearGradient id="paint1_linear_3_3620" x1="22.15" y1="227.025" x2="195.67" y2="227.025" gradientUnits="userSpaceOnUse">
<stop stop-color="#16243F"/>
<stop offset="1" stop-color="#6878B1"/>
</linearGradient>
</defs>
</svg>
