<svg width="270" height="272" viewBox="0 0 270 272" fill="none" xmlns="http://www.w3.org/2000/svg">
<path d="M156.49 209.762C137.792 208.01 119.246 204.898 101 200.452C64 191.232 28.22 174.952 0 149.312C24.9 123.312 38.47 108.312 58 78.0523C72.48 55.6323 90.28 16.2123 117.13 6.05234C159.19 -9.87766 216.01 5.60234 227.96 52.9223C233.02 72.9223 233.21 93.8423 230.34 114.182C229.05 123.352 219.77 212.872 214.44 212.792C195.11 212.462 175.73 211.672 156.49 209.762Z" fill="#F2D4CF"/>
<path d="M269.68 232.712C202.832 284.184 109.591 283.772 43.2 231.712L91.86 208.902C93.3495 208.198 94.8014 207.417 96.21 206.562L97.33 205.862C97.73 205.612 98.12 205.352 98.51 205.082C104.649 200.847 109.68 195.198 113.18 188.612C117.18 181.062 118.5 172.722 118.56 164.222C118.56 158.502 118.25 152.782 118.19 147.052C118.15 143.886 118.117 140.716 118.09 137.542L120.09 138.542L125.29 141.232L155.58 146.382L186.7 151.682L187.64 183.682L188.11 199.552L199.58 204.222L208.58 207.862L269.68 232.712Z" fill="#F2A196"/>
<path d="M187.52 175.572C184.8 177.252 182.23 178.042 179.98 177.802C165.19 176.212 136.34 164.622 118.18 143.172C118.18 142.119 118.16 141.069 118.12 140.022C118.08 136.849 118.047 133.679 118.02 130.512L120.02 131.512L125.22 134.202L155.49 139.342L186.61 144.642L187.52 175.572Z" fill="#E88870"/>
<circle cx="93.1" cy="105.532" r="17" fill="#F2A196"/>
<circle cx="99.1" cy="103.532" r="17" fill="#E88870"/>
<path d="M208.68 79.7823C220.43 120.472 195.48 169.652 180.14 169.652C159.14 169.652 108.14 152.882 96.41 112.192C84.68 71.5023 100.24 31.2723 131.24 22.3423C162.24 13.4123 196.9 39.1023 208.68 79.7823Z" fill="#F2A196"/>
<circle cx="145.34" cy="92.7223" r="15.16" fill="#00214E"/>
<circle cx="196.7" cy="90.2823" r="15.16" fill="#00214E"/>
<path d="M177.34 25.3923C173.03 44.1023 163.64 59.9823 146.48 71.5423C127.96 84.3423 106.68 86.1723 85.35 90.4023C85.89 77.2923 86.18 63.2523 92.94 51.5523C100.615 38.5746 111.82 28.0455 125.25 21.1923C140.06 13.5423 162.97 6.04234 179.6 11.3423C179.145 16.0688 178.39 20.7616 177.34 25.3923V25.3923Z" fill="#F2D4CF"/>
<path d="M171.68 81.6823C171.6 82.0323 179.6 114.032 179.6 114.032H167.1" stroke="#00214E"/>
<path d="M183.14 71.4723C190.209 67.8832 198.38 67.1216 205.99 69.3423" stroke="#00214E"/>
<path d="M128.03 75.1723C137.772 70.2056 149.22 69.839 159.26 74.1723" stroke="#00214E"/>
<path d="M157.6 93.6123L183.14 91.4323" stroke="#00214E"/>
<path d="M269.68 232.712C202.832 284.184 109.591 283.772 43.2 231.712L91.86 208.902C94.1774 207.813 96.4015 206.535 98.51 205.082C99.15 204.642 99.79 204.182 100.4 203.702C105.696 199.65 110.055 194.503 113.18 188.612C115.542 184.086 117.112 179.189 117.82 174.132C118.526 174.817 119.267 175.464 120.04 176.072C126.174 180.611 132.832 184.394 139.87 187.342C143.285 188.767 146.777 189.999 150.33 191.032C161.034 194.154 172.21 195.335 183.33 194.522C184.87 194.402 186.42 194.252 187.96 194.142L188.11 199.222V199.552L200.21 204.472L269.68 232.712Z" fill="#FF2609"/>
<path d="M145.68 125.342C145.955 124.901 146.402 124.594 146.913 124.497C147.424 124.4 147.953 124.522 148.37 124.832C150.44 126.302 154.24 129.392 159.64 130.472C167 131.932 173.39 128.992 174.91 130.892C175.77 131.962 174.72 133.262 172.71 134.942C168.456 138.116 163.103 139.443 157.86 138.622C150.77 137.302 145.46 129.092 145.46 126.192C145.455 125.894 145.531 125.601 145.68 125.342Z" fill="white"/>
</svg>
