<svg width="234" height="274" viewBox="0 0 234 274" fill="none" xmlns="http://www.w3.org/2000/svg">
<path fill-rule="evenodd" clip-rule="evenodd" d="M192.039 88.121C191.964 94.2084 191.892 100.046 192.13 105.321C193.49 135.441 194.053 165.568 193.82 195.701C175.294 200.066 152.905 200.048 132.894 200.032C129.843 200.03 126.848 200.028 123.93 200.041C80.87 200.251 40.18 191.961 0 177.381C6.55669 142.036 15.8855 107.262 27.9 73.3809C29.44 69.0409 31.15 64.5909 33.08 60.1409C41.78 39.9509 54.65 19.7109 74.08 9.31088C76.3798 8.0761 78.7583 6.99377 81.2 6.07088C115.4 -6.87912 161.22 0.460882 182.79 32.2209C192.551 46.5913 192.279 68.6367 192.039 88.121ZM96.94 78.6809L101.71 80.0709L159.74 53.1909C153.871 50.2426 144.977 45.5863 134.39 40.0433C133.378 39.5137 132.351 38.976 131.31 38.4309C126.251 53.3015 116.404 66.0748 103.31 74.7509C101.258 76.1734 99.1318 77.4852 96.94 78.6809Z" fill="#845161"/>
<path d="M233.92 235.611C167.072 287.082 73.8309 286.671 7.43994 234.611L56.0999 211.791C57.5894 211.087 59.0413 210.306 60.4499 209.451L61.5699 208.751C61.9699 208.501 62.3599 208.241 62.7499 207.971C68.889 203.736 73.9203 198.087 77.4199 191.501C81.4199 183.951 82.7399 175.611 82.7999 167.111C82.7999 161.391 82.4899 155.671 82.4299 149.941C82.3899 146.768 82.3566 143.598 82.3299 140.431L84.3299 141.431L89.5299 144.121L119.79 149.291L150.91 154.591L151.85 186.591L152.32 202.461L163.79 207.101L172.79 210.741L233.92 235.611Z" fill="#F2D4CF"/>
<path d="M151.86 186.561C141.8 188.347 131.451 187.538 121.79 184.211C100.21 176.961 85.6801 159.471 84.3101 141.451L89.5101 144.141L119.79 149.291L150.91 154.591L151.86 186.561Z" fill="#DAAEA8"/>
<circle cx="53.3301" cy="108.431" r="17" fill="#F2D4CF"/>
<circle cx="59.3301" cy="106.431" r="17" fill="#DAAEA8"/>
<path d="M176.24 81.6409C188.7 124.791 164.45 174.891 145.98 176.951C101.35 181.951 69.64 159.161 57.18 116.011C44.72 72.8609 61.28 30.2009 94.18 20.7109C127.08 11.2209 163.79 38.5009 176.24 81.6409Z" fill="#F2D4CF"/>
<path d="M136.43 14.5509C135.967 19.277 135.209 23.9696 134.16 28.6009C133.398 31.9291 132.446 35.2111 131.31 38.4309C126.251 53.3015 116.404 66.0748 103.31 74.7509C101.258 76.1734 99.1317 77.4853 96.9399 78.6809C79.9899 88.0109 61.0999 89.8609 42.1799 93.6009C42.5899 83.7409 42.8499 73.3609 45.8299 63.8509C46.8073 60.6925 48.1356 57.6535 49.7899 54.7909C57.4622 41.8111 68.6682 31.2814 82.0999 24.4309C85.9272 22.4601 89.8598 20.7008 93.8799 19.1609C107.45 13.9009 123.79 10.5109 136.43 14.5509Z" fill="#845161"/>
<path d="M147.36 76.3709C154.429 72.7721 162.602 71.9998 170.22 74.2109" stroke="#00214E"/>
<path d="M233.92 235.611C167.072 287.082 73.8309 286.67 7.43994 234.611L56.0999 211.791C58.4173 210.701 60.6414 209.424 62.7499 207.971C63.3899 207.531 64.0299 207.071 64.6399 206.591C69.9358 202.539 74.295 197.392 77.4199 191.501C79.7824 186.975 81.3518 182.077 82.0599 177.021C82.7662 177.705 83.5071 178.353 84.2799 178.961C90.4115 183.495 97.0659 187.275 104.1 190.221C107.515 191.645 111.007 192.877 114.56 193.911C125.264 197.032 136.44 198.214 147.56 197.401C149.1 197.281 150.65 197.131 152.19 197.021L152.34 202.101V202.431L164.44 207.351L233.92 235.611Z" fill="#E18477"/>
<path d="M107.09 106.411C109.887 106.591 112.637 105.628 114.71 103.743C116.784 101.858 118.004 99.212 118.09 96.4109" stroke="#00214E"/>
<path d="M149.79 94.4109C149.848 97.0414 151.053 99.5151 153.09 101.181C155.105 102.835 157.352 104.183 159.76 105.181" stroke="#00214E"/>
<path d="M98.8501 136.671C100.097 134.58 101.636 132.678 103.42 131.021C107.092 127.656 111.698 125.484 116.63 124.791" stroke="#00214E"/>
<path d="M124.57 57.1909H148.24" stroke="#00214E"/>
<path d="M118.79 65.0109H148.24" stroke="#00214E"/>
<path d="M147.06 116.421C147.53 117.161 147.96 117.931 148.36 118.721C148.807 119.468 149.109 120.292 149.25 121.151C149.277 121.772 149.022 122.372 148.556 122.783C148.09 123.195 147.463 123.374 146.85 123.271C146.22 123.141 145.95 124.101 146.58 124.271C147.388 124.429 148.225 124.26 148.908 123.801C149.591 123.341 150.063 122.629 150.22 121.821C150.285 120.79 150.041 119.763 149.52 118.871C149.05 117.861 148.516 116.882 147.92 115.941C147.58 115.401 146.71 115.941 147.06 116.451V116.421Z" fill="#00214E"/>
<path d="M130.34 117.581C129.49 118.951 128.49 120.641 128.97 122.321C129.37 123.681 130.81 124.941 132.28 124.401C132.88 124.191 132.63 123.221 132.02 123.401C131.02 123.781 130.02 122.721 129.88 121.761C129.66 120.431 130.54 119.111 131.21 118.051C131.55 117.501 130.69 117.001 130.34 117.541V117.581Z" fill="#00214E"/>
<path d="M109.92 135.431C110.196 134.994 110.642 134.691 111.151 134.597C111.659 134.502 112.184 134.623 112.6 134.931C114.68 136.391 118.48 139.491 123.88 140.561C131.24 142.031 137.62 139.091 139.15 140.981C140.01 142.051 138.96 143.361 136.95 145.031C132.697 148.215 127.338 149.546 122.09 148.721C115.01 147.391 109.69 139.191 109.69 136.291C109.69 135.989 109.769 135.692 109.92 135.431V135.431Z" fill="white"/>
<path d="M131.31 38.4309C126.251 53.3015 116.404 66.0748 103.31 74.7509C101.258 76.1734 99.1318 77.4853 96.94 78.6809L49.79 64.9909L45.79 63.8509L33.05 60.1409C41.75 39.9509 54.62 19.7109 74.05 9.31091L80.44 12.4609C84.89 14.6509 89.37 16.8809 93.82 19.1309C107.07 25.7909 120.04 32.5409 131.31 38.4309Z" fill="url(#paint0_linear_3_4047)"/>
<path d="M92.26 80.0708C101.999 75.1086 113.443 74.7421 123.48 79.0708" stroke="#00214E"/>
<ellipse cx="106.382" cy="92.2531" rx="3.278" ry="7.95943" transform="rotate(-85.9958 106.382 92.2531)" fill="#00214E"/>
<ellipse cx="162.598" cy="92.277" rx="7.94" ry="3.27" transform="rotate(-8.86 162.598 92.277)" fill="#00214E"/>
<defs>
<linearGradient id="paint0_linear_3_4047" x1="123.314" y1="105.808" x2="141.739" y2="18.0995" gradientUnits="userSpaceOnUse">
<stop offset="0.29" stop-color="#845161"/>
<stop offset="0.52" stop-color="#AD8390"/>
<stop offset="0.8" stop-color="#845161"/>
</linearGradient>
</defs>
</svg>
