<svg width="227" height="320" viewBox="0 0 227 320" fill="none" xmlns="http://www.w3.org/2000/svg">
<path d="M122.09 57.2599C120.72 63.1299 112.88 66.0299 109.57 70.6499C106.14 75.4299 105.83 83.7499 100.91 86.8099C95.9901 89.8699 88.4001 86.4699 82.5901 87.4299C76.9901 88.3599 70.9201 94.0999 65.0401 92.7299C59.1601 91.3599 56.2701 83.5199 51.6501 80.2099C46.8701 76.7799 38.5501 76.4799 35.4901 71.5499C32.4301 66.6199 35.8301 59.0399 34.8701 53.2299C33.9401 47.6299 28.2001 41.5599 29.5701 35.6899C30.9401 29.8199 38.7701 26.9099 42.0801 22.2899C45.5201 17.5099 45.8201 9.1899 50.7401 6.1299C55.6601 3.0699 63.2601 6.4699 69.0701 5.5099C74.6701 4.5899 80.7401 -1.1601 86.6101 0.209895C92.4801 1.5799 95.3901 9.41989 100.01 12.7299C104.79 16.1599 113.1 16.4599 116.16 21.3899C119.22 26.3199 115.82 33.8999 116.79 39.7099C117.71 45.3099 123.46 51.3799 122.09 57.2599Z" fill="#DAAEA8"/>
<path d="M139.91 192.06C137.39 195.06 135.21 198.35 132.64 201.3C119.02 216.96 89.3401 206.66 74.5901 197.3C63.7501 190.45 55.5901 180.11 48.5901 169.35C39.9901 156.08 32.8101 141.65 29.6901 126.15C15.4201 55.1499 106.47 24.2499 157.56 59.0899C176.56 72.0899 193.73 101.25 189.56 124.62C187.43 136.48 179 147.15 179.9 159.17C180.9 172.11 192.59 184.43 187.69 196.45C185.78 201.16 181.64 204.51 178.28 208.33C173.76 213.47 170.45 219.91 170.06 226.75C169.67 233.59 172.51 240.75 178.15 244.67C164.22 242.81 155.64 226.14 159.24 212.55C160.42 208.1 162.6 203.93 163.55 199.42C164.5 194.91 163.94 189.64 160.49 186.58C156.06 182.65 148.84 184.14 144.19 187.81C142.623 189.078 141.189 190.502 139.91 192.06V192.06Z" fill="#F2D4CF"/>
<path d="M226.48 280.77C159.632 332.241 66.3909 331.829 0 279.77L48.71 256.98C50.1995 256.276 51.6514 255.495 53.06 254.64L54.18 253.94C54.58 253.69 54.97 253.43 55.36 253.16C61.4991 248.925 66.5303 243.276 70.03 236.69C74.03 229.14 75.35 220.8 75.41 212.3C75.41 206.58 75.1 200.86 75.04 195.13C75 191.957 74.9667 188.787 74.94 185.62L76.94 186.62L82.14 189.31L112.43 194.46L143.55 199.76L144.49 231.76L144.96 247.63L156.43 252.3L165.43 255.94L226.48 280.77Z" fill="#845161"/>
<path d="M144.42 231.77C134.36 233.556 124.01 232.747 114.35 229.42C92.77 222.17 78.24 204.68 76.87 186.66L82.07 189.35L112.36 194.5L143.48 199.8L144.42 231.77Z" fill="#69303A"/>
<circle cx="45.89" cy="153.62" r="17" fill="#845161"/>
<circle cx="51.89" cy="151.62" r="17" fill="#69303A"/>
<path d="M168.81 126.83C181.26 169.98 157.01 220.08 138.55 222.14C93.91 227.14 62.2 204.35 49.75 161.2C37.3 118.05 53.85 75.3899 86.75 65.8999C119.65 56.4099 156.35 83.6899 168.81 126.83Z" fill="#845161"/>
<path d="M103.97 179.6C108.777 184.968 115.368 188.411 122.52 189.29" stroke="#00214E"/>
<path d="M142.34 139.6C142.397 142.23 143.603 144.704 145.64 146.37C147.656 148.022 149.903 149.37 152.31 150.37" stroke="#00214E"/>
<path d="M130.1 137.44C130.1 137.69 135.64 153.32 139.03 162.77C139.598 164.375 139.351 166.156 138.37 167.547C137.388 168.938 135.793 169.767 134.09 169.77H130.45" stroke="#00214E"/>
<ellipse cx="100.21" cy="141.71" rx="19" ry="11.84" stroke="white"/>
<ellipse cx="155.02" cy="139.16" rx="19" ry="11.84" stroke="white"/>
<path d="M119.21 141.71L136.16 140.42" stroke="white"/>
<path d="M128.11 78.1799C125.71 82.9199 120.71 87.0399 117.71 91.8899C113.82 98.2399 110.88 105.14 107.58 111.81C105.13 116.81 102.4 121.75 98.26 125.42C94.12 129.09 88.26 131.26 82.94 129.73C79.3 128.73 76.35 126.09 73.09 124.15C69.83 122.21 65.71 120.93 62.34 122.77C57.42 125.41 57.49 132.58 53.97 136.91C45.9 146.84 31.09 133.46 29.3 124.79C26.7 112.12 37.09 101.53 44.65 92.7899C50.96 85.4899 59.49 74.3599 69.39 71.9199C69.56 71.9199 127.39 48.9199 127.39 48.9199C127.9 56.6499 131.02 68.0799 129.16 75.4799C128.908 76.4149 128.556 77.3201 128.11 78.1799Z" fill="#F2D4CF"/>
<path d="M117.82 163.5C116.491 164.292 115.934 165.933 116.506 167.37C117.078 168.808 118.61 169.618 120.12 169.28" stroke="#00214E"/>
<path d="M139.93 121.56C146.995 117.961 155.166 117.188 162.78 119.4" stroke="#00214E"/>
<path d="M84.8199 125.26C94.5632 120.299 106.009 119.932 116.05 124.26" stroke="#00214E"/>
<path d="M226.48 280.77C159.632 332.241 66.3909 331.83 0 279.77L48.71 256.98C51.0274 255.891 53.2515 254.613 55.36 253.16C56 252.72 56.64 252.26 57.25 251.78C62.5459 247.728 66.9051 242.581 70.03 236.69C72.3924 232.164 73.9618 227.266 74.67 222.21C75.3762 222.894 76.1172 223.542 76.89 224.15C83.0215 228.684 89.6759 232.464 96.71 235.41C100.125 236.834 103.617 238.066 107.17 239.1C117.874 242.221 129.05 243.403 140.17 242.59C141.71 242.47 143.26 242.32 144.8 242.21L144.95 247.29V247.62L157.05 252.54L226.48 280.77Z" fill="#00214E"/>
<path d="M98.47 151.77C101.265 151.944 104.012 150.98 106.084 149.096C108.157 147.212 109.378 144.569 109.47 141.77" stroke="#00214E"/>
<path d="M91.41 181.86C92.658 179.77 94.1967 177.867 95.98 176.21C99.6549 172.84 104.264 170.661 109.2 169.96" stroke="#00214E"/>
<path d="M117.14 102.38H140.8" stroke="#00214E"/>
<path d="M111.36 110.2H140.8" stroke="#00214E"/>
<path d="M101.17 136.49C107.28 136.42 107.46 145.75 101.36 145.91H101.08C94.9801 145.98 94.8001 136.66 100.9 136.49H101.17Z" fill="#00214E"/>
<path d="M151.41 134.86C157.08 134.79 157.24 143.44 151.58 143.6H151.33C145.67 143.66 145.5 135.01 151.16 134.85H151.41V134.86Z" fill="#00214E"/>
</svg>
