<svg width="227" height="275" viewBox="0 0 227 275" fill="none" xmlns="http://www.w3.org/2000/svg">
<path fill-rule="evenodd" clip-rule="evenodd" d="M173.688 57.1376C174.028 58.7856 174.375 60.4674 174.74 62.1843C184.19 106.474 187.77 186.034 187.77 186.034C187.77 186.034 31.47 186.924 1.53003 183.924L1.77374 182.49C6.04231 157.368 10.3106 132.248 15.07 107.214C15.4709 105.06 15.8724 102.853 16.2814 100.605C18.7191 87.2045 21.4243 72.3338 25.86 58.5043C29.3 47.7643 33.82 37.6443 40.13 29.3243C44.6221 23.6637 50.1168 18.8774 56.34 15.2043C70.56 6.50429 88.73 1.35429 103.21 0.204289C120.28 -1.14571 137.82 4.26429 151.55 14.3843C167.258 25.9805 170.082 39.6644 173.688 57.1376ZM83.77 77.1943L100.57 82.6243L138.14 60.2543L134.43 58.1943L83.77 77.1943Z" fill="#00214E"/>
<path d="M226.48 236.664C159.632 288.136 66.3909 287.724 0 235.664L48.66 212.854C50.1495 212.15 51.6014 211.369 53.01 210.514L54.13 209.814C54.53 209.564 54.92 209.304 55.31 209.034C61.4491 204.799 66.4803 199.15 69.98 192.564C73.98 185.014 75.3 176.674 75.36 168.174C75.36 162.454 75.05 156.734 74.99 151.004C74.95 147.838 74.9167 144.668 74.89 141.494L76.89 142.494L82.09 145.184L112.36 150.324L143.48 155.624L144.42 187.624L144.89 203.494L156.36 208.164L165.36 211.804L226.48 236.664Z" fill="#F2D4CF"/>
<path d="M144.23 183.924C141.51 185.604 138.94 186.394 136.69 186.154C121.9 184.564 93.05 172.974 74.89 151.524C74.89 150.478 74.87 149.428 74.83 148.374C74.79 145.201 74.7566 142.031 74.73 138.864L76.73 139.864L81.93 142.554L112.22 147.704L143.34 153.004L144.23 183.924Z" fill="#DAAEA8"/>
<path d="M226.48 236.664C159.632 288.136 66.3909 287.724 0 235.664L48.66 212.854C50.16 212.148 51.61 211.371 53.01 210.524C76.69 227.934 109.65 239.264 138.07 226.474C146.13 222.854 153.4 216.424 156.36 208.164L165.36 211.804L226.48 236.664Z" fill="#FF2609"/>
<circle cx="48.21" cy="108.214" r="17" fill="#F2D4CF"/>
<circle cx="54.21" cy="106.214" r="17" fill="#DAAEA8"/>
<path d="M163.75 82.4643C175.49 123.154 150.55 172.344 135.21 172.344C114.21 172.344 63.21 155.564 51.48 114.874C39.75 74.1843 55.35 33.9543 86.35 25.0043C117.35 16.0543 152 41.7843 163.75 82.4643Z" fill="#F2D4CF"/>
<path d="M133 78.4543C140.066 74.8553 148.241 74.0933 155.85 76.3243" stroke="#00214E"/>
<path d="M84.12 80.7443C93.8633 75.7832 105.309 75.4167 115.35 79.7443" stroke="#00214E"/>
<ellipse cx="97.3388" cy="93.7558" rx="3.27" ry="7.94" transform="rotate(-85.77 97.3388 93.7558)" fill="#00214E"/>
<ellipse cx="148.831" cy="92.1391" rx="7.94" ry="3.27" transform="rotate(-13.23 148.831 92.1391)" fill="#00214E"/>
<path d="M133.8 102.814C133.8 102.814 134.09 108.464 135.42 111.114C135.99 112.254 136.87 113.224 137.42 114.354C139.63 118.694 136.05 119.604 132.61 119.604" stroke="#00214E"/>
<path d="M119.88 112.694C118.387 113.458 117.675 115.196 118.201 116.788C118.728 118.381 120.336 119.351 121.99 119.074" stroke="#00214E"/>
<path d="M101.9 128.204C102.178 127.767 102.626 127.464 103.136 127.369C103.646 127.274 104.173 127.396 104.59 127.704C106.66 129.164 110.46 132.264 115.86 133.334C123.22 134.804 129.61 131.854 131.13 133.754C131.99 134.824 130.94 136.134 128.93 137.754C124.685 140.957 119.325 142.306 114.07 141.494C106.98 140.164 101.67 131.964 101.67 129.064C101.668 128.762 101.748 128.465 101.9 128.204Z" fill="white"/>
<path d="M156.57 49.9343L134.43 58.2243L83.7699 77.1943H83.7599L45.9299 91.3643L45.3499 64.7943L44.5699 28.9343L68.0599 21.6143L105.57 9.93433L156.57 49.9343V49.9343Z" fill="#00214E"/>
<path d="M134.43 58.2243L83.77 77.2243V77.2243L45.36 64.8243L25.87 58.5343C29.31 47.7943 33.87 37.6743 40.14 29.3543C44.6348 23.7045 50.1293 18.9285 56.35 15.2643C59.85 17.1543 63.82 19.2643 68.07 21.6443C91.52 34.4343 123.64 52.2343 134.43 58.2243Z" fill="url(#paint0_linear_3_4028)"/>
<defs>
<linearGradient id="paint0_linear_3_4028" x1="126.399" y1="100.303" x2="136.282" y2="28.3373" gradientUnits="userSpaceOnUse">
<stop offset="0.29" stop-color="#00214E"/>
<stop offset="0.51" stop-color="#6878B1"/>
<stop offset="0.79" stop-color="#00214E"/>
</linearGradient>
</defs>
</svg>
