<svg width="340" height="340" viewBox="0 0 340 340" fill="none" xmlns="http://www.w3.org/2000/svg">
<path d="M283.3 262.689C218.819 317.099 125.65 320.854 57 271.809L104.59 246.809C106.856 245.62 109.021 244.245 111.06 242.699C111.68 242.229 112.3 241.699 112.89 241.229C117.998 236.946 122.122 231.611 124.98 225.589C127.137 220.958 128.49 215.993 128.98 210.909C129.317 207.61 129.414 204.291 129.27 200.979C129.06 195.259 128.45 189.569 128.14 183.839C127.95 180.679 127.78 177.509 127.61 174.349L129.61 175.279L134.93 177.729L137.36 178.029L165.42 181.519L196.75 185.419L199.12 217.319L199.89 227.749L200.27 232.819V233.149L212.57 237.529L283.3 262.689Z" fill="#F2A196"/>
<path d="M283.3 262.689C218.819 317.099 125.65 320.854 57 271.809L104.59 246.809C106.856 245.62 109.021 244.245 111.06 242.699C111.68 242.229 112.3 241.699 112.89 241.229C137.18 256.919 169.75 266.079 196.96 252.339C203.44 249.079 209.3 243.939 212.61 237.569L283.3 262.689Z" fill="url(#paint0_linear_3_4570)"/>
<path d="M200.31 233.189C189.89 234.289 178.08 231.789 166.94 226.009C146.02 215.139 134.2 195.089 137.36 178.069L165.42 181.559L196.75 185.459L199.12 217.359L200.31 233.189Z" fill="#E88870"/>
<path d="M245.89 67.8386C248.647 73.0471 250.257 78.7858 250.61 84.6686C251.77 105.819 240.33 126.819 227.19 142.619L226.91 142.959C216.82 154.549 200.24 157.889 186.54 163.259C181.61 165.199 128.15 183.009 128.3 186.369C128.3 185.639 122.73 180.589 115.72 174.509C103.02 163.474 94.1331 148.707 90.3301 132.319C87.1701 118.499 88.5301 101.199 92.0101 87.5186C98.2901 62.8586 118.2 46.1786 141.95 39.0186C164.95 32.0886 194.87 31.7486 217.01 41.7186C228.86 47.0586 239.87 56.2486 245.89 67.8386Z" fill="#F2D4CF"/>
<circle cx="116.52" cy="146.859" r="17" fill="#F2A196"/>
<circle cx="121.91" cy="146.609" r="15.22" fill="#E88870"/>
<path d="M121.42 130.569L125.08 160.569L127.48 180.209C128.36 187.439 131.38 191.649 136.36 197.209C145.226 207.128 156.291 214.834 168.67 219.709C180.48 224.349 196.78 228.769 208.92 223.209C221.32 217.519 224.73 203.149 228.45 191.209C232.17 179.269 235.55 166.129 234.78 153.439C233.78 136.209 228.78 126.739 228.78 126.739L231.18 106.739C232.09 99.1886 233.35 91.2786 231.18 83.8186C228.66 75.2686 221.97 71.8186 216.31 65.6486C202.97 84.4986 180.18 95.8386 160.31 107.229C150.06 113.099 121.42 130.569 121.42 130.569Z" fill="#F2A196"/>
<path d="M195.86 127.089C195.8 127.439 210.93 164.929 210.93 164.929L193.05 166.599" stroke="#00214E"/>
<path d="M149.59 122.599C158.754 120.275 168.256 119.582 177.66 120.549" stroke="#00214E"/>
<path d="M212.08 118.849C217.73 117.261 223.597 116.586 229.46 116.849" stroke="#00214E"/>
<path d="M161.09 182.029C164.507 175.773 169.547 170.553 175.68 166.919" stroke="#00214E"/>
<path d="M176.98 136.589C176.665 140.742 174.145 144.407 170.38 146.189C168.354 147.033 166.22 147.591 164.04 147.849" stroke="#00214E"/>
<path d="M243.09 107.769C243.83 96.3786 242.61 84.5486 237.23 74.4786C233.945 68.2173 228.952 63.016 222.83 59.4786C218.48 57.0386 208.83 52.9886 204.4 57.0986C195.24 65.5286 215.8 85.9786 221.04 91.1486C227.61 97.6541 235.027 103.244 243.09 107.769V107.769Z" fill="#F2D4CF"/>
<path d="M176.89 104.169L208.47 102.759" stroke="#00214E"/>
<path d="M173.17 110.879L204.74 109.459" stroke="#00214E"/>
<path d="M209.67 132.839C210.74 135.341 212.103 137.707 213.73 139.889C215.321 141.895 217.617 143.222 220.15 143.599" stroke="#00214E"/>
<path d="M172.98 178.009C173.236 177.558 173.669 177.235 174.174 177.117C174.679 176.999 175.211 177.098 175.64 177.389C177.77 178.749 181.71 181.679 187.15 182.509C194.57 183.639 200.82 180.419 202.43 182.249C203.33 183.249 202.34 184.629 200.43 186.389C196.32 189.752 191.029 191.32 185.75 190.739C178.62 189.739 172.94 181.739 172.81 178.869C172.791 178.572 172.849 178.276 172.98 178.009V178.009Z" fill="white"/>
<path d="M166.52 130.919C172.61 130.579 173.21 139.919 167.12 140.329H166.85C160.76 140.669 160.16 131.329 166.24 130.919H166.52V130.919Z" fill="#00214E"/>
<path d="M216.63 126.989C222.29 126.669 222.84 135.309 217.19 135.719H216.94C211.29 136.039 210.73 127.409 216.38 126.999H216.63V126.989Z" fill="#00214E"/>
<defs>
<linearGradient id="paint0_linear_3_4570" x1="73.9232" y1="311.773" x2="260.9" y2="220.869" gradientUnits="userSpaceOnUse">
<stop stop-color="#16243F"/>
<stop offset="1" stop-color="#6878B1"/>
</linearGradient>
</defs>
</svg>
