<svg width="227" height="274" viewBox="0 0 227 274" fill="none" xmlns="http://www.w3.org/2000/svg">
<path d="M200.51 162.153C200.51 162.153 15.1899 153.723 13.2499 153.643C8.24995 146.883 13.6699 131.543 17.5599 125.583C24.2999 115.263 36.4799 108.583 40.4999 96.9233C45.1299 83.4733 37.3799 72.8633 36.1699 60.1433C35.0699 48.0733 39.9399 35.7233 47.9199 26.7233C64.0699 8.72329 90.8599 -0.19671 116.73 0.00328953C130.23 0.0932895 143.47 2.67329 154.81 7.70329C156.19 8.31329 157.53 8.95329 158.81 9.63329C159.81 10.1633 160.81 10.7233 161.81 11.3133C173.04 18.0089 182.33 27.5188 188.76 38.9033C196.67 52.7433 198.55 65.5733 193.92 80.9033C190.92 90.7233 187.19 100.903 189.05 110.903C191.05 121.953 199.59 130.903 201.83 141.903C203.26 148.663 202.21 155.583 200.51 162.153Z" fill="#F2D4CF"/>
<path d="M226.48 235.473C159.632 286.945 66.3909 286.533 0 234.473L48.66 211.663C50.9774 210.574 53.2015 209.296 55.31 207.843C55.95 207.403 56.59 206.943 57.2 206.463C62.4959 202.411 66.8551 197.264 69.98 191.373C72.3425 186.847 73.9118 181.95 74.62 176.893C75.1084 173.612 75.3557 170.3 75.36 166.983C75.36 161.263 75.05 155.543 74.99 149.813C74.95 146.64 74.9167 143.47 74.89 140.303L76.89 141.303L82.09 143.993L84.5 144.403L112.38 149.143L143.5 154.443L144.44 186.443L144.75 196.903L144.9 201.983V202.313L157 207.233L226.48 235.473Z" fill="#F2A196"/>
<path d="M144.78 199.913C141.343 200.505 137.807 199.957 134.71 198.353L75.0701 149.573C75.0001 147.313 74.9401 149.683 74.9101 147.423C74.8701 144.257 74.8367 141.087 74.8101 137.913L76.8101 138.913L82.0101 141.603L84.4201 142.013L112.3 146.753L143.42 152.053L144.36 184.053L144.67 194.513L144.82 199.593V199.923L144.78 199.913Z" fill="#E88870"/>
<path d="M226.48 235.473C159.632 286.945 66.3909 286.533 0 234.473L48.66 211.663C50.9774 210.574 53.2015 209.296 55.31 207.843C55.95 207.403 56.59 206.943 57.2 206.463C80.75 223.223 112.89 233.793 140.69 221.283C147.31 218.283 153.39 213.443 156.99 207.223L226.48 235.473Z" fill="url(#paint0_linear_3_3790)"/>
<circle cx="63.04" cy="114.263" r="17" fill="#F2A196"/>
<circle cx="68.43" cy="114.013" r="15.22" fill="#E88870"/>
<path d="M67.9 97.9733L74.96 154.723C75.14 156.183 85.96 160.463 87.23 161.133C101.73 168.723 116.66 178.823 133.07 181.423C140.07 182.533 147.42 182.423 154.07 179.853C165.79 175.353 167.37 166.533 171.39 156.153C175.01 146.798 177.859 137.163 179.91 127.343C181.91 117.943 183.69 105.013 176.79 96.9533C175.95 95.9533 175.05 95.4233 175.22 93.9533C176.68 81.6333 179 67.6933 173.63 56.0533C170.13 48.4833 164.47 42.1133 158.26 36.5633C158.26 36.5633 111.03 72.0633 106.74 74.5633C96.51 80.4333 67.9 97.9733 67.9 97.9733Z" fill="#F2A196"/>
<path d="M145.24 94.7233C145.24 95.0133 157.9 124.543 157.9 124.543L142.9 125.993" stroke="#00214E"/>
<path d="M99.21 82.3333C108.367 79.9902 117.865 79.276 127.27 80.2233" stroke="#00214E"/>
<path d="M158.35 82.0233C164.001 80.4402 169.867 79.7651 175.73 80.0233" stroke="#00214E"/>
<path d="M121.32 135.793C121.576 135.343 122.009 135.019 122.514 134.902C123.019 134.784 123.551 134.882 123.98 135.173C126.12 136.543 130.06 139.473 135.5 140.303C142.91 141.443 149.17 138.223 150.77 140.053C151.68 141.053 150.69 142.433 148.77 144.193C144.656 147.563 139.355 149.128 134.07 148.533C126.94 147.533 121.26 139.533 121.14 136.653C121.124 136.356 121.186 136.059 121.32 135.793Z" fill="white"/>
<path d="M116.65 93.4833C122.74 93.2133 123.23 102.533 117.14 102.893H116.87C110.77 103.163 110.28 93.8433 116.38 93.4833H116.65Z" fill="#00214E"/>
<path d="M166.81 90.2033C172.46 89.9533 172.92 98.5933 167.26 98.9333H167.01C161.35 99.1833 160.9 90.5433 166.55 90.2033H166.81V90.2033Z" fill="#00214E"/>
<defs>
<linearGradient id="paint0_linear_3_3790" x1="0" y1="273.791" x2="226.48" y2="273.791" gradientUnits="userSpaceOnUse">
<stop stop-color="#16243F"/>
<stop offset="1" stop-color="#6878B1"/>
</linearGradient>
</defs>
</svg>
