<svg width="227" height="293" viewBox="0 0 227 293" fill="none" xmlns="http://www.w3.org/2000/svg">
<path d="M226.48 254.333C159.632 305.804 66.3909 305.393 0 253.333L48.66 230.523C50.9774 229.434 53.2015 228.156 55.31 226.703C55.95 226.263 56.59 225.803 57.2 225.323C62.4959 221.271 66.8551 216.124 69.98 210.233C72.3425 205.707 73.9118 200.809 74.62 195.753C75.1084 192.472 75.3557 189.16 75.36 185.843C75.36 180.123 75.05 174.403 74.99 168.673C74.95 165.506 74.9167 162.336 74.89 159.163L76.89 160.163L82.09 162.853L84.5 163.263L112.38 168.003L143.5 173.303L144.44 205.303L144.75 215.763L144.9 220.843V221.153L157 226.073L226.48 254.333Z" fill="#F2A196"/>
<path d="M144.78 218.783C141.343 219.374 137.807 218.827 134.71 217.223L75.0701 168.443C75.0001 166.183 74.9401 168.553 74.9101 166.293C74.8701 163.126 74.8367 159.956 74.8101 156.783L76.8101 157.783L82.0101 160.473L84.4201 160.883L112.3 165.623L143.42 170.923L144.36 202.923L144.67 213.383L144.82 218.463V218.793L144.78 218.783Z" fill="#E88870"/>
<path d="M226.48 254.333C159.632 305.804 66.3909 305.393 0 253.333L48.66 230.523C50.9774 229.434 53.2015 228.156 55.31 226.703C55.95 226.263 56.59 225.803 57.2 225.323C80.75 242.083 112.89 252.653 140.69 240.143C147.31 237.143 153.39 232.303 156.99 226.083L226.48 254.333Z" fill="#FF2609"/>
<path d="M208.58 54.053C208.49 54.643 208.38 55.223 208.25 55.803C207.556 58.776 206.442 61.6349 204.94 64.293L204.86 64.433C204.29 65.433 203.68 66.433 203.02 67.433C201.269 70.0001 199.358 72.455 197.3 74.783L196.07 76.153C195.24 77.083 194.4 77.993 193.56 78.893C194.194 78.7571 194.845 78.72 195.49 78.783C195.73 78.8026 195.967 78.8428 196.2 78.903C199.39 79.563 202.12 82.533 202.97 85.903C203.02 86.123 203.07 86.353 203.11 86.573C203.9 91.053 202.11 95.573 199.9 99.573C196.03 106.653 190.45 111.363 185.54 117.513C181.86 122.093 179.82 127.513 175.81 131.893L175.51 132.223L175.27 132.463C164.67 143.383 148.1 145.973 134.27 150.693C129.27 152.413 75.05 167.813 75.05 171.173C75.05 170.443 69.74 165.173 63.05 158.763C39.05 135.973 31.16 100.763 45.44 70.563C60.79 38.063 95.65 14.873 128.85 3.73296C139.23 0.252962 151.01 -2.08704 160.85 2.73296C170.69 7.55296 175.59 22.503 167.43 29.803C172.562 25.9199 178.946 24.065 185.36 24.593C191.284 24.9641 196.871 27.4769 201.08 31.663C203.431 34.0198 205.324 36.7937 206.66 39.843C207.21 41.1083 207.668 42.4117 208.03 43.743C208.93 47.1036 209.118 50.6156 208.58 54.053Z" fill="#F2D4CF"/>
<path d="M208.58 54.0529C208.49 54.6429 208.38 55.2229 208.25 55.8029C207.556 58.776 206.442 61.6349 204.94 64.2929L204.86 64.4329C204.29 65.4329 203.68 66.4329 203.02 67.4329C201.269 70.0001 199.359 72.4549 197.3 74.7829L196.07 76.153C195.24 77.083 194.4 77.9929 193.56 78.8929C194.194 78.7571 194.845 78.7199 195.49 78.7829C195.73 78.8026 195.967 78.8427 196.2 78.903C199.39 79.563 202.12 82.533 202.97 85.903C203.02 86.123 203.07 86.3529 203.11 86.5729C203.9 91.0529 202.11 95.5729 199.9 99.5729C196.03 106.653 190.45 111.363 185.54 117.513C181.86 122.093 179.82 127.513 175.81 131.893L175.51 132.223L175.27 132.463C171.249 127.053 168.687 120.699 167.83 114.013C166.12 100.173 167.16 85.0929 166.69 71.0829C166.53 66.1929 166.24 60.3629 167.81 55.7229C168.239 54.5743 168.814 53.4855 169.52 52.4829C171.36 49.5143 173.458 46.7135 175.79 44.1129C178.434 41.298 181.773 39.2286 185.47 38.1129C187.466 37.5456 189.512 37.1706 191.58 36.9929C193.791 36.7762 196.019 36.8198 198.22 37.1229C201.156 37.542 203.993 38.4799 206.6 39.8929C207.15 41.1583 207.608 42.4616 207.97 43.7929C208.884 47.1335 209.091 50.6277 208.58 54.0529Z" fill="#DAAEA8"/>
<circle cx="65.05" cy="131.153" r="17" fill="#F2A196"/>
<circle cx="70.45" cy="131.153" r="15.22" fill="#E88870"/>
<path d="M70.6699 115.153L75.0699 172.153L141.51 210.973C151.032 214.53 161.699 210.282 166.17 201.153C175.73 181.573 191.07 150.663 189.05 139.153C186.05 122.153 178.05 116.153 178.05 116.153L181.38 96.213C182.63 88.703 184.24 80.863 182.38 73.313C180.25 64.663 173.71 60.963 168.33 54.493C154.17 72.733 130.89 83.043 110.56 93.493C100.07 98.933 70.6699 115.153 70.6699 115.153Z" fill="#F2A196"/>
<path d="M145.2 110.253C145.12 110.593 158.56 146.373 158.56 146.373L140.62 147.253" stroke="#00214E"/>
<path d="M102.72 103.323C111.978 101.411 121.5 101.144 130.85 102.533" stroke="#00214E"/>
<path d="M161.77 103.433C167.487 102.112 173.376 101.704 179.22 102.223" stroke="#00214E"/>
<path d="M122.24 157.253C122.516 156.816 122.962 156.513 123.471 156.419C123.979 156.324 124.505 156.445 124.92 156.753C127 158.213 130.8 161.313 136.2 162.383C143.56 163.853 149.94 160.903 151.47 162.803C152.33 163.873 151.28 165.183 149.27 166.803C145.017 169.987 139.658 171.318 134.41 170.493C127.33 169.163 122.01 160.963 122.01 158.053C122.018 157.771 122.097 157.496 122.24 157.253V157.253Z" fill="white"/>
<path d="M119.6 114.793C125.7 114.843 125.7 124.163 119.6 124.213H119.32C113.22 124.163 113.22 114.843 119.32 114.793H119.6Z" fill="#00214E"/>
<path d="M169.86 114.153C175.52 114.153 175.52 122.853 169.86 122.893H169.61C163.94 122.893 163.94 114.193 169.61 114.153H169.86Z" fill="#00214E"/>
</svg>
