<svg width="340" height="340" viewBox="0 0 340 340" fill="none" xmlns="http://www.w3.org/2000/svg">
<path d="M205.377 39.1911C193.377 35.1911 180.517 31.9111 167.837 33.3411C147.705 35.6522 128.542 43.2417 112.287 55.3411C102.357 62.7511 89.7369 74.7011 87.6569 87.6611C85.7969 99.2611 99.9169 107.891 97.2469 118.421C94.9769 127.341 76.7669 125.331 73.3969 135.161C69.6869 146.081 89.9069 159.081 86.0769 168.841C82.5669 177.781 57.5469 167.511 56.5569 180.231C55.2069 197.501 84.9969 201.431 82.8869 211.131C80.5769 221.731 47.4869 217.771 45.1369 226.911C42.8769 235.701 68.8569 255.511 104.427 265.611C199.867 292.711 297.427 240.751 294.667 227.521C293.207 220.411 263.407 217.201 262.397 207.871C261.597 200.441 281.287 194.201 279.947 187.541C278.557 180.611 256.287 182.751 254.417 175.351C252.317 167.021 278.597 157.051 276.757 146.891C275.277 138.751 257.457 139.691 255.217 130.621C252.547 119.841 268.997 111.361 266.307 102.621C263.427 93.2811 241.767 96.9811 236.867 85.0811C234.007 78.1411 242.057 72.4611 241.657 64.7511C241.277 57.5611 233.517 48.6911 205.377 39.1911Z" fill="url(#paint0_linear_3_4593)"/>
<path d="M292.367 269.191C225.519 320.662 132.278 320.251 65.8868 268.191L114.547 245.381C116.036 244.677 117.488 243.896 118.897 243.041L120.017 242.341C120.417 242.091 120.807 241.831 121.197 241.561C127.337 237.323 132.368 231.671 135.867 225.081C139.867 217.531 141.187 209.191 141.247 200.691C141.247 194.971 140.937 189.251 140.877 183.521C140.837 180.354 140.804 177.184 140.777 174.011L142.777 175.011L147.977 177.701L178.267 182.851L209.387 188.151L210.327 220.151L210.797 236.021L222.267 240.691L231.267 244.331L292.367 269.191Z" fill="#E18477"/>
<path d="M210.307 220.141C200.247 221.928 189.897 221.119 180.237 217.791C158.687 210.541 144.127 193.081 142.757 175.081L147.957 177.771L178.247 182.921L209.367 188.221L210.307 220.141Z" fill="#A76962"/>
<circle cx="111.777" cy="142.011" r="17" fill="#E18477"/>
<circle cx="117.777" cy="140.011" r="17" fill="#A76962"/>
<path d="M234.687 115.221C247.147 158.371 222.897 208.471 204.427 210.531C159.787 215.531 128.087 192.741 115.627 149.591C103.167 106.441 119.727 63.7812 152.627 54.2912C185.527 44.8012 222.237 72.0812 234.687 115.221Z" fill="#E18477"/>
<path d="M205.807 109.951C212.881 106.347 221.063 105.575 228.687 107.791" stroke="#00214E"/>
<path d="M150.687 113.651C160.427 108.679 171.878 108.312 181.917 112.651" stroke="#00214E"/>
<path d="M292.367 269.191C225.519 320.662 132.278 320.251 65.8868 268.191L114.547 245.381C116.864 244.292 119.088 243.014 121.197 241.561C121.837 241.121 122.477 240.661 123.087 240.181C128.384 236.126 132.743 230.975 135.867 225.081C138.229 220.555 139.799 215.657 140.507 210.601C141.213 211.285 141.954 211.933 142.727 212.541C148.858 217.075 155.513 220.856 162.547 223.801C165.962 225.226 169.454 226.458 173.007 227.491C183.711 230.612 194.887 231.794 206.007 230.981C207.547 230.861 209.097 230.711 210.637 230.601L210.787 235.681V236.011L222.887 240.931L292.367 269.191Z" fill="#F2D4CF"/>
<path d="M164.347 140.171C167.144 140.351 169.894 139.389 171.967 137.504C174.041 135.618 175.261 132.972 175.347 130.171" stroke="#00214E"/>
<path d="M208.217 127.991C208.274 130.622 209.48 133.095 211.517 134.761C213.537 136.394 215.784 137.725 218.187 138.711" stroke="#00214E"/>
<path d="M157.297 170.251C158.538 168.156 160.078 166.253 161.867 164.601C165.537 161.229 170.143 159.05 175.077 158.351" stroke="#00214E"/>
<path d="M183.017 90.7711H206.687" stroke="#00214E"/>
<path d="M177.237 98.5912H206.687" stroke="#00214E"/>
<path d="M168.367 169.011C168.643 168.574 169.089 168.272 169.598 168.177C170.106 168.082 170.631 168.203 171.047 168.511C173.127 169.971 176.927 173.071 182.327 174.141C189.687 175.611 196.067 172.661 197.597 174.561C198.457 175.631 197.407 176.941 195.397 178.611C191.142 181.79 185.785 183.12 180.537 182.301C173.457 180.971 168.137 172.771 168.137 169.861C168.137 169.562 168.216 169.269 168.367 169.011Z" fill="white"/>
<path d="M198.687 52.1711C194.737 48.4311 187.767 47.2911 182.687 46.5511C160.297 43.2911 139.547 51.8911 122.977 66.6811C114.977 73.7911 107.877 82.1611 103.977 92.1211C99.8168 102.891 97.6768 125.501 114.197 124.591C121.437 124.201 128.297 121.041 134.667 117.831C152.527 108.831 169.517 97.4211 182.987 82.5111C186.342 78.7374 189.475 74.7706 192.367 70.6311C196.047 65.4711 205.467 58.8911 198.747 52.3011C198.725 52.2587 198.705 52.2153 198.687 52.1711V52.1711Z" fill="url(#paint1_linear_3_4593)"/>
<path d="M198.947 122.401C199.227 126.285 199.897 130.131 200.947 133.881C201.947 137.191 203.467 139.251 205.467 142.101C206.163 143.039 206.762 144.044 207.257 145.101C209.907 151.031 206.397 157.621 199.707 157.621H195.587" stroke="#00214E"/>
<path d="M180.957 149.951C179.46 150.715 178.745 152.457 179.275 154.052C179.805 155.647 181.42 156.616 183.077 156.331" stroke="#00214E"/>
<path d="M165.577 122.671C171.677 122.601 171.857 131.921 165.757 132.091H165.487C159.377 132.151 159.197 122.831 165.297 122.661H165.577V122.671Z" fill="#00214E"/>
<path d="M215.807 121.081C221.477 121.021 221.647 129.671 215.977 129.831H215.687C210.027 129.891 209.857 121.241 215.517 121.091H215.767L215.807 121.081Z" fill="#00214E"/>
<defs>
<linearGradient id="paint0_linear_3_4593" x1="44.9969" y1="273.323" x2="294.717" y2="273.323" gradientUnits="userSpaceOnUse">
<stop stop-color="#16243F"/>
<stop offset="1" stop-color="#6878B1"/>
</linearGradient>
<linearGradient id="paint1_linear_3_4593" x1="195.25" y1="158.872" x2="272.696" y2="17.0174" gradientUnits="userSpaceOnUse">
<stop stop-color="#16243F"/>
<stop offset="0.1" stop-color="#263454"/>
<stop offset="1" stop-color="#6878B1"/>
</linearGradient>
</defs>
</svg>
