<svg width="227" height="283" viewBox="0 0 227 283" fill="none" xmlns="http://www.w3.org/2000/svg">
<path d="M187 93.87C184.58 101.07 184.19 110.87 179.94 117.25C170.59 131.25 152.45 133.65 137.69 138.69C136.715 138.873 135.768 139.179 134.87 139.6L129.65 141.25C124.63 142.83 119.63 144.43 114.65 146.05C107.73 148.3 98.2199 149.68 93.2399 155.36C90.3706 158.641 87.6992 162.091 85.2399 165.69C84.7599 166.4 84.1699 167.18 83.3199 167.25C82.7799 167.25 82.3199 166.54 81.8699 166.25C72.9899 161.47 66.4599 154.91 60.9899 146.59C44.4771 121.096 37.7297 90.4945 41.9899 60.42C42.0499 59.98 42.1099 59.55 42.1799 59.11C43.8587 49.3795 48.2942 40.3349 54.9599 33.05C61.7006 25.7307 69.6498 19.6251 78.4599 15C83.7013 12.2286 89.1044 9.77416 94.6399 7.65C106.653 2.90768 119.408 0.31813 132.32 0C144.583 0.0112735 156.726 2.41272 168.07 7.07C183.69 13.32 195.8 24.99 196.81 42.65C197.81 60.06 192.53 77.41 187 93.87Z" fill="#00214E"/>
<circle cx="64.8999" cy="120.86" r="17" fill="#F2A196"/>
<circle cx="70.75" cy="119.86" r="16" fill="#E88870"/>
<path d="M226.48 244C159.632 295.471 66.3909 295.06 0 243L48.66 220.19C50.9774 219.101 53.2015 217.823 55.31 216.37L56.42 215.59L57.2 214.99C62.4959 210.938 66.8551 205.791 69.98 199.9C73.98 192.35 75.3 184.01 75.36 175.51C75.36 172.64 75.3 169.77 75.21 166.9C75.12 164.03 75.02 161.2 74.99 158.34C74.95 155.167 74.9167 151.997 74.89 148.83L76.73 149.78L76.87 149.85L82.07 152.54L84.48 152.95L112.36 157.69L123.41 159.57L143.48 163L144.42 195L144.81 208.3L144.88 210.54V210.87L156.98 215.79L157.73 216.1L226.48 244Z" fill="#F2A196"/>
<path d="M75.2102 160.68L108.07 191.5C118.19 200.395 131.385 204.985 144.84 204.29L144.45 190.99L143.51 158.99L123.44 155.57C120.7 156.81 117.96 158.05 115.22 159.13C107.02 162.36 97.7502 161.13 89.8002 157.77C83.8766 155.144 78.7483 151.005 74.9302 145.77L75.2102 160.68Z" fill="#E88870"/>
<path d="M226.48 244C159.632 295.471 66.3909 295.06 0 243L48.66 220.19C50.9774 219.101 53.2015 217.823 55.31 216.37L56.42 215.59C80.78 232.2 113.24 242.25 141.42 229.59C148.033 226.732 153.691 222.045 157.73 216.08L226.48 244Z" fill="#845161"/>
<path d="M184.53 129.31C184.109 136.612 182.932 143.85 181.02 150.91C176.71 167.83 169.57 184.56 166.02 190.82C163.36 195.49 159.65 196.39 153.78 197.82C139.055 201.19 123.592 197.922 111.49 188.88L75.0702 162C74.5602 157 73.7002 151.75 72.7402 146.4C69.9602 130.86 66.3602 114.4 67.9202 99.86C68.4272 95.7261 70.4342 91.9221 73.5602 89.17C81.9402 81.23 97.5602 77.63 107.3 75.17C121.92 71.41 136.94 69.17 151.35 64.74C161.96 61.44 173.41 56.42 179.77 46.86C179.77 46.86 180.87 57.67 181.12 60.14C181.65 65.23 181.64 69.65 182.19 74.67C182.733 80.1716 182.396 85.7247 181.19 91.12C180.36 94.85 179.38 98.57 178.68 102.33C178.01 105.93 178.96 105.99 180.81 108.54C184.61 113.74 184.76 123.14 184.53 129.31Z" fill="#F2A196"/>
<path d="M117.63 101C123.73 101 123.73 110.38 117.63 110.43H117.36C111.26 110.43 111.26 101.05 117.36 101H117.63Z" fill="#00214E"/>
<path d="M167.76 99.6C173.42 99.65 173.42 108.3 167.76 108.35H167.51C161.84 108.35 161.84 99.65 167.51 99.6H167.76Z" fill="#00214E"/>
<path d="M149.47 105C149.42 105.2 154.26 113.56 156.78 122.59C157.949 127.417 158.494 132.374 158.4 137.34H144.89" stroke="#00214E"/>
<path d="M181.07 150.91C176.76 167.83 169.62 184.56 166.07 190.82C163.41 195.49 159.7 196.39 153.83 197.82C139.104 201.19 123.642 197.922 111.54 188.88L75.0699 162C74.4699 156.11 72.3199 150.47 71.0699 144.67C70.5299 142.05 70.0699 139.31 70.7099 136.67C70.8848 138.059 71.4817 139.361 72.4199 140.4C77.1399 146.82 82.6599 154.07 90.5199 156.71C98.7199 159.46 108.06 159.89 115.97 156.01C122.86 152.63 129.61 148.22 136.8 145.44C141.582 143.465 146.742 142.574 151.91 142.83C159.25 143.33 162.39 146.64 167.76 151.01C169.52 152.45 171.49 153.95 173.76 153.96C176.36 154 178.86 152.56 181.07 150.91Z" fill="#00214E"/>
<path d="M134.44 156.32C141.321 158.455 148.742 158.025 155.33 155.11" stroke="#F2A196"/>
<path d="M102.56 93C111.817 91.0806 121.339 90.8098 130.69 92.2" stroke="#00214E"/>
<path d="M161.61 93.13C167.33 91.8091 173.222 91.4007 179.07 91.92" stroke="#00214E"/>
<path d="M133.56 132.34C132.067 133.104 131.354 134.842 131.881 136.434C132.407 138.026 134.016 138.997 135.67 138.72" stroke="#00214E"/>
<path d="M71.7402 146.44L72.7402 146.38L73.4002 147.16L75.5502 160.98L75.0702 161.16L74.3502 160.17L71.7402 146.44V146.44Z" fill="#00214E"/>
</svg>
