<svg width="227" height="275" viewBox="0 0 227 275" fill="none" xmlns="http://www.w3.org/2000/svg">
<path d="M150.22 206.275C144.553 212.633 138.284 218.427 131.5 223.575C119.39 232.705 110.42 231.655 96.35 230.435C80 229.025 63.78 226.435 47.48 224.515C45.41 224.275 43.19 223.965 41.67 222.515C40.4531 221.162 39.6361 219.496 39.31 217.705C29.6931 182.769 23.8925 146.893 22.01 110.705C20.21 76.1055 38.01 42.2255 71.6 29.5255C106.45 16.3255 151.81 25.0955 172.47 58.1055C201.46 104.475 185.45 166.915 150.22 206.275Z" fill="url(#paint0_linear_3_3582)"/>
<path d="M226.48 235.845C159.632 287.317 66.3909 286.905 0 234.845L48.66 212.035C50.1495 211.331 51.6014 210.55 53.01 209.695L54.13 208.995C54.53 208.745 54.92 208.485 55.31 208.215C61.4491 203.98 66.4803 198.332 69.98 191.745C73.98 184.195 75.3 175.855 75.36 167.355C75.36 161.635 75.05 155.915 74.99 150.185C74.95 147.019 74.9167 143.849 74.89 140.675L76.89 141.675L82.09 144.365L112.38 149.515L143.5 154.815L144.44 186.815L144.91 202.685L156.38 207.355L165.38 210.995L226.48 235.845Z" fill="#00214E"/>
<path d="M144.42 186.795C134.36 188.582 124.01 187.773 114.35 184.445C92.77 177.195 78.24 159.705 76.87 141.685L82.07 144.375L112.36 149.525L143.48 154.825L144.42 186.795Z" fill="#F2A196"/>
<circle cx="49.89" cy="108.665" r="17" fill="#F2A196"/>
<circle cx="55.89" cy="106.665" r="17" fill="#E88870"/>
<path d="M165.43 82.9154C177.17 123.595 152.23 172.785 136.89 172.785C115.89 172.785 64.89 156.005 53.16 115.325C41.43 74.6454 57.07 34.4154 88.07 25.4654C119.07 16.5154 153.68 42.2454 165.43 82.9154Z" fill="#F2A196"/>
<path d="M107.85 129.965C112.654 135.333 119.241 138.776 126.39 139.655" stroke="#00214E"/>
<path d="M170.43 58.6655C166.26 48.5455 155.07 43.5455 144.78 39.7955C139.22 37.7955 133.52 35.7955 127.6 35.6655C122.124 35.6789 116.705 36.7837 111.66 38.9155C102.79 42.3955 93.66 47.5955 86.85 54.2855C83.54 57.5355 80.53 60.9455 77.11 64.1955C75.23 65.9955 73.42 67.8755 71.7 69.8255C70.39 71.3155 68.81 74.4255 67.17 75.4255C97.7 56.9155 135.6 50.0655 170.43 58.6655Z" fill="#FF2609"/>
<path d="M128.47 84.8254C128.47 85.0254 133.26 93.3854 135.79 102.415C136.959 107.242 137.5 112.2 137.4 117.165H123.89" stroke="#00214E"/>
<path d="M140.88 76.3155C147.942 72.7065 156.117 71.9337 163.73 74.1555" stroke="#00214E"/>
<path d="M81.74 80.2954C91.4829 75.3329 102.93 74.9664 112.97 79.2954" stroke="#00214E"/>
<path d="M99.28 89.1555C105.38 89.1555 105.38 98.5255 99.28 98.5755H99C92.9 98.5755 92.9 89.2055 99 89.1555H99.28Z" fill="#00214E"/>
<path d="M149.4 87.7654C155.07 87.7654 155.07 96.4654 149.4 96.5054H149.15C143.49 96.5054 143.49 87.8054 149.15 87.7654H149.4Z" fill="#00214E"/>
<path fill-rule="evenodd" clip-rule="evenodd" d="M137.65 3.14545C169.28 12.6255 186.28 39.9855 192.28 70.4555C196.351 91.5579 195.592 113.308 190.06 134.075C184.34 154.975 175.03 174.675 165.19 193.975C165.038 194.274 164.887 194.57 164.736 194.866C158.557 206.995 153.467 216.987 139.8 222.365C115.77 231.845 86.4801 226.455 66.8901 209.555C32.3701 179.765 16.0701 118.365 22.8401 74.1055C30.3601 24.7855 90.2801 -11.0845 137.65 3.14545ZM100.97 165.555C111.21 171.095 128.19 176.185 139.67 171.555C140.346 171.247 140.989 170.871 141.59 170.435C143.245 169.302 144.744 167.958 146.05 166.435C154.61 156.935 159.88 144.975 163.05 132.435C165.24 123.502 166.58 114.381 167.05 105.195C167.96 89.2855 163.42 74.3255 155.54 60.5455C148.64 48.4655 133.92 36.4255 119.24 40.1555C110.24 42.4655 102.67 48.3155 96.2401 54.9255C92.6147 58.6539 89.4521 62.731 86.2955 66.8004C81.7984 72.5979 77.3134 78.3797 71.5201 83.1155C68.8183 85.4122 65.886 87.4229 62.7701 89.1155C62.2901 89.3555 55.9501 92.4955 55.8801 92.1755C56.5487 95.5967 57.3931 98.9811 58.4101 102.315C65.0701 125.435 75.9501 149.355 96.7301 163.015C98.1034 163.915 99.5167 164.762 100.97 165.555Z" fill="url(#paint1_linear_3_3582)"/>
<defs>
<linearGradient id="paint0_linear_3_3582" x1="21.88" y1="231.257" x2="187.49" y2="231.257" gradientUnits="userSpaceOnUse">
<stop stop-color="#16243F"/>
<stop offset="1" stop-color="#6878B1"/>
</linearGradient>
<linearGradient id="paint1_linear_3_3582" x1="21.3401" y1="227.01" x2="194.86" y2="227.01" gradientUnits="userSpaceOnUse">
<stop stop-color="#16243F"/>
<stop offset="1" stop-color="#6878B1"/>
</linearGradient>
</defs>
</svg>
