<svg width="227" height="274" viewBox="0 0 227 274" fill="none" xmlns="http://www.w3.org/2000/svg">
<path d="M184.24 240.417C173.59 241.747 163.87 244.587 152.99 245.247C144.8 245.747 136.59 244.817 128.41 244.107C110.585 242.558 92.6858 242.027 74.8001 242.517C65.0801 242.787 55.4901 245.157 45.7201 244.617C40.5701 244.337 37.7201 243.027 33.3801 240.617C31.8601 239.767 17.8201 233.127 17.9901 233.837C18.6701 236.627 25.2701 108.077 27.6201 85.6773C29.5201 67.5873 33.5001 49.3673 41.9601 33.1373C50.2601 17.1873 64.8701 8.69727 81.9001 3.79727C107.14 -3.43273 136.19 -0.572733 158.14 14.3973C174.14 25.2973 183.32 51.1173 185.46 70.3973C189.07 103.107 188.47 214.497 184.24 240.417Z" fill="url(#paint0_linear_3_3868)"/>
<path d="M226.48 235.417C159.632 286.889 66.3909 286.477 0 234.417L48.66 211.607C50.1495 210.903 51.6014 210.122 53.01 209.267L54.13 208.567C54.53 208.317 54.92 208.057 55.31 207.787C61.4491 203.552 66.4803 197.903 69.98 191.317C73.98 183.767 75.3 175.427 75.36 166.927C75.36 161.207 75.05 155.487 74.99 149.757C74.95 146.584 74.9167 143.414 74.89 140.247L76.89 141.247L82.09 143.937L112.38 149.087L143.5 154.387L144.44 186.387L144.91 202.257L156.38 206.927L165.38 210.567L226.48 235.417Z" fill="#845161"/>
<path d="M144.22 178.847C134.16 180.634 123.81 179.825 114.15 176.497C92.5699 169.247 78.0699 151.757 76.6699 133.697L81.8699 136.387L112.16 141.537L143.28 146.837L144.22 178.847Z" fill="#69303A"/>
<path d="M226.48 235.417C159.632 286.889 66.3909 286.477 0 234.417L48.66 211.607C50.1495 210.903 51.6014 210.122 53.01 209.267C76.69 226.677 109.65 238.017 138.07 225.267C146.13 221.647 153.4 215.267 156.36 206.957L165.36 210.597L226.48 235.417Z" fill="url(#paint1_linear_3_3868)"/>
<circle cx="49.8899" cy="108.237" r="17" fill="#845161"/>
<circle cx="55.8899" cy="106.237" r="17" fill="#69303A"/>
<path d="M165.43 82.4973C177.17 123.177 152.23 172.367 136.89 172.367C115.89 172.367 64.89 155.587 53.16 114.907C41.43 74.2273 57.07 33.9873 88.07 25.0373C119.07 16.0873 153.68 41.8073 165.43 82.4973Z" fill="#845161"/>
<path d="M130.69 32.5772C129.471 36.2127 127.984 39.7524 126.24 43.1672C119.54 56.7072 107.68 67.0772 95.7199 75.8972C86.5499 82.6572 76.7199 89.0272 65.5399 91.3472C55.3899 93.4672 38.2799 91.4672 32.5399 81.2672C25.9099 69.5972 40.5399 54.8772 47.2099 47.1072C53.5099 39.8172 62.0399 28.6772 71.9399 26.2372C72.1099 26.2372 129.94 3.23724 129.94 3.23724C130.4 10.1372 132.37 16.9472 132.3 23.8872C132.191 26.847 131.648 29.7748 130.69 32.5772V32.5772Z" fill="url(#paint2_linear_3_3868)"/>
<path d="M128.47 84.3973C128.42 84.6373 134.01 100.277 137.4 109.717C137.968 111.323 137.721 113.103 136.74 114.494C135.758 115.885 134.163 116.714 132.46 116.717H128.82" stroke="#00214E"/>
<path d="M139.93 74.1772C146.995 70.5765 155.167 69.8075 162.78 72.0272" stroke="#00214E"/>
<path d="M84.8201 77.8773C94.563 72.9147 106.01 72.5482 116.05 76.8773" stroke="#00214E"/>
<path d="M121.37 110.987C119.736 111.165 118.468 112.496 118.37 114.137C118.395 114.929 118.773 115.668 119.4 116.152C120.027 116.636 120.838 116.814 121.61 116.637" stroke="#00214E"/>
<circle cx="125.85" cy="68.4573" r="4.02" fill="#FF2609"/>
<path d="M102.48 128.027C102.756 127.59 103.202 127.288 103.711 127.193C104.219 127.098 104.745 127.219 105.16 127.527C107.24 128.987 111.04 132.087 116.44 133.157C123.8 134.627 130.19 131.677 131.71 133.577C132.57 134.647 131.52 135.947 129.51 137.627C125.255 140.806 119.898 142.137 114.65 141.317C107.57 139.987 102.25 131.787 102.25 128.877C102.25 128.579 102.329 128.285 102.48 128.027Z" fill="white"/>
<path d="M100.62 87.7473C106.72 87.6773 106.9 97.0073 100.8 97.1773H100.53C94.43 97.2473 94.25 87.9273 100.35 87.7573H100.62V87.7473Z" fill="#00214E"/>
<path d="M150.86 86.1173C156.52 86.0473 156.69 94.6973 151.03 94.8573H150.77C145.11 94.9173 144.94 86.2673 150.61 86.1073H150.86V86.1173Z" fill="#00214E"/>
<defs>
<linearGradient id="paint0_linear_3_3868" x1="17.9901" y1="245.398" x2="187.84" y2="245.398" gradientUnits="userSpaceOnUse">
<stop stop-color="#16243F"/>
<stop offset="1" stop-color="#6878B1"/>
</linearGradient>
<linearGradient id="paint1_linear_3_3868" x1="86.066" y1="301.922" x2="121.078" y2="190.292" gradientUnits="userSpaceOnUse">
<stop stop-color="#315676"/>
<stop offset="1" stop-color="#E1B9E0"/>
</linearGradient>
<linearGradient id="paint2_linear_3_3868" x1="18.4962" y1="71.6777" x2="112.977" y2="123.012" gradientUnits="userSpaceOnUse">
<stop stop-color="#16243F"/>
<stop offset="1" stop-color="#6878B1"/>
</linearGradient>
</defs>
</svg>
