<svg width="234" height="310" viewBox="0 0 234 310" fill="none" xmlns="http://www.w3.org/2000/svg">
<path d="M209.87 104.89C209.87 111.63 201.29 117.44 200.03 123.81C198.73 130.38 204.41 139.02 201.91 145.06C199.41 151.1 189.2 153.29 185.55 158.75C181.9 164.21 183.8 174.43 179.13 179.09C174.46 183.75 164.29 181.82 158.79 185.5C153.29 189.18 151.25 199.32 145.1 201.87C138.95 204.42 130.42 198.69 123.85 199.98C117.48 201.25 111.67 209.83 104.93 209.83C98.19 209.83 92.38 201.25 86.01 199.98C79.45 198.69 70.8 204.37 64.76 201.87C58.72 199.37 56.54 189.16 51.08 185.5C45.62 181.84 35.4 183.73 30.73 179.09C26.06 174.45 28.01 164.25 24.32 158.73C20.63 153.21 10.51 151.19 7.96 145.04C5.41 138.89 11.14 130.36 9.84 123.79C8.58 117.42 0 111.61 0 104.87C0 98.13 8.58 92.32 9.84 85.95C11.11 79.41 5.46 70.73 7.96 64.73C10.46 58.73 20.66 56.51 24.32 51.05C27.98 45.59 26.11 35.36 30.73 30.73C35.35 26.1 45.57 28 51.08 24.32C56.59 20.64 58.62 10.51 64.76 7.96C70.9 5.41 79.45 11.14 86.01 9.84C92.38 8.58 98.19 0 104.93 0C111.67 0 117.48 8.58 123.85 9.84C130.42 11.14 139.06 5.45 145.1 7.96C151.14 10.47 153.33 20.66 158.79 24.32C164.25 27.98 174.47 26.02 179.11 30.73C183.75 35.44 181.83 45.57 185.52 51.08C189.21 56.59 199.36 58.58 201.91 64.73C204.46 70.88 198.73 79.42 200.03 85.98C201.29 92.34 209.87 98.15 209.87 104.89Z" fill="url(#paint0_linear_3_3846)"/>
<path d="M233.11 271.1C166.262 322.571 73.0209 322.16 6.63 270.1L55.29 247.29C56.7795 246.586 58.2314 245.805 59.64 244.95L60.76 244.25C61.16 244 61.55 243.74 61.94 243.47C68.0791 239.235 73.1103 233.586 76.61 227C80.61 219.45 81.93 211.11 81.99 202.61C81.99 196.89 81.68 191.17 81.62 185.44C81.58 182.273 81.5467 179.103 81.52 175.93L83.52 176.93L88.72 179.62L119.01 184.77L150.13 190.07L151.07 222.07L151.54 237.94L163.01 242.61L172.01 246.25L233.11 271.1Z" fill="#845161"/>
<path d="M151.11 222.05C141.043 223.851 130.682 223.053 121.01 219.73C99.43 212.48 84.9 194.99 83.53 176.97L88.73 179.66L119.02 184.81L150.14 190.11L151.11 222.05Z" fill="#69303A"/>
<circle cx="52.55" cy="143.92" r="17" fill="#845161"/>
<circle cx="58.55" cy="141.92" r="17" fill="#69303A"/>
<path d="M175.46 117.14C187.92 160.28 163.67 210.39 145.2 212.44C100.57 217.44 68.8601 194.65 56.4001 151.51C43.9401 108.37 60.5101 65.69 93.4001 56.2C126.29 46.71 163.01 73.99 175.46 117.14Z" fill="#845161"/>
<path d="M139.56 127.37C140.028 130.942 140.859 134.457 142.04 137.86C143.18 140.86 144.66 142.68 146.67 145.2C147.361 146.026 147.971 146.917 148.49 147.86C151.26 153.2 148.38 159.47 142.21 159.86L138.4 160.09" stroke="#00214E"/>
<path d="M124.47 153.8C123.135 154.591 122.575 156.237 123.151 157.679C123.727 159.12 125.267 159.927 126.78 159.58" stroke="#00214E"/>
<path d="M146.59 111.86C153.657 108.266 161.83 107.504 169.44 109.73" stroke="#00214E"/>
<path d="M91.48 115.56C101.219 110.598 112.663 110.231 122.7 114.56" stroke="#00214E"/>
<path d="M233.11 271.1C166.262 322.571 73.0209 322.16 6.63 270.1L55.29 247.29C57.6074 246.201 59.8315 244.923 61.94 243.47C62.58 243.03 63.22 242.57 63.83 242.09C69.1259 238.038 73.4851 232.891 76.61 227C78.9725 222.474 80.5418 217.576 81.25 212.52C81.9562 213.204 82.6972 213.852 83.47 214.46C89.6104 219 96.275 222.784 103.32 225.73C106.735 227.155 110.227 228.386 113.78 229.42C124.484 232.541 135.66 233.723 146.78 232.91C148.32 232.79 149.87 232.64 151.41 232.53L151.56 237.61V237.94L163.66 242.86L233.11 271.1Z" fill="url(#paint1_linear_3_3846)"/>
<path d="M105.11 142.09C107.905 142.264 110.652 141.3 112.724 139.416C114.797 137.532 116.018 134.889 116.11 132.09" stroke="#00214E"/>
<path d="M148.99 129.9C149.054 132.532 150.258 135.006 152.29 136.68C154.307 138.33 156.554 139.678 158.96 140.68" stroke="#00214E"/>
<path d="M98.11 172.16C99.3575 170.072 100.896 168.173 102.68 166.52C106.35 163.143 110.961 160.963 115.9 160.27" stroke="#00214E"/>
<path d="M123.79 92.68H147.46" stroke="#00214E"/>
<path d="M118.01 100.5H147.46" stroke="#00214E"/>
<path d="M150.19 75.51C150.47 79.45 145.54 79.62 143.14 77.04C142.52 76.37 142.08 75.55 141.45 74.89C140.863 74.1747 139.92 73.8564 139.02 74.07C138.49 74.3173 138.05 74.7225 137.76 75.23C135.82 78.11 135.58 81.85 134.14 84.96C132.64 88.0716 129.894 90.4037 126.58 91.38C120.85 92.98 116.23 89.65 114.07 84.56C113.53 83.29 112.35 80.93 110.61 81.84C108.5 82.95 108.48 86.45 108.03 88.49C107.561 90.8377 106.93 93.1499 106.14 95.41C104.59 99.8803 101.402 103.597 97.22 105.81C91.66 108.72 80.53 109.27 77.9 102.23C77.6532 101.384 77.318 100.566 76.9 99.79C76.4729 99.0043 75.6543 98.5109 74.76 98.5C74.5641 98.5113 74.3715 98.5552 74.19 98.63C73.6291 98.8952 73.182 99.353 72.93 99.92C72.6235 100.674 72.4542 101.477 72.43 102.29C72.04 106.69 71.43 111.29 69.43 115.29C67.43 119.29 63.43 122.82 59.01 123.45C57.2333 123.776 55.4123 123.181 54.17 121.87C51.77 119.01 52.89 113.63 53.17 110.22C54.28 97.37 58.17 84.54 65.48 73.84C72.09 64.21 81.58 56.67 92.88 53.41C112.2 47.83 132.88 55.29 148.93 71.31V71.37C149.62 72.653 150.048 74.0602 150.19 75.51Z" fill="url(#paint2_linear_3_3846)"/>
<path d="M149.04 71.37V71.37C129.83 67.07 107.48 69.01 92.64 78.16C66.84 94.07 61.14 106.07 53.26 118.74L52.92 119.3C52.92 118.59 52.92 117.87 52.92 117.15C53.26 86.49 68.45 60.48 92.92 53.41C112.24 47.83 132.92 55.29 148.97 71.31L149.04 71.37Z" fill="#00214E"/>
<path d="M109.11 170.93C109.383 170.489 109.828 170.182 110.338 170.085C110.847 169.988 111.374 170.11 111.79 170.42C113.87 171.89 117.67 174.98 123.07 176.06C130.43 177.52 136.82 174.58 138.34 176.48C139.2 177.55 138.15 178.85 136.14 180.53C131.883 183.706 126.527 185.032 121.28 184.21C114.2 182.89 108.88 174.68 108.88 171.78C108.879 171.481 108.958 171.187 109.11 170.93V170.93Z" fill="white"/>
<path d="M106.96 125.73C113.06 125.66 113.24 134.99 107.14 135.16H106.87C100.77 135.23 100.59 125.91 106.69 125.74H106.96V125.73Z" fill="#00214E"/>
<path d="M157.2 124.08C162.86 124.01 163.03 132.67 157.37 132.82H157.11C151.44 132.88 151.27 124.23 156.94 124.07H157.19L157.2 124.08Z" fill="#00214E"/>
<defs>
<linearGradient id="paint0_linear_3_3846" x1="91.1809" y1="337.997" x2="327.559" y2="118.213" gradientUnits="userSpaceOnUse">
<stop stop-color="#315676"/>
<stop offset="1" stop-color="#E1B9E0"/>
</linearGradient>
<linearGradient id="paint1_linear_3_3846" x1="6.66" y1="309.423" x2="233.14" y2="309.423" gradientUnits="userSpaceOnUse">
<stop stop-color="#16243F"/>
<stop offset="1" stop-color="#6878B1"/>
</linearGradient>
<linearGradient id="paint2_linear_3_3846" x1="160.027" y1="187.592" x2="202.554" y2="36.4678" gradientUnits="userSpaceOnUse">
<stop stop-color="#315676"/>
<stop offset="1" stop-color="#E1B9E0"/>
</linearGradient>
</defs>
</svg>
