<svg width="227" height="273" viewBox="0 0 227 273" fill="none" xmlns="http://www.w3.org/2000/svg">
<path d="M226.48 233.942C159.632 285.414 66.3909 285.002 0 232.942L48.66 210.132C50.9774 209.043 53.2015 207.765 55.31 206.312C55.95 205.872 56.59 205.412 57.2 204.932C62.4959 200.88 66.8551 195.733 69.98 189.842C72.3425 185.316 73.9118 180.419 74.62 175.362C75.1084 172.082 75.3557 168.769 75.36 165.452C75.36 159.732 75.05 154.012 74.99 148.282C74.95 145.116 74.9167 141.946 74.89 138.772L76.89 139.772L82.09 142.462L84.5 142.872L112.36 147.642L143.48 152.942L144.42 184.942L144.73 195.402L144.88 200.482V200.812L157.04 205.642L226.48 233.942Z" fill="#F2D4CF"/>
<path d="M226.48 233.942C159.632 285.414 66.3909 285.002 0 232.942L48.66 210.132C50.9774 209.043 53.2015 207.765 55.31 206.312C55.95 205.872 56.59 205.412 57.2 204.932C80.75 221.692 112.89 232.262 140.69 219.752C147.31 216.752 153.39 211.912 156.99 205.692L226.48 233.942Z" fill="url(#paint0_linear_3_4308)"/>
<path d="M144.87 200.432C134.42 201.062 122.74 198.362 111.87 192.092C91.4601 180.302 80.5501 159.742 84.4701 142.882L112.35 147.642L143.47 152.942L144.41 184.942L144.87 200.432Z" fill="#DAAEA8"/>
<path d="M198.04 44.3424C192.833 61.4557 187.003 78.3657 180.55 95.0724C176.02 106.822 174.07 116.352 162.08 121.912C153.25 126.002 143.41 127.152 134.26 130.282C129.26 132.002 75.0401 147.402 75.0401 150.762C75.0401 150.032 69.7301 144.762 63.0401 138.352C50.8503 126.759 42.6329 111.612 39.5601 95.0724C37.0301 81.0724 39.1601 63.9024 43.2501 50.3824C63.0401 -14.9176 157.81 -2.14762 207.82 9.26238C204.853 21.0357 201.593 32.729 198.04 44.3424Z" fill="url(#paint1_linear_3_4308)"/>
<circle cx="65.05" cy="110.762" r="17" fill="#F2D4CF"/>
<circle cx="70.44" cy="110.762" r="15.22" fill="#DAAEA8"/>
<path d="M70.6699 94.7124L73.0399 124.892L74.4999 144.642C75.0599 151.902 77.8899 156.252 82.6199 162.062C91.0248 172.372 101.732 180.565 113.88 185.982C125.47 191.152 141.56 196.302 153.88 191.282C166.53 186.152 170.58 171.952 174.88 160.172C179.18 148.392 183.09 135.442 182.88 122.722C182.61 105.462 178.04 95.7824 178.04 95.7824C179.153 89.1158 180.26 82.4691 181.36 75.8424C182.61 68.3324 184.22 60.4924 182.36 52.9424C180.23 44.2824 173.7 40.5924 168.36 34.1224C154.2 52.3624 130.92 62.6724 110.59 73.1224C100.04 78.5424 70.6699 94.7124 70.6699 94.7124Z" fill="#F2D4CF"/>
<path d="M99.1699 88.0123C108.427 86.0979 117.949 85.8271 127.3 87.2123" stroke="#00214E"/>
<path d="M161.76 87.0624C167.478 85.7319 173.373 85.3234 179.22 85.8524" stroke="#00214E"/>
<path d="M108.04 147.892C111.741 141.808 117.008 136.828 123.29 133.472" stroke="#00214E"/>
<path d="M127.11 102.722C126.705 106.128 124.807 109.176 121.93 111.042C121.346 111.433 120.726 111.768 120.08 112.042C118.017 112.795 115.86 113.256 113.67 113.412" stroke="#00214E"/>
<path d="M127.27 70.8224H158.88" stroke="#00214E"/>
<path d="M123.25 77.3524H154.86" stroke="#00214E"/>
<path d="M158.73 102.452C159.69 104.997 160.945 107.42 162.47 109.672C163.972 111.748 166.206 113.178 168.72 113.672" stroke="#00214E"/>
<path d="M155.39 122.302C155.862 123.047 156.296 123.814 156.69 124.602C157.144 125.347 157.45 126.172 157.59 127.032C157.617 127.655 157.361 128.257 156.893 128.669C156.424 129.081 155.794 129.259 155.18 129.152C154.55 129.022 154.29 129.992 154.92 130.152C155.728 130.311 156.565 130.142 157.248 129.682C157.931 129.223 158.403 128.51 158.56 127.702C158.625 126.671 158.381 125.644 157.86 124.752C157.386 123.744 156.852 122.766 156.26 121.822C155.92 121.282 155.05 121.822 155.39 122.332V122.302Z" fill="#00214E"/>
<path d="M138.68 123.472C137.83 124.832 136.82 126.532 137.31 128.202C137.7 129.562 139.14 130.822 140.62 130.292C141.22 130.072 140.96 129.102 140.35 129.292C139.35 129.672 138.35 128.612 138.21 127.652C138 126.332 138.88 125.012 139.54 123.942C139.89 123.392 139.02 122.892 138.68 123.442V123.472Z" fill="#00214E"/>
<path d="M122.74 141.642C127.545 147.008 134.132 150.451 141.28 151.332" stroke="#00214E"/>
<ellipse cx="117.364" cy="101.221" rx="3.27" ry="7.94" transform="rotate(-85.77 117.364 101.221)" fill="#00214E"/>
<ellipse cx="168.861" cy="99.603" rx="7.94" ry="3.27" transform="rotate(-8.86 168.861 99.603)" fill="#00214E"/>
<defs>
<linearGradient id="paint0_linear_3_4308" x1="0" y1="272.26" x2="226.48" y2="272.26" gradientUnits="userSpaceOnUse">
<stop stop-color="#16243F"/>
<stop offset="1" stop-color="#6878B1"/>
</linearGradient>
<linearGradient id="paint1_linear_3_4308" x1="38.4401" y1="150.776" x2="207.82" y2="150.776" gradientUnits="userSpaceOnUse">
<stop stop-color="#315676"/>
<stop offset="1" stop-color="#E1B9E0"/>
</linearGradient>
</defs>
</svg>
