<svg width="249" height="271" viewBox="0 0 249 271" fill="none" xmlns="http://www.w3.org/2000/svg">
<path d="M159.567 6.19113C147.567 2.19113 134.717 -1.08887 122.027 0.34113C101.896 2.65225 82.7323 10.2417 66.4773 22.3411C34.5873 46.1211 26.3873 89.1211 13.0673 124.651C8.06728 137.981 3.06728 151.441 0.897283 165.521C-5.42272 207.291 22.4673 222.351 58.6173 232.611C104.167 245.541 154.017 241.681 198.427 226.081C236.257 212.791 251.427 180.751 243.427 142.481C239.427 123.601 231.887 105.681 224.287 87.9311C209.827 54.2511 196.157 18.5411 159.567 6.19113Z" fill="#00214E"/>
<path d="M248.857 232.271C182.007 283.735 88.7707 283.324 22.3773 231.271L71.0373 208.461C72.5267 207.757 73.9787 206.976 75.3873 206.121L76.5073 205.421C76.9073 205.171 77.2973 204.911 77.6873 204.641C83.8324 200.392 88.8642 194.726 92.3573 188.121C96.3573 180.571 97.6773 172.241 97.7373 163.741C97.7373 158.011 97.4273 152.301 97.3673 146.561C97.3273 143.394 97.2939 140.224 97.2673 137.051L99.2673 138.051L104.467 140.741L134.757 145.891L165.877 151.191L166.817 183.191L167.257 199.121L178.727 203.791L187.727 207.431L248.857 232.271Z" fill="#E18477"/>
<path d="M166.767 179.881C164.047 181.561 161.477 182.351 159.227 182.111C144.437 180.521 115.587 168.931 97.4273 147.481C97.4273 146.428 97.4073 145.378 97.3673 144.331C97.3273 141.158 97.2939 137.988 97.2673 134.821L99.2673 135.821L104.467 138.511L134.757 143.661L165.877 148.961L166.767 179.881Z" fill="#A76962"/>
<path d="M248.857 232.271C182.007 283.735 88.7707 283.324 22.3773 231.271L71.0373 208.461C72.5373 207.754 73.9873 206.978 75.3873 206.131C99.0673 223.541 132.027 234.871 160.447 222.081C168.507 218.461 175.777 212.081 178.737 203.771L187.737 207.411L248.857 232.271Z" fill="#FF2609"/>
<circle cx="71.9273" cy="105.081" r="17" fill="#E18477"/>
<circle cx="78.9273" cy="103.081" r="17" fill="#A76962"/>
<path d="M158.927 169.211C138.287 173.071 86.9273 152.431 75.1873 111.751C72.7208 103.276 71.409 94.507 71.2873 85.6812C71.2873 83.9512 71.2873 82.2312 71.3673 80.5312C72.6473 52.1912 87.1473 28.5312 110.057 21.8812C111.377 21.5012 112.707 21.1812 114.057 20.8812C122.07 19.3885 130.331 19.9667 138.057 22.5612C148.021 25.9681 157.039 31.6797 164.377 39.2312C167.474 42.3372 170.322 45.6807 172.897 49.2312C179.455 58.326 184.375 68.4951 187.437 79.2812C199.257 120.021 174.337 166.341 158.927 169.211Z" fill="#E18477"/>
<path d="M154.577 81.0111C154.856 84.8986 155.526 88.748 156.577 92.5011C157.577 95.8111 159.097 97.8611 161.097 100.721C161.791 101.66 162.391 102.665 162.887 103.721C165.537 109.661 162.027 116.251 155.347 116.251H151.257" stroke="#00214E"/>
<path d="M136.597 108.571C135.105 109.335 134.392 111.073 134.918 112.665C135.445 114.257 137.053 115.228 138.707 114.951" stroke="#00214E"/>
<path d="M159.307 68.7312C166.373 65.133 174.543 64.3607 182.157 66.5712" stroke="#00214E"/>
<path d="M106.837 71.6212C116.581 66.66 128.027 66.2935 138.067 70.6212" stroke="#00214E"/>
<path d="M151.467 16.8111C141.547 14.8811 129.647 15.2211 119.917 15.3411C114.607 15.4011 109.227 15.7411 104.167 17.3411C90.1673 21.8511 81.0573 35.3411 75.3773 48.9411C73.9273 52.4111 58.9373 86.9411 59.2673 87.0111C68.8673 90.1311 79.1473 85.7911 88.1573 81.2611C114.897 67.7911 143.277 46.1411 154.777 17.5211C153.707 17.2811 152.597 17.0311 151.467 16.8111Z" fill="#00214E"/>
<path d="M126.257 124.671C126.534 124.234 126.98 123.932 127.488 123.837C127.997 123.742 128.522 123.863 128.937 124.171C131.017 125.631 134.817 128.731 140.217 129.811C147.577 131.271 153.967 128.331 155.487 130.221C156.347 131.291 155.297 132.601 153.287 134.271C149.035 137.456 143.676 138.786 138.427 137.961C131.347 136.631 126.027 128.431 126.027 125.531C126.027 125.229 126.106 124.933 126.257 124.671Z" fill="white"/>
<path d="M120.667 83.0111C126.767 83.0611 126.767 92.3811 120.667 92.4311H120.397C114.297 92.3811 114.297 83.0611 120.397 83.0111H120.667Z" fill="#00214E"/>
<path d="M170.927 82.3511C176.597 82.3511 176.597 91.0511 170.927 91.0911H170.677C165.007 91.0911 165.007 82.3911 170.677 82.3511H170.927Z" fill="#00214E"/>
</svg>
