<svg width="178" height="184" viewBox="0 0 178 184" fill="none" xmlns="http://www.w3.org/2000/svg">
<path d="M123.042 58.1133L74.1666 108.637L47.5408 81.1899L37.0833 91.9999L74.1666 130.333L133.5 68.9999L123.042 58.1133ZM88.9999 15.3333C48.0599 15.3333 14.8333 49.6799 14.8333 91.9999C14.8333 134.32 48.0599 168.667 88.9999 168.667C129.94 168.667 163.167 134.32 163.167 91.9999C163.167 49.6799 129.94 15.3333 88.9999 15.3333ZM88.9999 153.333C56.2183 153.333 29.6666 125.887 29.6666 91.9999C29.6666 58.1133 56.2183 30.6666 88.9999 30.6666C121.782 30.6666 148.333 58.1133 148.333 91.9999C148.333 125.887 121.782 153.333 88.9999 153.333Z" fill="#0066CC"/>
</svg>
