<svg width="180" height="150" viewBox="0 0 180 150" fill="none" xmlns="http://www.w3.org/2000/svg">
<path d="M140.585 49.3853C140.585 52.8574 135.873 55.7691 134.846 58.9721C133.788 62.2897 136.085 66.7677 134.073 69.6706C132.062 72.5736 126.201 73.2 123.337 75.5691C120.473 77.9383 119.785 82.8133 116.253 84.5162C112.722 86.2191 107.396 84.278 103.421 85.1647C99.577 86.0206 96.0829 89.9471 91.9111 89.9471C87.7394 89.9471 84.2505 86.0206 80.407 85.1647C76.4311 84.2824 71.0523 86.1971 67.5741 84.5162C64.0958 82.8353 63.3388 77.9603 60.4905 75.5691C57.6423 73.178 51.7976 72.6133 49.7541 69.6706C47.7105 66.728 50.04 62.2897 48.9811 58.9721C47.9541 55.7691 43.2423 52.8574 43.2423 49.3853C43.2423 45.9133 47.9541 43.0015 48.9811 39.7985C50.04 36.4809 47.7423 32.003 49.7541 29.1C51.7658 26.1971 57.6264 25.5706 60.4905 23.2015C63.3547 20.8324 64.0376 15.9574 67.5741 14.2544C71.1105 12.5515 76.4311 14.4927 80.407 13.6059C84.2505 12.75 87.7447 8.82355 91.9111 8.82355C96.0776 8.82355 99.577 12.75 103.421 13.6059C107.396 14.4883 112.77 12.5735 116.253 14.2544C119.737 15.9353 120.489 20.8103 123.337 23.2015C126.185 25.5927 132.03 26.1574 134.073 29.1C136.117 32.0427 133.782 36.4809 134.846 39.7985C135.873 43.0015 140.585 45.9133 140.585 49.3853Z" fill="#00214E"/>
<ellipse cx="64.53" cy="69.5559" rx="9" ry="7.5" fill="#E18477"/>
<ellipse cx="67.6323" cy="69.1147" rx="8.47059" ry="7.05882" fill="#A76962"/>
<path d="M150.078 123.9C114.687 146.608 65.3246 146.426 30.1765 123.459L55.9376 113.396C57.1645 112.915 58.342 112.351 59.4582 111.71C59.797 111.516 60.1359 111.313 60.4588 111.102C63.2625 109.314 65.5703 107.043 67.2247 104.444C69.3423 101.113 70.0412 97.4339 70.0729 93.6839C70.0729 91.1603 69.9088 88.6368 69.877 86.1089C69.8559 84.7118 69.8382 83.3133 69.8241 81.9133L70.8829 82.3544L73.6253 83.5633L74.9012 83.7442L89.6612 85.8353L106.136 88.1736L106.634 102.291L106.878 109.147V109.293L113.284 111.463L150.078 123.9Z" fill="#E18477"/>
<path d="M106.814 107.554L105.999 107.625C98.0315 108.207 90.1594 105.844 84.4676 101.162L69.9723 86.8191C69.9247 85.5397 69.8664 86.8191 69.8505 85.5353C69.8294 84.1383 69.8117 82.7397 69.7976 81.3397L70.8564 81.7809L73.6094 82.9677L74.8853 83.1485L89.6453 85.2397L106.121 87.578L106.618 101.696L106.814 107.554Z" fill="#A76962"/>
<path d="M67.2353 54.2912C66.8171 54.7324 66.4465 55.5927 66.0494 56.9868C65.1335 60.2206 69.1465 81.4544 69.9141 87.7015L89.1953 99.5515C95.6033 103.538 103.788 104.98 111.584 103.496C114.692 102.882 116.661 102.485 118.064 100.407C120.775 96.4368 127.429 82.8529 127.864 73.2706C127.985 70.5529 127.906 66.4059 125.894 64.0853C124.915 62.9603 124.412 62.9382 124.766 61.3456C125.121 59.7529 125.656 58.05 126.095 56.4C127.308 51.8427 128.276 46.6941 126.524 42.1588C125.592 39.7324 123.946 38.1265 121.606 36.5691C119.107 34.9015 118.075 34.9809 116.576 37.4515C115.565 39.1279 114.549 40.5397 112.5 41.4927C109.53 42.8647 107.508 41.9735 104.559 41.7838C101.975 41.6206 102.251 43.2838 101.684 44.8721C101.098 46.5393 99.8297 47.983 98.1 48.9529C94.885 50.6913 90.7495 50.7102 87.5118 49.0015C87.0725 48.7388 86.5434 48.6012 86.0029 48.6088C84.2347 48.6882 84.1553 50.4574 83.7529 51.7279C82.9006 54.375 79.1894 55.8397 75.8912 55.6279C70.5123 55.2927 68.5959 52.7956 67.2353 54.2912Z" fill="#E18477"/>
<path d="M109.726 62.1838C109.871 63.8977 110.226 65.5947 110.785 67.2485C111.314 68.7088 112.119 69.6177 113.178 70.875C113.543 71.2901 113.861 71.7333 114.125 72.1985C115.523 74.8191 113.665 77.7265 110.128 77.7265H107.942" stroke="#00214E"/>
<path d="M94.3571 82.05C96.9023 84.4157 100.389 85.9341 104.172 86.325" stroke="#00214E"/>
<path d="M84.4729 57.278C89.3741 56.4347 94.4151 56.3167 99.3653 56.9295" stroke="#00214E"/>
<path d="M115.735 57.3265C118.762 56.7386 121.883 56.5583 124.978 56.7927" stroke="#00214E"/>
<path d="M150.078 123.9C114.687 146.608 65.3246 146.426 30.1765 123.459L55.9376 113.396C57.1645 112.915 58.342 112.351 59.4582 111.71C59.797 111.516 60.1359 111.313 60.4588 111.102C72.9264 118.496 89.9417 123.159 104.659 117.64C108.164 116.316 111.383 114.181 113.289 111.437L150.078 123.9Z" fill="url(#paint0_linear_190_3605)"/>
<path d="M100.885 74.6206C100.102 74.9621 99.7304 75.7259 100.008 76.4252C100.285 77.1246 101.129 77.5539 102.002 77.4397" stroke="#00214E"/>
<path d="M92.2447 61.4736C95.4794 61.4736 95.4794 65.6118 92.2447 65.6339H92.1017C88.8723 65.6118 88.8723 61.4956 92.1017 61.4736H92.2447Z" fill="#00214E"/>
<path d="M118.858 61.1824C121.855 61.1824 121.855 65.0206 118.858 65.0427H118.721C115.724 65.0206 115.724 61.2044 118.721 61.1824H118.858Z" fill="#00214E"/>
<defs>
<linearGradient id="paint0_linear_190_3605" x1="30.1765" y1="140.805" x2="150.078" y2="140.805" gradientUnits="userSpaceOnUse">
<stop stop-color="#315676"/>
<stop offset="1" stop-color="#E1B9E0"/>
</linearGradient>
</defs>
</svg>
