<svg width="175" height="168" viewBox="0 0 175 168" fill="none" xmlns="http://www.w3.org/2000/svg">
<path fill-rule="evenodd" clip-rule="evenodd" d="M107.646 23.158C123.076 32.823 126.124 50.8088 126.335 67.2086C126.424 74.1419 126.356 81.045 126.288 87.939C126.155 101.351 126.023 114.729 127.05 128.227C126.978 127.264 110.708 124.946 108.85 124.867C104.943 124.705 100.903 125.057 96.9081 125.405C94.9394 125.577 92.9817 125.748 91.0566 125.855C87.699 126.057 84.2663 126.138 80.8148 126.219C74.1978 126.375 67.5116 126.532 61.1522 127.545C59.919 127.742 58.7021 127.942 57.4951 128.14C51.1053 129.187 44.9947 130.188 38.2324 130.55C37.6978 130.639 37.1478 130.535 36.6882 130.258C36.1735 129.853 36.1735 129.122 36.1735 128.484C36.1735 120.847 36.5299 113.213 36.886 105.584C37.389 94.8093 37.8915 84.0459 37.3882 73.3011C36.9405 64.1599 38.5195 55.0316 42.0206 46.5199C45.0119 39.1799 49.7045 32.5898 55.7426 27.2493C57.3819 25.827 59.1414 24.5379 61.0029 23.3952C74.8331 14.8568 93.7125 14.4319 107.646 23.158ZM62.2691 60.202L69.5213 65.1432L92.889 42.7152L89.95 40.9314C87.1489 45.4888 83.3049 49.375 78.7088 52.2961C73.633 55.6434 68.1011 58.3037 62.2691 60.202Z" fill="#00214E"/>
<path d="M145.909 131.79C111.502 157.223 63.51 157.019 29.3382 131.296L54.3838 120.025C55.1505 119.677 55.8978 119.291 56.6228 118.869L57.1993 118.523C57.4051 118.399 57.6059 118.271 57.8066 118.137C60.9664 116.045 63.5561 113.254 65.3574 109.999C67.4162 106.269 68.0956 102.148 68.1265 97.9477C68.1265 95.6402 68.0287 93.3327 67.9669 91.0301C67.9669 90.5129 67.9566 89.9941 67.936 89.4736C67.9154 87.9089 67.8983 86.3425 67.8846 84.7745H67.9206L68.9037 85.2687L71.5801 86.5978L87.1706 89.1425L103.188 91.7614L103.554 103.62L103.657 107.02V107.548L103.899 115.39L109.802 117.698L114.435 119.496L145.909 131.79Z" fill="#F2A196"/>
<path d="M103.554 103.625C102.444 104.354 101.119 104.72 99.7757 104.668C92.1684 103.882 77.314 98.1552 67.9772 87.5564C67.9772 87.0392 67.9669 86.5204 67.9463 85.9999V84.7794L68.9294 85.2735L71.6059 86.6027L87.1963 89.1474L103.214 91.7662L103.554 103.625Z" fill="#E88870"/>
<ellipse cx="55.0169" cy="68.9478" rx="8.75" ry="8.4" fill="#F2A196"/>
<ellipse cx="58.1051" cy="67.9597" rx="8.75" ry="8.4" fill="#E88870"/>
<path d="M114.486 56.2293C120.529 76.33 107.692 100.636 99.7963 100.636C88.9875 100.636 62.7375 92.3444 56.7 72.2436C50.6625 52.1429 58.7125 32.2596 74.6684 27.8422C90.6243 23.4248 108.443 36.1236 114.486 56.2293Z" fill="#F2A196"/>
<path d="M84.6074 80.6486C87.0793 83.3013 90.4701 85.0027 94.15 85.4366" stroke="#00214E"/>
<path d="M95.2206 58.3441C95.1949 58.4429 97.686 62.5738 98.9831 67.0356C99.5854 69.4224 99.8656 71.8735 99.8169 74.3288H92.8632" stroke="#00214E"/>
<path d="M101.608 54.1392C105.244 52.3608 109.45 51.9791 113.369 53.0719" stroke="#00214E"/>
<path d="M71.1632 56.1057C76.178 53.6537 82.0696 53.4725 87.2375 55.6116" stroke="#00214E"/>
<path d="M80.1912 60.4836C83.3309 60.5083 83.3309 65.1185 80.1912 65.1382H80.0522C76.9125 65.1382 76.9125 60.5083 80.0522 60.4836H80.1912Z" fill="#00214E"/>
<path d="M105.993 59.7969C108.907 59.7969 108.907 64.0957 105.993 64.1155H105.865C102.946 64.1155 102.946 59.8166 105.865 59.7969H105.993Z" fill="#00214E"/>
<path d="M95.7353 22.5651C95.4959 24.8921 95.1057 27.2024 94.5669 29.4828C93.6461 33.5068 92.0835 37.3702 89.9346 40.9364C87.1334 45.4938 83.2895 49.38 78.6934 52.3011C73.6175 55.6484 68.0856 58.3087 62.2537 60.207C57.6351 61.7132 52.9122 62.9069 48.1199 63.7795C48.2794 60.0093 48.1199 55.3449 48.6037 50.967C48.964 47.8244 49.6846 44.8251 51.136 42.4089C55.0742 36.0156 60.8189 30.8245 67.7044 27.4371L67.7662 27.4075C75.3787 23.6472 87.1706 19.9364 95.7353 22.5651Z" fill="#00214E"/>
<path d="M145.909 131.79C111.502 157.223 63.51 157.019 29.3382 131.296L54.3838 120.025C55.5766 119.487 56.7214 118.855 57.8066 118.137C58.136 117.92 58.4654 117.693 58.7794 117.455C61.5052 115.453 63.7489 112.91 65.3574 109.999C66.5733 107.763 67.3811 105.343 67.7456 102.844C68.1091 103.182 68.4905 103.502 68.8882 103.803C72.0439 106.045 75.469 107.915 79.0897 109.372C80.8474 110.076 82.6448 110.684 84.4735 111.195C89.9829 112.737 95.7352 113.321 101.459 112.919C102.251 112.86 103.049 112.786 103.842 112.732L103.919 115.242V115.405L110.147 117.836L145.909 131.79Z" fill="#F2D4CF"/>
<path d="M89.9243 40.9561C87.1231 45.5135 83.2792 49.3997 78.6831 52.3208C73.6072 55.6681 68.0754 58.3284 62.2434 60.2267L48.5934 50.9867L42.0206 46.5396C45.0119 39.1996 49.7045 32.6096 55.7426 27.269C57.3811 25.8399 59.1406 24.5442 61.0029 23.3951L67.6941 27.4568L89.9243 40.9561Z" fill="url(#paint0_linear_190_3184)"/>
<defs>
<linearGradient id="paint0_linear_190_3184" x1="74.1495" y1="74.0914" x2="93.5088" y2="32.2476" gradientUnits="userSpaceOnUse">
<stop offset="0.29" stop-color="#00214E"/>
<stop offset="0.51" stop-color="#6878B1"/>
<stop offset="0.79" stop-color="#00214E"/>
</linearGradient>
</defs>
</svg>
