<svg id="visual" viewBox="0 0 1512 981" width="1512" height="981" xmlns="http://www.w3.org/2000/svg" xmlns:xlink="http://www.w3.org/1999/xlink" version="1.1"><rect x="0" y="0" width="1512" height="981" fill="#FFFFFF"></rect><defs><linearGradient id="grad1_0" x1="35.1%" y1="0%" x2="100%" y2="100%"><stop offset="19.1743119266055%" stop-color="#ffffff" stop-opacity="1"></stop><stop offset="80.8256880733945%" stop-color="#ffffff" stop-opacity="1"></stop></linearGradient></defs><defs><linearGradient id="grad2_0" x1="0%" y1="0%" x2="64.9%" y2="100%"><stop offset="19.1743119266055%" stop-color="#ffffff" stop-opacity="1"></stop><stop offset="80.8256880733945%" stop-color="#ffffff" stop-opacity="1"></stop></linearGradient></defs><g transform="translate(1512, 0)"><path d="M0 360.5C-36.4 349.6 -72.9 338.7 -105.1 323.4C-137.3 308 -165.2 288.1 -195.7 269.4C-226.2 250.7 -259.3 233.3 -285.6 207.5C-311.9 181.6 -331.5 147.4 -342.8 111.4C-354.2 75.4 -357.3 37.7 -360.5 0L0 0Z" fill="#0066CC"></path></g><g transform="translate(0, 981)"><path d="M0 -360.5C34.3 -350.1 68.7 -339.7 107.8 -331.9C147 -324.2 191 -319.1 211.9 -291.6C232.7 -264.2 230.4 -214.4 251.6 -182.8C272.8 -151.2 317.5 -137.8 339.5 -110.3C361.6 -82.9 361 -41.4 360.5 0L0 0Z" fill="#0066CC"></path></g></svg>