<svg width="104" height="111" viewBox="0 0 104 111" fill="none" xmlns="http://www.w3.org/2000/svg">
<path d="M69.2233 35.68L40.6667 65.9626L25.11 49.5117L19 55.991L40.6667 78.9671L75.3333 42.2052L69.2233 35.68ZM49.3333 10.0386C25.4133 10.0386 6 30.6252 6 55.991C6 81.3567 25.4133 101.943 49.3333 101.943C73.2533 101.943 92.6667 81.3567 92.6667 55.991C92.6667 30.6252 73.2533 10.0386 49.3333 10.0386ZM49.3333 92.7529C30.18 92.7529 14.6667 76.3019 14.6667 55.991C14.6667 35.68 30.18 19.2291 49.3333 19.2291C68.4867 19.2291 84 35.68 84 55.991C84 76.3019 68.4867 92.7529 49.3333 92.7529Z" fill="#0066CC"/>
</svg>
