<svg width="82" height="101" viewBox="0 0 82 101" fill="none" xmlns="http://www.w3.org/2000/svg">
<path d="M54.6667 0.675781H27.3333V10.1692H54.6667V0.675781ZM36.4444 62.3833H45.5556V33.9029H36.4444V62.3833ZM73.0256 31.0074L79.4944 24.267C77.5356 21.8462 75.3944 19.5678 73.0711 17.5741L66.6022 24.3145C59.5411 18.4285 50.6578 14.916 41 14.916C18.3589 14.916 0 34.0453 0 57.6365C0 81.2278 18.3133 100.357 41 100.357C63.6867 100.357 82 81.2278 82 57.6365C82 47.5735 78.6289 38.3173 73.0256 31.0074ZM41 90.8636C23.37 90.8636 9.11111 76.0064 9.11111 57.6365C9.11111 39.2667 23.37 24.4094 41 24.4094C58.63 24.4094 72.8889 39.2667 72.8889 57.6365C72.8889 76.0064 58.63 90.8636 41 90.8636Z" fill="#0066CC"/>
</svg>
