<svg id="visual" viewBox="0 0 1512 981" width="1512" height="981" xmlns="http://www.w3.org/2000/svg" xmlns:xlink="http://www.w3.org/1999/xlink" version="1.1"><path d="M0 797L36 787.3C72 777.7 144 758.3 216 756C288 753.7 360 768.3 432 767.3C504 766.3 576 749.7 648 746C720 742.3 792 751.7 864 752.5C936 753.3 1008 745.7 1080 729.7C1152 713.7 1224 689.3 1296 684.5C1368 679.7 1440 694.3 1476 701.7L1512 709L1512 982L1476 982C1440 982 1368 982 1296 982C1224 982 1152 982 1080 982C1008 982 936 982 864 982C792 982 720 982 648 982C576 982 504 982 432 982C360 982 288 982 216 982C144 982 72 982 36 982L0 982Z" fill="#64a7eb"></path><path d="M0 807L36 813.8C72 820.7 144 834.3 216 834.5C288 834.7 360 821.3 432 824.2C504 827 576 846 648 839.2C720 832.3 792 799.7 864 796.7C936 793.7 1008 820.3 1080 837.2C1152 854 1224 861 1296 850.7C1368 840.3 1440 812.7 1476 798.8L1512 785L1512 982L1476 982C1440 982 1368 982 1296 982C1224 982 1152 982 1080 982C1008 982 936 982 864 982C792 982 720 982 648 982C576 982 504 982 432 982C360 982 288 982 216 982C144 982 72 982 36 982L0 982Z" fill="#3987dd"></path><path d="M0 914L36 903C72 892 144 870 216 871.2C288 872.3 360 896.7 432 901C504 905.3 576 889.7 648 888.5C720 887.3 792 900.7 864 896.5C936 892.3 1008 870.7 1080 861.7C1152 852.7 1224 856.3 1296 862C1368 867.7 1440 875.3 1476 879.2L1512 883L1512 982L1476 982C1440 982 1368 982 1296 982C1224 982 1152 982 1080 982C1008 982 936 982 864 982C792 982 720 982 648 982C576 982 504 982 432 982C360 982 288 982 216 982C144 982 72 982 36 982L0 982Z" fill="#0066cc"></path></svg>