<svg width="162" height="170" viewBox="0 0 162 170" fill="none" xmlns="http://www.w3.org/2000/svg">
<path d="M134.117 136.283C102.266 162.019 57.8392 161.813 26.2059 135.783L49.3909 124.378C50.4951 123.833 51.5548 123.195 52.5595 122.468C52.8644 122.248 53.1693 122.018 53.46 121.778C55.9833 119.752 58.0604 117.179 59.5493 114.233C60.6749 111.97 61.4227 109.521 61.7601 106.993C61.9928 105.353 62.1106 103.697 62.1127 102.038C62.1127 99.1781 61.965 96.3181 61.9364 93.4531C61.9173 91.8665 61.9015 90.2815 61.8888 88.6981L62.8417 89.1981L65.3193 90.5431L66.4676 90.7481L79.7516 93.1181L94.5794 95.7681L95.0273 111.768L95.175 116.998L95.2465 119.538V119.703L101.012 122.163L134.117 136.283Z" fill="#E18477"/>
<path d="M95.2274 119.088C93.5898 119.384 91.9049 119.11 90.4293 118.308L61.9983 93.9031C61.965 92.7731 61.9364 93.9581 61.9221 92.8281C61.903 91.2448 61.8872 89.6598 61.8745 88.0731L62.8274 88.5731L65.305 89.9181L66.4533 90.1231L79.7373 92.4931L94.5651 95.1431L95.013 111.143L95.1607 116.373L95.2322 118.913V119.078L95.2274 119.088Z" fill="#A76962"/>
<path d="M116.488 38.0182C124.662 42.8775 131.1 50.406 134.822 59.4582C131.658 59.727 128.539 60.409 125.536 61.4882H125.507C124.726 61.7682 123.951 62.0765 123.182 62.4132L122.705 62.6282L121.948 62.9782C121.695 63.0932 121.443 63.2182 121.195 63.3482C120.947 63.4782 120.719 63.6032 120.447 63.7382C120.175 63.8731 119.971 64.0032 119.708 64.1432C119.446 64.2831 119.275 64.3881 119.06 64.5182C118.546 64.8181 118.041 65.1332 117.545 65.4582C117.348 65.5848 117.153 65.7148 116.959 65.8482C115.048 67.146 113.254 68.6238 111.599 70.2632C109.507 72.3382 107.554 74.7232 105.405 76.8532C103.562 78.8025 101.403 80.3922 99.0296 81.5481C94.4365 83.6231 89.1238 84.8232 84.3543 86.5481L61.9602 94.6731C61.9602 94.3031 59.4254 91.6732 56.2426 88.4682C47.8661 80.1116 43.0127 68.5936 42.7585 56.4682C41.9866 19.8382 82.9916 9.06815 110.894 16.9182C115.326 18.1705 119.541 20.1517 123.382 22.7882C125.926 24.5144 128.253 26.5687 130.31 28.9032C132.71 31.6125 134.637 34.7435 136.004 38.1532L135.627 38.0832C129.303 36.8592 122.82 36.8372 116.488 38.0182Z" fill="url(#paint0_linear_190_3194)"/>
<path d="M134.822 59.4582C131.658 59.7271 128.539 60.409 125.536 61.4882H125.507C124.716 61.7514 123.94 62.0602 123.182 62.4132L122.705 62.6282L121.938 62.9882C121.686 63.1082 121.438 63.2282 121.186 63.3582C120.933 63.4882 120.709 63.6132 120.437 63.7482C120.166 63.8832 119.961 64.0132 119.699 64.1532C119.437 64.2932 119.265 64.3982 119.051 64.5282C118.536 64.8282 118.031 65.1432 117.536 65.4682L116.95 65.8582C115.039 67.156 113.245 68.6338 111.589 70.2732C109.498 72.3482 107.544 74.7332 105.395 76.8632C104.7 77.1632 104.009 77.4782 103.318 77.7932C103.404 77.7532 102.77 69.2932 102.789 68.4382C102.869 65.1716 103.224 61.9188 103.852 58.7182C105.062 52.5632 104.29 46.8382 105.457 40.5282C105.704 39.1197 106.022 37.7261 106.41 36.3532C108.402 34.7932 111.175 34.3132 113.591 33.9482C119.38 33.0732 125.336 33.9032 130.906 35.7432C131.827 36.0492 132.732 36.4064 133.617 36.8132C134.036 37.0082 134.446 37.2182 134.851 37.4432C135.208 37.7255 135.595 37.9637 136.004 38.1532C129.55 36.9037 122.937 36.858 116.468 38.0182C124.65 42.8741 131.095 50.403 134.822 59.4582Z" fill="url(#paint1_linear_190_3194)"/>
<ellipse cx="57.2003" cy="74.6931" rx="8.1" ry="8.5" fill="#E18477"/>
<ellipse cx="59.7685" cy="74.6931" rx="7.25188" ry="7.61" fill="#A76962"/>
<path d="M59.8781 66.6731L61.965 95.1731L93.6217 114.583C98.1664 116.362 103.255 114.228 105.381 109.653C109.936 99.8631 117.245 84.4081 116.283 78.6531C114.853 70.1531 111.041 67.1531 111.041 67.1531C111.572 63.8198 112.099 60.4965 112.623 57.1831C113.224 53.4281 113.986 49.5081 113.1 45.7331C112.085 41.4081 108.969 39.5581 106.405 36.3231C99.6586 45.4431 88.5663 50.5981 78.8797 55.8231C73.8768 58.5831 59.8781 66.6731 59.8781 66.6731Z" fill="#E18477"/>
<path d="M75.1489 60.7781C79.5611 59.829 84.098 59.7021 88.552 60.4031" stroke="#00214E"/>
<path d="M103.285 60.8332C106.008 60.1728 108.814 59.9686 111.599 60.2282" stroke="#00214E"/>
<path d="M92.3114 80.0731C91.6002 80.4551 91.2606 81.3242 91.5114 82.1202C91.7623 82.9162 92.5287 83.4014 93.3167 83.2631" stroke="#00214E"/>
<path d="M100.912 74.9032C100.912 74.9032 101.05 77.7282 101.684 79.0532C101.955 79.6232 102.379 80.1032 102.637 80.6732C103.69 82.8382 101.989 83.2982 100.345 83.2982" stroke="#00214E"/>
<path d="M134.117 136.283C102.266 162.019 57.8392 161.813 26.2059 135.783L49.3909 124.378C50.4951 123.833 51.5548 123.195 52.5595 122.468C52.8644 122.248 53.1693 122.018 53.46 121.778C55.9833 119.752 58.0604 117.179 59.5493 114.233C60.6749 111.97 61.4227 109.521 61.7601 106.993C62.0966 107.335 62.4497 107.659 62.8179 107.963C65.7394 110.23 68.91 112.12 72.2615 113.593C73.8887 114.305 75.5526 114.921 77.2454 115.438C82.3455 116.999 87.6705 117.59 92.9689 117.183C93.7027 117.123 94.4412 117.048 95.175 116.993L95.2465 119.533V119.698L101.012 122.158L134.117 136.283Z" fill="#00214E"/>
<ellipse cx="85.1167" cy="68.2782" rx="9.05294" ry="9.5" stroke="white"/>
<ellipse cx="110.436" cy="66.7782" rx="9.05294" ry="9.5" stroke="white"/>
<path d="M94.1696 68.2782L101.383 67.6282" stroke="white"/>
<path d="M84.4401 89.0181C84.5727 88.7992 84.7861 88.648 85.0291 88.6006C85.2722 88.5532 85.5231 88.6139 85.7218 88.7681C86.7081 89.4981 88.5234 91.0481 91.0964 91.5831C94.6032 92.3181 97.6431 90.8431 98.3721 91.7931C98.7819 92.3281 98.2816 92.9831 97.3239 93.8181C95.2962 95.4072 92.744 96.0722 90.2435 95.6631C86.8701 94.9981 84.3353 90.8981 84.3353 89.4431C84.336 89.2945 84.3721 89.1485 84.4401 89.0181Z" fill="white"/>
<ellipse rx="1.63459" ry="3.78422" transform="matrix(0.0703069 -0.997525 0.997002 0.0773815 82.9847 68.1895)" fill="#00214E"/>
<ellipse rx="3.78771" ry="1.63322" transform="matrix(0.986884 -0.161433 0.146933 0.989147 107.529 67.3785)" fill="#00214E"/>
<defs>
<linearGradient id="paint0_linear_190_3194" x1="96.6905" y1="103.192" x2="156.322" y2="32.7244" gradientUnits="userSpaceOnUse">
<stop stop-color="#16243F"/>
<stop offset="1" stop-color="#6878B1"/>
</linearGradient>
<linearGradient id="paint1_linear_190_3194" x1="102.794" y1="77.792" x2="136.004" y2="77.792" gradientUnits="userSpaceOnUse">
<stop stop-color="#16243F"/>
<stop offset="1" stop-color="#6878B1"/>
</linearGradient>
</defs>
</svg>
